SplineFontDB: 3.0
FontName: RWGaramond-Regular
FullName: RW Garamond Regular
FamilyName: RW Garamond
Weight: Regular
Copyright: RW Garamond is a modified version of URW Garamond No. 8. and GaramondX, with changes being made to support OpenType.\n(c) 2000, 2014, (URW)++ Design & Development.\n(c) 2005, Ralf Stubner. \n(c) 2009, Gael Varoquaux.\n(c) 2012-2017, Michael Sharpe.\n(c) 2019, Daniel Benjamin Miller.\nUsage of this font is subject to the Aladdin Free Public License.
Version: 2.00
ItalicAngle: 0
UnderlinePosition: -960
UnderlineWidth: 196
Ascent: 1510
Descent: 538
InvalidEm: 0
LayerCount: 2
Layer: 0 0 "Back" 1
Layer: 1 0 "Fore" 0
FSType: 0
OS2Version: 0
OS2_WeightWidthSlopeOnly: 0
OS2_UseTypoMetrics: 0
CreationTime: 1482005474
ModificationTime: 1556617546
PfmFamily: 17
TTFWeight: 400
TTFWidth: 5
LineGap: 184
VLineGap: 0
OS2TypoAscent: 0
OS2TypoAOffset: 1
OS2TypoDescent: 0
OS2TypoDOffset: 1
OS2TypoLinegap: 184
OS2WinAscent: 0
OS2WinAOffset: 1
OS2WinDescent: 0
OS2WinDOffset: 1
HheadAscent: 0
HheadAOffset: 1
HheadDescent: 0
HheadDOffset: 1
OS2Vendor: 'PfEd'
Lookup: 1 0 0 "supsSuperscriptlookup" { "supsSuperscriptlookup subtable" ("superior") } ['sups' ('latn' <'dflt' > 'grek' <'dflt' > 'DFLT' <'dflt' > ) ]
Lookup: 1 0 0 "smcpLowercasetoSmallCapitalslookup" { "smcpLowercasetoSmallCapitalslookup subtable"  } ['smcp' ('latn' <'dflt' > 'grek' <'dflt' > 'DFLT' <'dflt' > ) ]
Lookup: 1 0 0 "swshSwashlookup" { "swshSwashlookup subtable" ("swash") } ['swsh' ('latn' <'dflt' > 'grek' <'dflt' > 'DFLT' <'dflt' > ) ]
Lookup: 1 0 0 "cv01CharacterVariants01" { "cv01CharacterVariants01 subtable"  } ['cv01' ('latn' <'dflt' > 'grek' <'dflt' > 'DFLT' <'dflt' > ) ]
Lookup: 1 0 0 "cv02CharacterVariants02" { "cv02CharacterVariants02 subtable"  } ['cv02' ('latn' <'dflt' > 'grek' <'dflt' > 'DFLT' <'dflt' > ) ]
Lookup: 1 0 0 "cv03CharacterVariants03" { "cv03CharacterVariants03 subtable"  } ['cv03' ('latn' <'dflt' > 'grek' <'dflt' > 'DFLT' <'dflt' > ) ]

StartChar: A
Encoding: 65 65 1
Width: 1548
GlyphClass: 2
Flags: HMW
HStem: -10 68<1456 1495 1456 1495> 559 80<502 926 502 956 477 926>
LayerCount: 2
Fore
SplineSet
956 559 m 1
 477 559 l 1
 401 324 l 2
 376 244 362 180 362 143 c 0
 362 84 411 57 522 53 c 0
 532 53 535 49 535 33 c 2
 535 10 l 2
 535 -6 530 -10 512 -10 c 2
 248 0 l 2
 221 0 197 -2 168 -4 c 0
 113 -8 73 -10 55 -10 c 0
 41 -10 37 -4 37 14 c 2
 37 37 l 2
 37 53 41 53 82 57 c 0
 205 69 211 75 274 268 c 2
 651 1366 l 1
 684 1405 745 1457 786 1477 c 1
 1272 252 l 2
 1333 88 1364 61 1489 57 c 0
 1501 57 1503 51 1503 37 c 2
 1503 10 l 2
 1503 -6 1499 -10 1485 -10 c 2
 1456 -10 l 2
 1399 -6 1235 0 1221 0 c 0
 1190 0 1038 -6 1001 -8 c 0
 991 -10 981 -10 977 -10 c 0
 963 -10 958 -4 958 14 c 2
 958 35 l 2
 958 55 959 55 1012 57 c 0
 1090 61 1124 78 1124 113 c 0
 1124 127 1120 141 1108 172 c 0
 1100 190 1093 209 1085 225 c 2
 956 559 l 1
926 639 m 1
 698 1223 l 1
 502 639 l 1
 926 639 l 1
EndSplineSet
EndChar

StartChar: B
Encoding: 66 66 2
Width: 1245
GlyphClass: 2
Flags: HW
HStem: -10 78<632 742 609 808> 727 68<554 636> 1356 66<56 68 569 685>
VStem: 262 184<270 283 283 715 797 1139 1139 1203> 866 190<1024 1162> 963 201<291 499>
LayerCount: 2
Fore
SplineSet
365 1413 m 1xf4
 461 1419 l 2
 486 1421 516 1421 555 1421 c 0
 893 1421 1057 1310 1057 1079 c 0xf8
 1057 968 1016 895 928 844 c 0
 893 824 854 809 762 782 c 1
 1032 737 1163 610 1163 387 c 0
 1163 137 971 -10 645 -10 c 0
 618 -10 600 -10 444 -2 c 0
 411 0 391 0 375 0 c 0
 373 0 340 -2 291 -4 c 2
 211 -6 l 1
 137 -8 l 2
 106 -10 82 -10 66 -10 c 0
 46 -10 37 -4 37 14 c 2
 37 29 l 2
 37 56 37 55 117 57 c 0
 185 57 224 71 244 102 c 0
 258 127 262 164 262 270 c 2
 262 1139 l 2
 262 1268 256 1298 231 1323 c 0
 202 1350 187 1354 68 1356 c 0
 45 1356 37 1362 37 1382 c 2
 37 1397 l 2
 37 1415 46 1421 66 1421 c 0
 84 1421 129 1419 311 1411 c 1
 365 1413 l 1xf4
446 1204 m 2
 446 797 l 1
 471 795 476 795 496 795 c 2
 530 795 l 2
 741 795 866 899 866 1073 c 0
 866 1251 768 1356 602 1356 c 0
 536 1356 492 1344 469 1321 c 0
 451 1303 446 1280 446 1204 c 2
446 715 m 1
 446 283 l 2
 446 158 453 133 498 100 c 0
 527 80 578 68 641 68 c 0
 844 68 963 188 963 393 c 0xf4
 963 604 822 727 580 727 c 0
 529 727 491 723 446 715 c 1
EndSplineSet
EndChar

StartChar: C
Encoding: 67 67 3
Width: 1511
GlyphClass: 2
Flags: HMW
HStem: -41 80<748 994 748 1008> 1370 80<737 984 678 1002>
VStem: 96 229<522 894 522 911> 1368 74
LayerCount: 2
Fore
SplineSet
1389 1329 m 1
 1419 1073 l 2
 1421 1063 1421 1055 1421 1053 c 0
 1421 1043 1417 1038 1403 1036 c 2
 1389 1034 l 2
 1383 1032 1380 1032 1376 1032 c 0
 1368 1032 1368 1032 1335 1114 c 0
 1267 1272 1104 1370 901 1370 c 0
 573 1370 326 1084 326 705 c 0
 326 340 588 39 907 39 c 0
 1081 39 1252 109 1313 205 c 0
 1336 242 1356 285 1368 332 c 0
 1378 363 1383 369 1395 367 c 2
 1407 365 l 1
 1421 362 l 2
 1435 362 1442 356 1442 346 c 0
 1442 340 1442 340 1436 311 c 2
 1393 68 l 1
 1250 -4 1090 -41 926 -41 c 0
 465 -41 96 291 96 707 c 0
 96 1117 457 1450 899 1450 c 0
 1069 1450 1256 1403 1389 1329 c 1
EndSplineSet
EndChar

StartChar: D
Encoding: 68 68 4
Width: 1624
GlyphClass: 2
Flags: HMW
HStem: -10 66<680 793> 1384 66<616 786>
VStem: 246 184<283 354 354 1022 1022 1146> 1323 217<588 813>
LayerCount: 2
Fore
SplineSet
246 272 m 2
 246 1022 l 2
 246 1270 246 1278 219 1307 c 0
 203 1327 168 1337 125 1337 c 0
 107 1337 84 1335 57 1329 c 0
 49 1327 43 1327 39 1327 c 0
 25 1327 20 1337 20 1372 c 0
 20 1392 35 1397 125 1409 c 0
 289 1434 534 1450 698 1450 c 0
 907 1450 1057 1415 1194 1333 c 0
 1415 1204 1540 981 1540 715 c 0
 1540 461 1428 254 1223 125 c 0
 1067 29 912 -10 674 -10 c 0
 604 -10 604 -10 446 -4 c 0
 401 -2 365 0 338 0 c 0
 299 0 156 -4 115 -8 c 0
 90 -10 69 -10 53 -10 c 0
 33 -10 25 -4 25 16 c 2
 25 29 l 2
 25 56 31 57 82 57 c 0
 170 57 204 69 227 104 c 0
 241 127 246 168 246 272 c 2
430 1163 m 2
 430 354 l 2
 430 211 443 162 496 121 c 0
 545 80 631 55 729 55 c 0
 1071 55 1323 334 1323 715 c 0
 1323 912 1258 1085 1139 1212 c 0
 1026 1335 893 1384 680 1384 c 0
 553 1384 484 1368 453 1331 c 0
 435 1306 430 1282 430 1163 c 2
EndSplineSet
EndChar

StartChar: E
Encoding: 69 69 5
Width: 1284
GlyphClass: 2
Flags: HMW
HStem: -2 68 725 70<559 694 549 724> 1356 68<75 92 74 146 756 818>
VStem: 283 184<272 279 279 723 797 1139> 911 55 1044 68
LayerCount: 2
Fore
SplineSet
467 723 m 1
 467 279 l 2
 467 158 471 137 508 106 c 0
 545 75 594 66 721 66 c 2
 791 66 l 2
 1031 66 1047 73 1149 270 c 0
 1161 295 1168 301 1176 301 c 0
 1203 301 1223 293 1223 281 c 0
 1223 277 1218 260 1212 240 c 2
 1163 66 l 2
 1149 21 1138 -2 1130 -6 c 0
 1122 -10 1114 -10 1057 -10 c 2
 606 -4 l 2
 530 -2 530 -2 481 -2 c 2
 420 -2 l 2
 371 0 348 0 348 0 c 2
 311 0 280 -2 231 -4 c 0
 157 -8 119 -10 88 -10 c 0
 55 -10 49 -7 49 16 c 2
 49 29 l 2
 49 58 49 57 137 57 c 0
 205 57 244 71 264 104 c 0
 278 127 283 168 283 272 c 2
 283 1141 l 2
 283 1266 277 1300 252 1325 c 0
 221 1352 207 1356 86 1356 c 0
 63 1356 55 1364 55 1384 c 2
 55 1397 l 2
 55 1415 64 1423 84 1423 c 0
 100 1423 123 1423 150 1421 c 2
 231 1417 l 1
 330 1415 l 2
 379 1413 414 1411 428 1411 c 0
 448 1411 486 1413 535 1415 c 0
 625 1419 715 1423 756 1423 c 2
 1055 1423 l 2
 1112 1423 1112 1423 1112 1368 c 2
 1112 1161 l 2
 1112 1120 1110 1116 1092 1116 c 2
 1071 1116 l 2
 1048 1116 1048 1117 1044 1178 c 0
 1038 1264 1009 1312 954 1337 c 0
 919 1351 875 1356 762 1356 c 0
 467 1356 467 1356 467 1139 c 2
 467 797 l 1
 485 795 543 795 555 795 c 0
 834 795 866 809 911 952 c 0
 915 964 920 967 934 967 c 2
 946 967 l 2
 960 967 967 960 967 948 c 2
 965 905 l 2
 959 856 954 790 954 745 c 0
 954 692 959 610 963 592 c 0
 967 569 969 553 969 545 c 0
 969 535 962 526 950 526 c 2
 926 524 l 2
 903 524 903 527 889 623 c 0
 875 725 874 725 573 725 c 0
 544 725 545 725 496 723 c 2
 467 723 l 1
EndSplineSet
EndChar

StartChar: F
Encoding: 70 70 6
Width: 1208
GlyphClass: 2
Flags: HMW
HStem: -10 68<60 61 640 645> 723 66<572 683 572 745> 1346 76
VStem: 260 184<270 719 793 1126> 952 59<539 539> 1047 74<1149 1149>
LayerCount: 2
Fore
SplineSet
444 719 m 1
 444 270 l 2
 444 147 450 113 475 88 c 0
 506 59 522 57 645 57 c 0
 668 55 676 49 676 29 c 2
 676 14 l 2
 676 -4 667 -10 649 -10 c 0
 631 -10 611 -10 584 -8 c 2
 356 0 l 1
 61 -10 l 2
 43 -10 35 -4 35 14 c 2
 35 29 l 2
 35 52 43 57 78 57 c 0
 152 55 192 64 221 82 c 0
 254 105 260 137 260 270 c 2
 260 1139 l 2
 260 1268 254 1298 229 1323 c 0
 200 1350 185 1354 70 1356 c 0
 47 1356 39 1362 39 1382 c 2
 39 1397 l 2
 39 1415 48 1421 66 1421 c 2
 365 1411 l 1
 565 1415 l 1
 686 1417 l 1
 1077 1421 l 2
 1108 1421 1110 1421 1110 1376 c 2
 1120 1159 l 1
 1120 1149 l 2
 1122 1124 1118 1116 1100 1116 c 2
 1075 1114 l 2
 1052 1116 1051 1116 1047 1149 c 0
 1037 1217 1016 1276 993 1303 c 0
 964 1338 919 1346 737 1346 c 0
 452 1346 444 1339 444 1126 c 2
 444 793 l 1
 495 791 551 788 594 788 c 0
 772 788 846 795 881 813 c 0
 916 831 936 864 942 911 c 0
 946 950 949 952 967 956 c 2
 987 961 l 1
 997 961 l 2
 1009 961 1014 954 1014 944 c 0
 1014 938 1012 925 1010 911 c 0
 1006 888 1001 818 1001 752 c 0
 1001 691 1006 610 1010 565 c 0
 1012 555 1012 545 1012 537 c 0
 1012 527 1007 520 997 518 c 2
 977 514 l 1
 969 514 l 2
 959 516 956 519 952 539 c 0
 921 699 876 723 614 723 c 0
 520 723 479 723 444 719 c 1
EndSplineSet
EndChar

StartChar: G
Encoding: 71 71 7
Width: 1624
GlyphClass: 2
Flags: HW
HStem: -41 80<750 979 750 1009> 543 78<989 1004 989 1010> 1370 80<833 1043 833 1046>
VStem: 90 227<531 790> 1266 154<315 358 358 397 84 421> 1352 68<1071 1071>
LayerCount: 2
Fore
SplineSet
1407 1335 m 1xf4
 1417 1096 l 2
 1419 1076 1419 1075 1419 1073 c 0
 1419 1065 1415 1061 1405 1059 c 2
 1382 1055 l 2
 1376 1053 1366 1055 1358 1057 c 2
 1352 1071 l 1xf4
 1346 1098 l 2
 1305 1264 1147 1370 944 1370 c 0
 588 1370 317 1092 317 721 c 0
 317 342 583 39 915 39 c 0
 1042 39 1166 84 1223 152 c 0
 1258 193 1266 227 1266 315 c 2
 1266 358 l 2
 1266 483 1255 508 1194 528 c 0
 1161 540 1143 541 1010 543 c 0
 969 543 963 546 963 569 c 2
 963 588 l 2
 963 611 975 621 1004 621 c 2
 1313 612 l 1
 1556 618 l 2
 1576 618 1583 614 1583 596 c 2
 1583 571 l 2
 1583 551 1577 547 1540 547 c 0
 1431 547 1419 532 1419 397 c 2xf8
 1419 84 l 1
 1265 0 1103 -41 913 -41 c 0
 442 -41 90 272 90 694 c 0
 90 884 166 1073 293 1196 c 0
 453 1356 705 1450 961 1450 c 0
 1127 1450 1257 1415 1407 1335 c 1xf4
EndSplineSet
EndChar

StartChar: H
Encoding: 72 72 8
Width: 1736
GlyphClass: 2
Flags: HMW
HStem: -10 68<65 137 609 615> 715 80<432 1303 432 1303> 1356 66<62 74 1134 1145>
VStem: 248 184<272 715 795 1141> 1303 184<272 715 715 715 795 1141>
LayerCount: 2
Fore
SplineSet
432 795 m 1
 1303 795 l 1
 1303 1141 l 2
 1303 1268 1297 1300 1272 1323 c 0
 1245 1348 1221 1354 1145 1356 c 0
 1122 1356 1116 1362 1116 1382 c 2
 1116 1397 l 2
 1116 1415 1123 1421 1143 1421 c 0
 1157 1421 1175 1421 1198 1419 c 0
 1225 1417 1388 1411 1411 1411 c 0
 1452 1411 1542 1415 1608 1419 c 0
 1633 1421 1651 1421 1669 1421 c 0
 1689 1421 1698 1415 1698 1397 c 2
 1698 1382 l 2
 1698 1357 1691 1356 1640 1354 c 0
 1560 1354 1528 1342 1505 1309 c 0
 1491 1284 1487 1247 1487 1141 c 2
 1487 272 l 2
 1487 143 1493 113 1518 88 c 0
 1545 63 1569 57 1661 57 c 0
 1684 55 1692 49 1692 29 c 2
 1692 14 l 2
 1692 -4 1684 -10 1661 -10 c 2
 1602 -8 l 2
 1520 -2 1454 0 1405 0 c 0
 1370 0 1219 -6 1180 -8 c 0
 1153 -10 1132 -10 1118 -10 c 0
 1098 -10 1090 -4 1090 14 c 2
 1090 29 l 2
 1090 54 1094 55 1145 57 c 0
 1227 57 1261 69 1284 102 c 0
 1298 127 1303 163 1303 272 c 2
 1303 715 l 1
 432 715 l 1
 432 272 l 2
 432 166 437 127 451 102 c 0
 474 69 508 57 590 57 c 0
 641 57 645 54 645 29 c 2
 645 14 l 2
 645 -4 638 -10 618 -10 c 0
 600 -10 582 -10 557 -8 c 0
 530 -6 365 0 342 0 c 0
 326 0 160 -6 137 -8 c 0
 110 -10 90 -10 74 -10 c 0
 56 -10 47 -4 47 14 c 2
 47 29 l 2
 47 56 51 55 102 57 c 0
 172 57 209 71 229 102 c 0
 243 127 248 166 248 272 c 2
 248 1141 l 2
 248 1266 242 1298 217 1323 c 0
 190 1350 170 1354 74 1356 c 0
 51 1356 43 1362 43 1382 c 2
 43 1397 l 2
 43 1415 51 1421 74 1421 c 0
 88 1421 110 1421 133 1419 c 0
 221 1413 277 1411 336 1411 c 0
 389 1411 494 1415 557 1419 c 0
 582 1421 600 1421 618 1421 c 0
 638 1421 645 1415 645 1397 c 2
 645 1382 l 2
 645 1357 641 1356 590 1354 c 0
 506 1354 474 1344 451 1309 c 0
 437 1286 432 1245 432 1141 c 2
 432 795 l 1
EndSplineSet
EndChar

StartChar: I
Encoding: 73 73 9
Width: 679
GlyphClass: 2
Flags: HMW
HStem: -10 68<60 140 613 620> 1356 66<58 70>
VStem: 252 184<270 1139>
LayerCount: 2
Fore
SplineSet
252 270 m 2
 252 1139 l 2
 252 1266 246 1298 221 1323 c 0
 192 1350 174 1354 70 1356 c 0
 47 1356 39 1362 39 1382 c 2
 39 1397 l 2
 39 1415 48 1421 68 1421 c 0
 86 1421 106 1421 133 1419 c 0
 196 1415 299 1411 338 1411 c 0
 367 1411 530 1417 561 1419 c 0
 584 1421 602 1421 616 1421 c 0
 636 1421 643 1415 643 1397 c 2
 643 1382 l 2
 643 1357 639 1356 594 1354 c 0
 504 1352 478 1344 455 1309 c 0
 441 1284 436 1245 436 1139 c 2
 436 270 l 2
 436 166 441 127 455 102 c 0
 478 69 512 57 594 57 c 0
 645 57 649 54 649 29 c 2
 649 14 l 2
 649 -4 644 -10 621 -10 c 0
 607 -10 586 -10 561 -8 c 0
 524 -6 371 0 340 0 c 0
 307 0 196 -4 135 -8 c 0
 110 -10 84 -10 72 -10 c 0
 49 -10 41 -4 41 14 c 2
 41 29 l 2
 41 56 43 55 106 57 c 0
 174 57 213 71 233 102 c 0
 247 127 252 166 252 270 c 2
EndSplineSet
EndChar

StartChar: J
Encoding: 74 74 10
Width: 755
GlyphClass: 2
Flags: HMW
HStem: -475 78<156 218 156 228> 1356 66<99 111>
VStem: -113 201 295 184<33 72 72 1139>
LayerCount: 2
Fore
SplineSet
295 33 m 2
 295 1139 l 2
 295 1264 289 1300 264 1323 c 0
 235 1350 217 1354 111 1356 c 0
 88 1356 80 1362 80 1382 c 2
 80 1397 l 2
 80 1415 88 1421 106 1421 c 0
 120 1421 149 1419 184 1417 c 0
 225 1413 295 1411 385 1411 c 0
 477 1411 553 1413 590 1417 c 0
 621 1419 647 1421 659 1421 c 0
 677 1421 686 1415 686 1397 c 2
 686 1382 l 2
 686 1355 684 1356 625 1354 c 0
 553 1354 518 1340 498 1309 c 0
 484 1286 479 1243 479 1139 c 2
 479 72 l 2
 479 -274 344 -475 113 -475 c 0
 -14 -475 -113 -403 -113 -309 c 0
 -113 -260 -65 -219 -6 -219 c 0
 41 -219 65 -240 88 -299 c 0
 121 -381 135 -397 176 -397 c 0
 260 -397 295 -272 295 33 c 2
EndSplineSet
EndChar

StartChar: K
Encoding: 75 75 11
Width: 1472
GlyphClass: 2
Flags: HMW
HStem: -10 68<52 138 597 614 831 842 842 889> 1354 68<55 139>
VStem: 250 184<270 662 752 1139>
LayerCount: 2
Fore
SplineSet
524 743 m 1
 434 662 l 1
 434 270 l 2
 434 164 439 127 453 102 c 0
 473 69 510 57 590 57 c 0
 639 57 643 54 643 29 c 2
 643 14 l 2
 643 -6 637 -10 608 -10 c 0
 585 -10 534 -8 485 -6 c 0
 417 -2 369 0 338 0 c 0
 313 0 283 -2 133 -8 c 0
 104 -10 77 -10 63 -10 c 0
 40 -10 35 -4 35 14 c 2
 35 29 l 2
 35 56 34 55 104 57 c 0
 172 57 211 71 231 102 c 0
 245 127 250 164 250 270 c 2
 250 1139 l 2
 250 1248 245 1284 231 1309 c 0
 211 1342 176 1354 102 1354 c 0
 41 1356 39 1355 39 1382 c 2
 39 1397 l 2
 39 1415 46 1421 66 1421 c 0
 84 1421 104 1421 129 1419 c 0
 174 1417 303 1411 326 1411 c 0
 355 1411 543 1417 559 1419 c 0
 573 1421 588 1421 594 1421 c 0
 614 1421 621 1415 621 1397 c 2
 621 1382 l 2
 621 1362 615 1356 592 1354 c 0
 494 1350 476 1344 453 1309 c 0
 439 1284 434 1248 434 1139 c 2
 434 752 l 1
 555 889 l 1
 823 1176 920 1288 920 1321 c 0
 920 1346 878 1356 786 1356 c 0
 772 1356 768 1360 768 1374 c 2
 768 1397 l 2
 768 1417 772 1421 795 1421 c 0
 809 1421 840 1419 901 1415 c 0
 958 1413 999 1411 1030 1411 c 0
 1048 1411 1181 1417 1206 1419 c 0
 1222 1421 1241 1421 1247 1421 c 0
 1261 1421 1268 1415 1268 1401 c 2
 1270 1378 l 2
 1270 1355 1267 1354 1210 1354 c 0
 1087 1352 1063 1338 926 1184 c 2
 637 870 l 1
 1161 211 l 2
 1245 100 1313 61 1415 55 c 0
 1450 55 1452 53 1452 35 c 2
 1452 12 l 2
 1452 -6 1448 -10 1430 -10 c 0
 1420 -10 1395 -10 1370 -8 c 0
 1335 -6 1196 0 1176 0 c 0
 1156 0 1116 -2 1065 -4 c 0
 983 -8 932 -10 909 -10 c 2
 842 -10 l 2
 803 -10 801 -11 801 14 c 2
 801 35 l 2
 801 55 802 57 831 57 c 2
 889 57 l 2
 969 59 999 69 999 94 c 0
 999 117 991 131 891 262 c 2
 524 743 l 1
EndSplineSet
EndChar

StartChar: L
Encoding: 76 76 12
Width: 1245
GlyphClass: 2
Flags: HMW
HStem: -10 68<68 143> 1356 66<67 78>
VStem: 254 184<270 358 358 1139>
LayerCount: 2
Fore
SplineSet
254 270 m 2
 254 1139 l 2
 254 1268 248 1298 223 1323 c 0
 194 1350 176 1354 78 1356 c 0
 55 1356 47 1362 47 1382 c 2
 47 1397 l 2
 47 1415 56 1421 76 1421 c 0
 90 1421 108 1421 131 1419 c 0
 180 1415 297 1411 342 1411 c 0
 373 1411 504 1415 561 1419 c 0
 590 1421 613 1421 631 1421 c 0
 651 1421 659 1415 659 1397 c 2
 659 1382 l 2
 659 1355 660 1356 584 1354 c 0
 514 1354 477 1340 457 1309 c 0
 443 1284 438 1248 438 1139 c 2
 438 358 l 2
 438 104 481 66 772 66 c 0
 913 66 999 82 1032 115 c 0
 1046 129 1049 135 1135 291 c 0
 1141 301 1149 305 1159 305 c 0
 1182 305 1196 299 1196 289 c 0
 1196 285 1194 278 1192 270 c 2
 1145 76 l 2
 1135 37 1124 10 1114 0 c 0
 1106 -8 1088 -10 1010 -10 c 2
 428 0 l 2
 412 0 155 -6 143 -8 c 0
 114 -10 94 -10 78 -10 c 0
 58 -10 49 -4 49 14 c 2
 49 29 l 2
 49 56 54 55 109 57 c 0
 179 57 216 71 236 102 c 0
 250 127 254 164 254 270 c 2
EndSplineSet
EndChar

StartChar: M
Encoding: 77 77 13
Width: 1849
GlyphClass: 2
Flags: HW
HStem: -12 68<41 82> 1356 66<74 76 62 155>
VStem: 258 94 291 90<1163 1163 1163 1196 1163 1255> 1409 168<1231 1231> 1421 174<188 221 153 283 153 283>
LayerCount: 2
Fore
SplineSet
922 301 m 1xd0
 1386 1421 l 1
 1456 1419 1545 1415 1559 1415 c 2
 1745 1421 l 2
 1763 1421 1772 1413 1772 1395 c 2
 1772 1378 l 2
 1772 1358 1767 1350 1751 1350 c 2
 1726 1352 l 2
 1718 1354 1708 1354 1698 1354 c 0
 1594 1354 1577 1327 1577 1161 c 0xd8
 1577 1147 1577 1120 1579 1081 c 2
 1595 221 l 2xc4
 1595 84 1633 47 1774 51 c 0
 1801 51 1804 47 1804 27 c 2
 1804 6 l 2
 1804 -6 1800 -10 1786 -10 c 0
 1782 -10 1765 -10 1749 -8 c 0
 1718 -6 1543 0 1516 0 c 0
 1463 0 1335 -6 1280 -10 c 0
 1270 -12 1257 -12 1251 -12 c 0
 1237 -12 1233 -6 1233 8 c 2
 1233 31 l 2
 1233 49 1233 49 1296 53 c 0
 1357 53 1382 65 1409 104 c 0xc8
 1417 122 1421 143 1421 188 c 2
 1421 283 l 1xc4
 1409 1231 l 1
 1315 1032 l 2
 1284 964 1241 869 1188 748 c 0
 1159 685 1108 559 1081 489 c 2
 901 0 l 1
 891 -25 l 2
 885 -48 880 -53 870 -53 c 0
 858 -53 858 -54 823 55 c 0
 815 86 805 114 793 139 c 2
 381 1163 l 1xd8
 352 311 l 1
 352 205 l 2
 352 82 379 57 514 55 c 0
 534 55 541 51 541 33 c 2
 541 8 l 2
 541 -6 536 -10 522 -10 c 0
 516 -10 506 -10 494 -8 c 0
 467 -6 338 0 301 0 c 0
 242 0 113 -6 84 -10 c 0
 70 -12 57 -12 49 -12 c 0
 33 -12 25 -4 25 10 c 2
 25 33 l 2
 25 56 25 55 82 55 c 0
 232 61 250 88 258 324 c 2xe0
 291 1130 l 1
 291 1196 l 2
 291 1315 236 1356 74 1356 c 0
 54 1354 47 1360 47 1378 c 2
 47 1399 l 2
 47 1415 54 1421 72 1421 c 0
 80 1421 90 1421 102 1419 c 0
 178 1415 244 1411 281 1411 c 0
 314 1411 338 1413 375 1417 c 0
 414 1421 416 1421 428 1421 c 0
 459 1421 469 1409 494 1352 c 2
 922 301 l 1xd0
EndSplineSet
EndChar

StartChar: N
Encoding: 78 78 14
Width: 1736
GlyphClass: 2
Flags: HMW
HStem: -10 68<104 185> 1354 68<41 155>
VStem: 297 92<270 1139 1139 1185> 1389 102<295 1139>
LayerCount: 2
Fore
SplineSet
1491 -63 m 1
 1442 -63 l 1
 389 1186 l 1
 389 270 l 2
 389 147 395 111 420 88 c 0
 449 61 471 57 571 57 c 0
 594 55 602 49 602 29 c 2
 602 14 l 2
 602 -2 593 -10 575 -10 c 0
 569 -10 567 -10 440 -4 c 0
 389 -2 350 0 344 0 c 0
 330 0 315 0 172 -8 c 0
 141 -10 119 -10 115 -10 c 0
 95 -10 88 -4 88 14 c 2
 88 29 l 2
 88 56 91 55 152 57 c 0
 220 57 259 71 279 102 c 0
 293 127 297 166 297 270 c 2
 297 1139 l 2
 297 1231 295 1237 258 1274 c 0
 188 1344 166 1352 49 1354 c 0
 33 1354 27 1358 27 1374 c 2
 27 1395 l 2
 27 1420 33 1421 109 1421 c 0
 201 1421 327 1417 481 1409 c 1
 1137 561 l 2
 1170 520 1305 375 1389 295 c 1
 1389 1139 l 2
 1389 1266 1383 1298 1358 1323 c 0
 1329 1350 1312 1352 1206 1356 c 0
 1183 1356 1176 1362 1176 1382 c 2
 1176 1397 l 2
 1176 1415 1184 1421 1202 1421 c 0
 1208 1421 1212 1421 1337 1415 c 0
 1390 1413 1430 1411 1440 1411 c 0
 1463 1411 1475 1411 1616 1419 c 0
 1645 1421 1665 1421 1675 1421 c 0
 1693 1421 1702 1415 1702 1397 c 2
 1702 1382 l 2
 1702 1355 1699 1356 1636 1354 c 0
 1564 1354 1529 1340 1509 1309 c 0
 1495 1284 1491 1248 1491 1139 c 2
 1491 -63 l 1
EndSplineSet
EndChar

StartChar: O
Encoding: 79 79 15
Width: 1736
GlyphClass: 2
Flags: HMW
HStem: -41 70<716 1043 716 1059> 1382 68<766 1006>
VStem: 88 217<543 848 543 890> 1430 217<522 878>
LayerCount: 2
Fore
SplineSet
868 1450 m 0
 1296 1450 1647 1128 1647 735 c 0
 1647 309 1280 -41 838 -41 c 0
 400 -41 88 258 88 680 c 0
 88 1100 442 1450 868 1450 c 0
838 1382 m 0
 695 1382 567 1331 477 1235 c 0
 371 1124 305 942 305 754 c 0
 305 332 547 29 885 29 c 0
 1202 29 1430 299 1430 678 c 0
 1430 1077 1174 1382 838 1382 c 0
EndSplineSet
EndChar

StartChar: P
Encoding: 80 80 16
Width: 1208
GlyphClass: 2
Flags: HW
HStem: -10 68<60 151 620 625> 623 66<622 714 622 725> 1337 72 1372 78<522 615>
VStem: 262 184<270 1120 1120 1194> 909 217<961 1074>
LayerCount: 2
Fore
SplineSet
446 1200 m 2xdc
 446 270 l 2
 446 147 452 111 477 88 c 0
 506 61 529 57 625 57 c 0
 645 55 653 49 653 29 c 2
 653 14 l 2
 653 -4 645 -10 627 -10 c 0
 613 -10 594 -10 571 -8 c 0
 530 -4 397 0 352 0 c 0
 307 0 207 -4 137 -8 c 0
 110 -10 88 -10 72 -10 c 0
 49 -10 43 -4 43 14 c 2
 43 29 l 2
 43 56 43 55 117 57 c 0
 185 57 224 71 244 102 c 0
 258 125 262 166 262 270 c 2
 262 1120 l 2
 262 1267 259 1292 236 1317 c 0
 220 1337 186 1348 139 1348 c 0
 116 1348 99 1345 74 1339 c 0
 66 1337 59 1337 55 1337 c 0
 41 1337 39 1341 37 1382 c 0
 37 1398 45 1403 78 1409 c 0xec
 195 1434 397 1450 557 1450 c 0
 686 1450 785 1427 879 1376 c 0
 1033 1294 1126 1155 1126 1016 c 0
 1126 905 1065 787 971 715 c 0
 891 656 785 623 666 623 c 0
 570 623 555 627 555 662 c 0
 555 682 561 692 573 692 c 0
 577 692 586 692 594 690 c 0
 604 688 615 688 629 688 c 0
 799 688 909 817 909 1018 c 0
 909 1131 869 1231 795 1292 c 0
 742 1337 650 1372 582 1372 c 0
 463 1372 446 1352 446 1200 c 2xdc
EndSplineSet
EndChar

StartChar: Q
Encoding: 81 81 17
Width: 1736
GlyphClass: 2
Flags: HW
HStem: -500 78<1397 1569> -483 61 -41 70 1382 68<762 880>
VStem: 86 217<646 769> 1425 217<655 757>
LayerCount: 2
Fore
SplineSet
829 -41 m 1xbc
 667 -39 526 2 401 82 c 0
 299 148 219 234 164 340 c 0
 113 438 86 549 86 670 c 0
 86 869 154 1042 289 1192 c 0
 445 1364 635 1450 864 1450 c 0
 1003 1450 1137 1418 1262 1350 c 0
 1391 1278 1491 1182 1559 1061 c 0
 1616 959 1642 850 1642 733 c 0
 1642 577 1593 434 1499 297 c 0
 1390 141 1243 39 1059 -12 c 1
 1090 -61 1118 -113 1143 -164 c 0
 1170 -221 1194 -262 1217 -289 c 0
 1252 -332 1295 -362 1352 -385 c 0
 1411 -410 1473 -422 1536 -422 c 2
 1569 -422 l 1
 1595 -422 l 2xbc
 1607 -422 1618 -424 1622 -430 c 0
 1626 -436 1626 -447 1626 -461 c 0
 1626 -473 1624 -481 1620 -483 c 0x7c
 1604 -493 1557 -500 1479 -500 c 0
 1315 -500 1181 -461 1077 -381 c 0
 1016 -334 962 -262 915 -176 c 0
 880 -110 849 -66 829 -41 c 1xbc
836 1382 m 0
 689 1382 567 1335 475 1237 c 0
 424 1184 383 1116 354 1038 c 0
 319 944 303 850 303 754 c 0
 303 539 362 358 483 213 c 0
 583 90 717 29 883 29 c 0
 1033 29 1157 82 1251 186 c 0
 1368 315 1425 479 1425 680 c 0
 1425 834 1391 971 1319 1092 c 0
 1258 1196 1177 1274 1081 1325 c 0
 1007 1364 924 1382 836 1382 c 0
EndSplineSet
Substitution2: "swshSwashlookup subtable" Q.swsh
EndChar

StartChar: R
Encoding: 82 82 18
Width: 1435
GlyphClass: 2
Flags: HMW
HStem: -10 68<57 152 615 631> 698 68<518 572> 1356 66<54 61 52 66 631 679>
VStem: 262 184<270 694 772 1139 1139 1202> 891 201<990 1117 990 1150>
LayerCount: 2
Fore
SplineSet
446 694 m 1
 446 270 l 2
 446 145 452 113 477 88 c 0
 506 61 527 57 631 57 c 0
 654 55 662 49 662 29 c 2
 662 14 l 2
 662 -6 654 -10 625 -10 c 0
 607 -10 605 -10 494 -4 c 0
 445 -2 401 0 362 0 c 0
 333 0 156 -6 129 -8 c 0
 102 -10 84 -10 68 -10 c 0
 48 -10 41 -4 41 14 c 2
 41 29 l 2
 41 56 41 55 119 57 c 0
 185 57 224 71 244 102 c 0
 258 127 262 161 262 270 c 2
 262 1139 l 2
 262 1266 256 1298 231 1323 c 0
 202 1350 183 1354 66 1356 c 0
 43 1356 35 1362 35 1382 c 2
 35 1397 l 2
 35 1415 43 1421 61 1421 c 2
 152 1419 l 1
 211 1417 l 1
 328 1413 l 2
 369 1411 398 1411 414 1411 c 0
 430 1411 473 1413 530 1417 c 0
 573 1419 612 1421 649 1421 c 0
 788 1421 895 1387 977 1315 c 0
 1049 1252 1092 1161 1092 1073 c 0
 1092 907 979 790 768 735 c 1
 819 712 862 666 934 555 c 2
 1149 223 l 2
 1231 98 1272 69 1374 61 c 0
 1419 57 1421 58 1421 35 c 2
 1421 10 l 2
 1421 -4 1411 -10 1395 -10 c 0
 1391 -10 1389 -10 1313 -4 c 0
 1280 -2 1251 0 1239 0 c 0
 1221 0 1206 -2 1188 -4 c 0
 1161 -8 1140 -10 1130 -10 c 0
 1075 -10 1011 70 866 330 c 0
 686 645 635 698 510 698 c 0
 496 698 495 698 446 694 c 1
446 1239 m 2
 446 772 l 1
 475 768 500 766 537 766 c 0
 758 766 891 877 891 1061 c 0
 891 1239 770 1356 588 1356 c 0
 535 1356 487 1345 467 1331 c 0
 449 1317 446 1309 446 1239 c 2
EndSplineSet
EndChar

StartChar: S
Encoding: 83 83 19
Width: 980
GlyphClass: 2
Flags: HW
HStem: -41 80<392 506 392 555> 1370 80<478 554>
VStem: 70 70 86 168<1078 1114> 705 190<257 377> 735 88
LayerCount: 2
Fore
SplineSet
811 1364 m 2xd8
 823 1155 l 1
 823 1139 l 2
 823 1121 819 1116 801 1116 c 2
 780 1114 l 1
 774 1114 l 2
 747 1112 747 1112 735 1186 c 0
 719 1292 615 1370 494 1370 c 0
 355 1370 254 1274 254 1141 c 0xd4
 254 1016 314 952 547 825 c 0
 817 680 895 580 895 379 c 0
 895 135 695 -41 416 -41 c 0
 328 -41 180 -13 123 16 c 0
 103 26 96 43 90 109 c 2
 74 248 l 2
 72 268 70 283 70 283 c 2
 70 293 76 299 90 299 c 2
 113 301 l 1
 117 301 l 2
 127 303 131 296 139 276 c 0xe8
 168 194 180 172 217 133 c 0
 270 74 352 39 432 39 c 0
 579 39 705 162 705 307 c 0
 705 446 641 518 401 655 c 0
 145 800 86 875 86 1051 c 0
 86 1178 135 1284 221 1350 c 0
 305 1413 420 1450 537 1450 c 0
 609 1450 721 1430 782 1407 c 0
 805 1399 809 1393 811 1364 c 2xd8
EndSplineSet
EndChar

StartChar: T
Encoding: 84 84 20
Width: 1396
GlyphClass: 2
Flags: HMW
HStem: -10 68<1009 1016 949 1027> 1343 80<344 395 395 618 811 1028 1028 1055 811 811>
VStem: 68 88 623 184<272 1223> 1219 88
LayerCount: 2
Fore
SplineSet
1055 1343 m 2
 811 1343 l 1
 809 1314 807 1274 807 1223 c 2
 807 272 l 2
 807 143 813 111 838 88 c 0
 869 59 883 57 1016 57 c 0
 1039 55 1044 49 1044 29 c 2
 1044 14 l 2
 1044 -4 1039 -10 1016 -10 c 0
 1002 -10 977 -10 948 -8 c 0
 909 -6 746 0 717 0 c 0
 688 0 669 0 479 -8 c 2
 410 -10 l 2
 385 -10 379 -4 379 14 c 2
 379 29 l 2
 379 49 387 57 410 55 c 0
 527 53 571 63 598 94 c 0
 618 119 623 155 623 272 c 2
 623 1223 l 2
 623 1268 620 1306 618 1343 c 1
 395 1343 l 2
 293 1343 264 1335 225 1300 c 0
 194 1271 179 1243 156 1169 c 0
 138 1106 133 1098 113 1098 c 0
 84 1098 68 1106 68 1124 c 0
 68 1130 70 1149 72 1165 c 0
 80 1233 84 1270 94 1473 c 0
 94 1506 100 1511 123 1511 c 0
 152 1511 152 1511 164 1491 c 0
 207 1432 226 1423 326 1423 c 2
 1028 1423 l 2
 1169 1423 1217 1439 1270 1505 c 0
 1284 1523 1291 1528 1307 1528 c 0
 1334 1528 1348 1519 1348 1505 c 0
 1348 1497 1345 1484 1341 1470 c 0
 1321 1370 1311 1293 1307 1223 c 0
 1299 1117 1298 1116 1282 1116 c 0
 1268 1116 1235 1124 1227 1130 c 0
 1223 1136 1223 1137 1219 1184 c 0
 1213 1331 1198 1343 1055 1343 c 2
EndSplineSet
EndChar

StartChar: U
Encoding: 85 85 21
Width: 1662
GlyphClass: 2
Flags: HMW
HStem: -41 117<757 942 757 1027> 1354 68<71 80 70 135>
VStem: 270 184<509 604 604 1139> 1315 100<621 1130 1130 1163>
LayerCount: 2
Fore
SplineSet
455 1139 m 2
 455 604 l 2
 455 414 457 390 475 322 c 0
 518 160 651 76 862 76 c 0
 1022 76 1157 133 1229 231 c 0
 1290 317 1315 431 1315 621 c 2
 1315 1130 l 2
 1315 1294 1313 1306 1284 1329 c 0
 1264 1347 1229 1354 1155 1356 c 0
 1135 1356 1128 1362 1128 1380 c 2
 1128 1397 l 2
 1128 1415 1135 1421 1149 1421 c 2
 1190 1419 l 1
 1370 1411 l 1
 1608 1421 l 2
 1622 1421 1628 1415 1628 1401 c 2
 1628 1376 l 2
 1628 1358 1624 1356 1587 1356 c 0
 1425 1354 1411 1337 1415 1163 c 2
 1415 528 l 2
 1415 157 1215 -41 840 -41 c 0
 643 -41 481 12 385 106 c 0
 303 186 270 287 270 453 c 2
 270 1139 l 2
 270 1264 265 1298 240 1323 c 0
 211 1350 188 1354 82 1354 c 0
 59 1354 51 1362 51 1382 c 2
 51 1397 l 2
 51 1415 60 1421 80 1421 c 2
 139 1419 l 2
 168 1417 332 1411 367 1411 c 0
 398 1411 551 1417 586 1419 c 2
 653 1421 l 2
 673 1421 680 1415 680 1397 c 2
 680 1382 l 2
 680 1353 680 1354 600 1354 c 0
 532 1354 493 1340 473 1309 c 0
 459 1286 455 1243 455 1139 c 2
EndSplineSet
EndChar

StartChar: V
Encoding: 86 86 22
Width: 1472
GlyphClass: 2
Flags: HMW
HStem: -41 43G<750 767> 1352 70<51 51 999 999>
LayerCount: 2
Fore
SplineSet
717 12 m 2
 231 1219 l 2
 190 1332 170 1346 51 1352 c 0
 35 1354 31 1358 31 1374 c 2
 31 1399 l 2
 31 1415 35 1421 51 1421 c 0
 57 1421 74 1421 90 1419 c 0
 113 1417 293 1411 328 1411 c 0
 369 1411 519 1417 539 1419 c 0
 551 1421 563 1421 567 1421 c 0
 581 1421 586 1417 586 1401 c 2
 586 1380 l 2
 586 1357 586 1358 545 1356 c 0
 459 1352 420 1336 420 1305 c 0
 420 1291 420 1290 463 1153 c 0
 494 1057 494 1057 631 723 c 0
 649 674 668 629 686 584 c 0
 704 537 697 559 715 512 c 0
 770 369 805 295 813 297 c 0
 817 297 824 309 834 342 c 2
 1104 1079 l 2
 1159 1229 1167 1251 1167 1286 c 0
 1167 1333 1144 1344 999 1352 c 0
 981 1354 977 1358 977 1376 c 2
 979 1399 l 2
 979 1417 981 1421 997 1421 c 0
 1005 1421 1020 1421 1034 1419 c 0
 1073 1415 1169 1411 1212 1411 c 0
 1255 1411 1347 1415 1386 1419 c 0
 1400 1421 1415 1421 1423 1421 c 0
 1439 1421 1444 1417 1444 1399 c 2
 1444 1376 l 2
 1444 1356 1442 1354 1401 1354 c 0
 1327 1350 1311 1340 1282 1268 c 2
 1243 1171 l 1
 1223 1122 l 2
 1198 1067 1175 1013 1155 958 c 2
 797 8 l 2
 779 -37 776 -41 758 -41 c 0
 742 -41 737 -35 717 12 c 2
EndSplineSet
EndChar

StartChar: W
Encoding: 87 87 23
Width: 2000
GlyphClass: 2
Flags: HMW
HStem: -39 43G<711 780 711 711 1274 1350 1274 1274> 1354 68<1169 1175>
LayerCount: 2
Fore
SplineSet
805 223 m 1
 989 645 l 1
 750 1202 l 2
 701 1323 676 1348 606 1354 c 0
 569 1358 567 1358 567 1376 c 2
 567 1399 l 2
 567 1415 574 1421 590 1421 c 2
 625 1419 l 2
 656 1415 739 1411 786 1411 c 0
 833 1411 944 1415 993 1419 c 0
 1001 1421 1010 1421 1014 1421 c 0
 1028 1421 1034 1415 1034 1399 c 2
 1034 1378 l 2
 1034 1360 1032 1358 999 1356 c 0
 944 1354 913 1338 913 1311 c 0
 913 1266 1027 975 1090 852 c 1
 1206 1122 l 2
 1247 1214 1264 1265 1264 1298 c 0
 1264 1331 1237 1350 1186 1354 c 0
 1153 1354 1151 1356 1151 1376 c 2
 1151 1399 l 2
 1151 1415 1155 1421 1171 1421 c 0
 1177 1421 1192 1421 1204 1419 c 0
 1237 1415 1311 1411 1331 1411 c 0
 1347 1411 1407 1415 1456 1419 c 0
 1466 1421 1479 1421 1485 1421 c 0
 1501 1421 1505 1415 1505 1397 c 2
 1505 1382 l 2
 1505 1359 1503 1358 1464 1358 c 0
 1403 1352 1378 1326 1333 1217 c 2
 1128 750 l 1
 1352 248 l 1
 1698 1180 l 2
 1729 1262 1733 1273 1733 1296 c 0
 1733 1327 1708 1346 1657 1352 c 0
 1622 1356 1620 1357 1620 1380 c 2
 1620 1399 l 2
 1620 1413 1626 1419 1640 1419 c 0
 1646 1419 1657 1419 1669 1417 c 0
 1696 1415 1761 1411 1794 1411 c 0
 1825 1411 1923 1417 1948 1419 c 0
 1954 1421 1960 1421 1964 1421 c 0
 1976 1421 1982 1413 1982 1397 c 2
 1982 1376 l 2
 1982 1358 1975 1352 1948 1348 c 0
 1858 1323 1843 1301 1769 1106 c 2
 1430 223 l 2
 1397 137 1397 137 1350 -39 c 1
 1274 -39 l 1
 1249 29 l 2
 1237 60 1224 92 1214 123 c 0
 1196 168 1177 213 1157 256 c 2
 1028 547 l 1
 883 205 l 1
 836 98 l 2
 822 63 809 31 797 -2 c 2
 780 -39 l 1
 711 -39 l 1
 613 244 508 502 375 799 c 2
 184 1219 l 2
 139 1321 123 1338 35 1352 c 0
 21 1354 18 1360 18 1378 c 2
 18 1399 l 2
 18 1415 25 1421 39 1421 c 0
 49 1421 66 1421 84 1419 c 0
 123 1415 232 1411 244 1411 c 0
 346 1415 346 1415 395 1419 c 2
 430 1419 l 1
 453 1421 l 2
 465 1421 471 1415 471 1399 c 2
 471 1378 l 2
 471 1362 467 1358 453 1358 c 0
 390 1356 365 1344 365 1313 c 0
 365 1297 365 1296 418 1165 c 2
 805 223 l 1
EndSplineSet
EndChar

StartChar: X
Encoding: 88 88 24
Width: 1548
GlyphClass: 2
Flags: HMW
HStem: -10 74<506 546 913 919> 1350 72<51 61>
LayerCount: 2
Fore
SplineSet
795 829 m 1
 961 1049 l 2
 1057 1176 1112 1267 1112 1300 c 0
 1112 1320 1098 1338 1071 1346 c 0
 1053 1352 1046 1352 983 1356 c 0
 971 1356 965 1360 965 1372 c 2
 965 1395 l 2
 965 1415 971 1421 991 1421 c 0
 1011 1421 1016 1421 1116 1415 c 0
 1161 1413 1198 1411 1221 1411 c 0
 1252 1411 1405 1417 1423 1419 c 0
 1437 1421 1450 1421 1454 1421 c 0
 1470 1421 1477 1415 1477 1401 c 2
 1477 1382 l 2
 1477 1355 1476 1356 1423 1352 c 0
 1310 1348 1259 1313 1157 1176 c 2
 842 760 l 1
 1124 360 l 2
 1333 67 1337 65 1466 61 c 0
 1507 61 1513 59 1513 39 c 2
 1513 12 l 2
 1513 -4 1507 -10 1491 -10 c 0
 1485 -10 1468 -10 1452 -8 c 0
 1429 -6 1245 0 1212 0 c 2
 958 -8 l 2
 940 -10 923 -10 913 -10 c 0
 893 -10 885 -2 885 18 c 2
 885 41 l 2
 885 61 889 63 938 63 c 0
 1020 61 1055 71 1055 98 c 0
 1055 118 1018 180 930 307 c 2
 725 602 l 1
 592 428 l 2
 475 272 395 146 395 113 c 0
 395 78 426 65 506 63 c 0
 557 63 559 61 559 43 c 2
 559 18 l 2
 559 -5 555 -10 537 -10 c 0
 527 -10 512 -10 494 -8 c 0
 484 -6 301 0 287 0 c 0
 250 0 114 -6 94 -8 c 0
 80 -10 67 -10 61 -10 c 0
 45 -10 39 -5 39 18 c 2
 39 39 l 2
 39 55 43 57 63 59 c 0
 196 69 229 86 303 188 c 2
 674 670 l 1
 469 958 l 2
 436 1005 402 1053 367 1102 c 0
 332 1147 301 1190 268 1233 c 0
 200 1333 188 1340 61 1350 c 0
 38 1350 35 1356 35 1374 c 2
 35 1399 l 2
 35 1415 41 1421 61 1421 c 0
 73 1421 100 1421 127 1419 c 0
 176 1417 344 1411 377 1411 c 0
 420 1411 565 1417 588 1419 c 0
 602 1421 617 1421 623 1421 c 0
 641 1421 647 1415 647 1395 c 2
 647 1376 l 2
 647 1349 647 1350 584 1350 c 0
 496 1348 461 1338 461 1315 c 0
 461 1301 469 1288 514 1229 c 2
 795 829 l 1
EndSplineSet
EndChar

StartChar: Y
Encoding: 89 89 25
Width: 1472
GlyphClass: 2
Flags: HMW
HStem: -10 68<461 552 1034 1040> 1356 66<34 50 34 95>
VStem: 664 184<270 592 592 630>
LayerCount: 2
Fore
SplineSet
848 698 m 1
 848 270 l 2
 848 145 854 113 879 88 c 0
 908 61 927 57 1040 57 c 0
 1063 55 1071 49 1071 29 c 2
 1071 14 l 2
 1071 -4 1062 -10 1042 -10 c 0
 1026 -10 1006 -10 979 -8 c 0
 936 -4 795 0 756 0 c 0
 717 0 573 -4 532 -8 c 0
 505 -10 487 -10 471 -10 c 0
 451 -10 442 -4 442 14 c 2
 442 29 l 2
 442 56 442 55 518 57 c 0
 586 57 625 71 645 102 c 0
 659 127 664 166 664 270 c 2
 664 592 l 2
 664 668 659 680 618 737 c 2
 240 1255 l 2
 174 1343 152 1356 39 1356 c 0
 23 1356 18 1360 18 1378 c 2
 18 1399 l 2
 18 1415 25 1421 43 1421 c 0
 57 1421 74 1421 92 1419 c 0
 160 1415 275 1411 322 1411 c 0
 383 1411 389 1411 539 1419 c 0
 555 1421 574 1421 586 1421 c 0
 604 1421 610 1415 610 1397 c 2
 610 1378 l 2
 610 1353 606 1352 563 1352 c 0
 477 1354 432 1342 432 1317 c 0
 432 1307 436 1299 459 1268 c 2
 479 1239 l 1
 727 893 l 2
 756 854 784 820 809 793 c 1
 846 832 872 869 948 971 c 2
 1055 1118 l 2
 1135 1227 1165 1282 1165 1313 c 0
 1165 1344 1133 1356 1051 1356 c 0
 988 1356 987 1355 987 1378 c 2
 987 1395 l 2
 987 1415 994 1421 1012 1421 c 2
 1063 1419 l 2
 1100 1415 1202 1411 1231 1411 c 0
 1260 1411 1345 1415 1382 1419 c 2
 1432 1421 l 2
 1446 1421 1452 1415 1452 1401 c 2
 1452 1376 l 2
 1452 1356 1450 1354 1405 1354 c 0
 1331 1354 1306 1333 1214 1206 c 2
 848 698 l 1
EndSplineSet
EndChar

StartChar: Z
Encoding: 90 90 26
Width: 1359
GlyphClass: 2
Flags: HMW
HStem: 0 68<658 720> 1348 68<420 701 542 701 542 874>
LayerCount: 2
Fore
SplineSet
88 39 m 1
 594 760 l 2
 975 1307 975 1307 975 1325 c 0
 975 1343 958 1348 874 1348 c 2
 512 1348 l 2
 328 1348 301 1331 207 1155 c 0
 184 1112 180 1108 170 1108 c 0
 147 1108 121 1125 121 1137 c 0
 121 1145 121 1145 141 1241 c 2
 197 1475 l 2
 205 1512 207 1513 227 1513 c 2
 248 1513 l 2
 264 1513 266 1513 272 1497 c 0
 297 1438 406 1415 678 1415 c 0
 725 1415 737 1415 1044 1423 c 0
 1097 1425 1137 1425 1157 1425 c 0
 1257 1425 1278 1421 1278 1407 c 0
 1278 1401 1278 1401 1251 1362 c 2
 752 653 l 2
 516 317 494 285 422 176 c 2
 397 137 l 2
 370 98 367 92 367 84 c 0
 367 72 379 68 420 68 c 2
 778 68 l 2
 983 68 1036 88 1116 205 c 2
 1190 307 l 2
 1200 323 1206 330 1210 330 c 0
 1212 330 1215 330 1225 326 c 2
 1245 317 l 2
 1261 311 1266 307 1266 299 c 0
 1266 293 1266 293 1262 281 c 2
 1257 266 l 1
 1196 39 l 2
 1184 -6 1180 -10 1157 -10 c 2
 1083 -8 l 2
 1013 -6 754 0 686 0 c 0
 631 0 569 0 481 -2 c 2
 258 -6 l 1
 133 -8 l 2
 117 -10 102 -10 96 -10 c 0
 76 -10 68 -6 68 6 c 0
 68 14 72 23 80 31 c 2
 88 39 l 1
EndSplineSet
EndChar

StartChar: AE
Encoding: 198 198 27
Width: 2189
GlyphClass: 2
Flags: HMW
HStem: -10 68<985 1078> 729 70<834 1184 834 1184 782 1184> 1356 59<1579 1725>
VStem: 1184 184<270 276 276 721 799 1137> 1812 55 1958 68
LayerCount: 2
Fore
SplineSet
1184 729 m 1
 782 729 l 1
 479 303 l 2
 416 215 377 144 377 115 c 0
 377 76 408 63 512 57 c 0
 549 53 551 53 551 35 c 2
 551 8 l 2
 551 -6 549 -10 537 -10 c 0
 527 -10 505 -10 485 -8 c 0
 438 -4 322 0 289 0 c 0
 266 0 108 -6 92 -8 c 0
 76 -10 61 -10 53 -10 c 0
 41 -10 37 -6 37 8 c 2
 37 35 l 2
 37 55 36 55 102 61 c 0
 170 67 194 80 233 125 c 0
 249 143 267 161 281 184 c 0
 304 215 325 243 350 274 c 2
 989 1157 l 2
 1016 1194 1042 1259 1042 1290 c 0
 1042 1331 1022 1342 911 1348 c 0
 860 1350 860 1349 860 1374 c 2
 860 1397 l 2
 860 1420 866 1423 895 1423 c 2
 961 1421 l 2
 1016 1417 1276 1411 1352 1411 c 0
 1409 1411 1483 1413 1579 1415 c 2
 1702 1419 l 1
 1968 1421 l 2
 2025 1423 2025 1423 2025 1366 c 2
 2025 1159 l 2
 2023 1116 2023 1116 2005 1116 c 2
 1985 1116 l 2
 1962 1116 1962 1117 1958 1178 c 0
 1952 1264 1923 1312 1868 1335 c 0
 1833 1351 1784 1356 1667 1356 c 0
 1526 1356 1452 1349 1421 1337 c 0
 1374 1317 1368 1293 1368 1137 c 2
 1368 795 l 1
 1456 793 l 2
 1661 793 1724 805 1765 848 c 0
 1781 868 1800 905 1812 950 c 0
 1816 962 1821 967 1835 967 c 2
 1847 967 l 2
 1861 965 1868 960 1868 946 c 2
 1866 903 l 2
 1860 850 1855 795 1855 748 c 0
 1855 693 1860 610 1864 590 c 0
 1868 570 1870 551 1870 543 c 0
 1870 533 1863 526 1851 524 c 2
 1827 522 l 1
 1825 522 l 2
 1807 522 1802 531 1790 621 c 0
 1776 723 1774 723 1475 723 c 0
 1446 723 1446 723 1395 721 c 2
 1368 721 l 1
 1368 276 l 2
 1368 157 1372 137 1409 106 c 0
 1446 75 1495 66 1622 66 c 2
 1718 66 l 2
 1960 66 1975 73 2077 270 c 0
 2089 295 2095 301 2103 301 c 0
 2130 301 2150 293 2150 281 c 0
 2150 275 2146 258 2142 238 c 2
 2091 66 l 2
 2079 21 2068 -2 2060 -6 c 0
 2050 -10 2044 -10 1987 -10 c 2
 1507 -4 l 2
 1431 -2 1431 -2 1382 -2 c 2
 1325 -2 l 2
 1286 0 1260 0 1260 0 c 2
 1237 0 1092 -6 1059 -8 c 0
 1032 -10 1013 -10 995 -10 c 0
 975 -10 969 -4 969 16 c 2
 969 29 l 2
 969 56 970 57 1038 57 c 0
 1118 57 1158 78 1174 121 c 0
 1180 139 1184 196 1184 270 c 2
 1184 729 l 1
1184 799 m 1
 1184 1174 l 2
 1184 1274 1180 1294 1157 1317 c 1
 1116 1217 1069 1124 1024 1061 c 2
 834 799 l 1
 1184 799 l 1
EndSplineSet
EndChar

StartChar: OE
Encoding: 338 338 28
Width: 2115
GlyphClass: 2
Flags: HW
HStem: -41 78<777 815> -2 68 725 70<1446 1523 1364 1573> 1356 68<1554 1734> 1382 68<728 857 728 931>
VStem: 96 227<692 801> 1112 184<358 723 797 1006 1006 1139> 1731 63 1898 68
LayerCount: 2
Fore
SplineSet
1296 723 m 1x3780
 1296 279 l 2
 1296 158 1300 137 1337 106 c 0
 1374 75 1423 66 1550 66 c 2
 1632 66 l 2
 1872 66 1893 75 1991 270 c 0
 2003 295 2009 301 2017 301 c 0
 2046 301 2064 293 2064 279 c 0
 2064 275 2060 260 2054 240 c 2
 2005 66 l 2
 1993 21 1982 -2 1974 -6 c 0
 1964 -10 1957 -10 1898 -10 c 2
 1436 -4 l 1
 1360 -2 l 2x7780
 1327 0 1300 0 1288 0 c 0
 1169 0 1121 -4 1004 -20 c 0
 912 -34 845 -41 784 -41 c 0
 583 -41 411 47 272 223 c 0
 155 370 96 532 96 698 c 0
 96 903 188 1112 338 1257 c 0
 471 1382 637 1450 819 1450 c 0xaf80
 895 1450 972 1443 1087 1427 c 0
 1177 1413 1204 1411 1255 1411 c 0
 1275 1411 1288 1411 1468 1419 c 0
 1511 1421 1542 1423 1554 1423 c 2
 1903 1423 l 2
 1966 1423 1966 1423 1966 1366 c 2
 1966 1161 l 2
 1966 1120 1964 1116 1946 1116 c 2
 1925 1116 l 2
 1902 1116 1902 1117 1898 1178 c 0
 1888 1319 1833 1356 1634 1356 c 0
 1450 1356 1385 1351 1350 1337 c 0
 1303 1317 1296 1293 1296 1139 c 2
 1296 797 l 1
 1343 795 1343 795 1384 795 c 0
 1660 795 1690 807 1737 950 c 0
 1741 964 1745 967 1759 967 c 2
 1772 967 l 2
 1786 967 1792 960 1792 946 c 0
 1792 936 1790 921 1788 903 c 0
 1784 858 1780 797 1780 750 c 0
 1780 693 1784 610 1788 592 c 0
 1792 569 1794 553 1794 545 c 0
 1794 535 1786 526 1776 526 c 2
 1751 524 l 2
 1737 526 1737 526 1731 532 c 0
 1727 540 1724 557 1714 623 c 0
 1700 721 1692 725 1454 725 c 0
 1438 725 1402 725 1296 723 c 1x3780
1112 358 m 2
 1112 1006 l 2
 1112 1276 1032 1382 829 1382 c 0
 542 1382 324 1118 324 772 c 0
 324 612 377 428 463 281 c 0
 559 119 692 37 862 37 c 0xaf80
 942 37 1010 59 1047 96 c 0
 1096 145 1112 215 1112 358 c 2
EndSplineSet
EndChar

StartChar: Oslash
Encoding: 216 216 29
Width: 1736
GlyphClass: 2
Flags: HMW
HStem: -41 70<787 1041 787 1055> 1382 68<668 922>
VStem: 68 217<673 885> 1438 217<521 754>
LayerCount: 2
Fore
SplineSet
92 45 m 2
 250 193 l 1
 129 324 68 484 68 670 c 0
 68 1100 424 1450 860 1450 c 0
 1053 1450 1243 1385 1393 1264 c 1
 1559 1421 l 2
 1582 1441 1592 1448 1602 1448 c 0
 1618 1448 1649 1415 1649 1399 c 0
 1649 1393 1644 1388 1624 1368 c 2
 1454 1208 l 1
 1587 1073 1655 911 1655 733 c 0
 1655 309 1282 -41 827 -41 c 0
 632 -41 452 20 313 135 c 1
 158 -12 l 2
 131 -37 118 -45 106 -45 c 0
 90 -45 59 -16 59 0 c 0
 59 10 67 22 92 45 c 2
389 324 m 1
 1280 1157 l 1
 1157 1311 1011 1382 831 1382 c 0
 503 1382 285 1127 285 748 c 0
 285 598 321 445 389 324 c 1
1327 1087 m 1
 436 250 l 1
 555 100 697 29 879 29 c 0
 1205 29 1438 299 1438 678 c 0
 1438 830 1401 964 1327 1087 c 1
EndSplineSet
EndChar

StartChar: Adieresis
Encoding: 196 196 30
Width: 1548
GlyphClass: 2
Flags: HMW
HStem: -10 68<1456 1495 1456 1495> 559 80<502 926 502 956 477 926> 1620 225<559 620 997 1058>
VStem: 477 225<1703 1763 1701 1764> 915 225<1703 1763 1701 1764>
LayerCount: 2
Fore
SplineSet
956 559 m 1
 477 559 l 1
 401 324 l 2
 376 244 362 180 362 143 c 0
 362 84 411 57 522 53 c 0
 532 53 535 49 535 33 c 2
 535 10 l 2
 535 -6 530 -10 512 -10 c 2
 248 0 l 2
 221 0 197 -2 168 -4 c 0
 113 -8 73 -10 55 -10 c 0
 41 -10 37 -4 37 14 c 2
 37 37 l 2
 37 53 41 53 82 57 c 0
 205 69 211 75 274 268 c 2
 651 1366 l 1
 684 1405 745 1457 786 1477 c 1
 1272 252 l 2
 1333 88 1364 61 1489 57 c 0
 1501 57 1503 51 1503 37 c 2
 1503 10 l 2
 1503 -6 1499 -10 1485 -10 c 2
 1456 -10 l 2
 1399 -6 1235 0 1221 0 c 0
 1190 0 1038 -6 1001 -8 c 0
 991 -10 981 -10 977 -10 c 0
 963 -10 958 -4 958 14 c 2
 958 35 l 2
 958 55 959 55 1012 57 c 0
 1090 61 1124 78 1124 113 c 0
 1124 127 1120 141 1108 172 c 0
 1100 190 1093 209 1085 225 c 2
 956 559 l 1
926 639 m 1
 698 1223 l 1
 502 639 l 1
 926 639 l 1
590 1845 m 0
 651 1845 702 1794 702 1733 c 0
 702 1670 651 1620 588 1620 c 0
 527 1620 477 1672 477 1735 c 0
 477 1794 529 1845 590 1845 c 0
1028 1845 m 0
 1089 1845 1141 1794 1141 1733 c 0
 1141 1670 1089 1620 1026 1620 c 0
 965 1620 915 1672 915 1735 c 0
 915 1794 967 1845 1028 1845 c 0
EndSplineSet
EndChar

StartChar: Aacute
Encoding: 193 193 31
Width: 1548
GlyphClass: 2
Flags: HMW
HStem: -10 68<1456 1495 1456 1495> 559 80<502 926 502 956 477 926>
LayerCount: 2
Fore
SplineSet
956 559 m 1
 477 559 l 1
 401 324 l 2
 376 244 362 180 362 143 c 0
 362 84 411 57 522 53 c 0
 532 53 535 49 535 33 c 2
 535 10 l 2
 535 -6 530 -10 512 -10 c 2
 248 0 l 2
 221 0 197 -2 168 -4 c 0
 113 -8 73 -10 55 -10 c 0
 41 -10 37 -4 37 14 c 2
 37 37 l 2
 37 53 41 53 82 57 c 0
 205 69 211 75 274 268 c 2
 651 1366 l 1
 684 1405 745 1457 786 1477 c 1
 1272 252 l 2
 1333 88 1364 61 1489 57 c 0
 1501 57 1503 51 1503 37 c 2
 1503 10 l 2
 1503 -6 1499 -10 1485 -10 c 2
 1456 -10 l 2
 1399 -6 1235 0 1221 0 c 0
 1190 0 1038 -6 1001 -8 c 0
 991 -10 981 -10 977 -10 c 0
 963 -10 958 -4 958 14 c 2
 958 35 l 2
 958 55 959 55 1012 57 c 0
 1090 61 1124 78 1124 113 c 0
 1124 127 1120 141 1108 172 c 0
 1100 190 1093 209 1085 225 c 2
 956 559 l 1
926 639 m 1
 698 1223 l 1
 502 639 l 1
 926 639 l 1
612 1618 m 2
 874 1853 l 2
 950 1923 964 1931 997 1931 c 0
 1042 1931 1081 1886 1081 1835 c 0
 1081 1784 1051 1751 969 1710 c 2
 657 1559 l 2
 651 1555 643 1552 637 1552 c 0
 631 1552 622 1557 618 1563 c 2
 608 1583 l 2
 604 1589 602 1595 602 1599 c 0
 602 1605 606 1612 612 1618 c 2
EndSplineSet
EndChar

StartChar: Agrave
Encoding: 192 192 32
Width: 1548
GlyphClass: 2
Flags: HMW
HStem: -10 68<1456 1495 1456 1495> 559 80<502 926 502 956 477 926>
LayerCount: 2
Fore
SplineSet
956 559 m 1
 477 559 l 1
 401 324 l 2
 376 244 362 180 362 143 c 0
 362 84 411 57 522 53 c 0
 532 53 535 49 535 33 c 2
 535 10 l 2
 535 -6 530 -10 512 -10 c 2
 248 0 l 2
 221 0 197 -2 168 -4 c 0
 113 -8 73 -10 55 -10 c 0
 41 -10 37 -4 37 14 c 2
 37 37 l 2
 37 53 41 53 82 57 c 0
 205 69 211 75 274 268 c 2
 651 1366 l 1
 684 1405 745 1457 786 1477 c 1
 1272 252 l 2
 1333 88 1364 61 1489 57 c 0
 1501 57 1503 51 1503 37 c 2
 1503 10 l 2
 1503 -6 1499 -10 1485 -10 c 2
 1456 -10 l 2
 1399 -6 1235 0 1221 0 c 0
 1190 0 1038 -6 1001 -8 c 0
 991 -10 981 -10 977 -10 c 0
 963 -10 958 -4 958 14 c 2
 958 35 l 2
 958 55 959 55 1012 57 c 0
 1090 61 1124 78 1124 113 c 0
 1124 127 1120 141 1108 172 c 0
 1100 190 1093 209 1085 225 c 2
 956 559 l 1
926 639 m 1
 698 1223 l 1
 502 639 l 1
 926 639 l 1
893 1559 m 2
 582 1710 l 2
 500 1751 469 1784 469 1835 c 0
 469 1886 508 1931 553 1931 c 0
 586 1931 600 1921 676 1853 c 2
 938 1618 l 2
 944 1612 948 1603 948 1599 c 0
 948 1595 946 1589 942 1583 c 2
 932 1563 l 2
 928 1557 919 1552 913 1552 c 0
 907 1552 899 1555 893 1559 c 2
EndSplineSet
EndChar

StartChar: Acircumflex
Encoding: 194 194 33
Width: 1548
GlyphClass: 2
Flags: HMW
HStem: -10 68<1456 1495 1456 1495> 559 80<502 926 502 956 477 926>
LayerCount: 2
Fore
SplineSet
956 559 m 1
 477 559 l 1
 401 324 l 2
 376 244 362 180 362 143 c 0
 362 84 411 57 522 53 c 0
 532 53 535 49 535 33 c 2
 535 10 l 2
 535 -6 530 -10 512 -10 c 2
 248 0 l 2
 221 0 197 -2 168 -4 c 0
 113 -8 73 -10 55 -10 c 0
 41 -10 37 -4 37 14 c 2
 37 37 l 2
 37 53 41 53 82 57 c 0
 205 69 211 75 274 268 c 2
 651 1366 l 1
 684 1405 745 1457 786 1477 c 1
 1272 252 l 2
 1333 88 1364 61 1489 57 c 0
 1501 57 1503 51 1503 37 c 2
 1503 10 l 2
 1503 -6 1499 -10 1485 -10 c 2
 1456 -10 l 2
 1399 -6 1235 0 1221 0 c 0
 1190 0 1038 -6 1001 -8 c 0
 991 -10 981 -10 977 -10 c 0
 963 -10 958 -4 958 14 c 2
 958 35 l 2
 958 55 959 55 1012 57 c 0
 1090 61 1124 78 1124 113 c 0
 1124 127 1120 141 1108 172 c 0
 1100 190 1093 209 1085 225 c 2
 956 559 l 1
926 639 m 1
 698 1223 l 1
 502 639 l 1
 926 639 l 1
756 1731 m 1
 492 1561 l 2
 484 1555 475 1552 471 1552 c 0
 467 1552 461 1557 457 1563 c 2
 434 1587 l 2
 430 1591 426 1600 426 1602 c 0
 426 1606 432 1614 440 1622 c 2
 641 1829 l 2
 721 1907 729 1913 762 1913 c 0
 795 1913 809 1903 879 1829 c 2
 1081 1622 l 2
 1087 1614 1094 1608 1094 1602 c 0
 1094 1600 1089 1593 1085 1587 c 2
 1061 1561 l 2
 1055 1557 1051 1552 1047 1552 c 0
 1045 1552 1036 1557 1026 1563 c 2
 756 1731 l 1
EndSplineSet
EndChar

StartChar: Atilde
Encoding: 195 195 34
Width: 1548
GlyphClass: 2
Flags: HW
HStem: -10 68<1456 1495 1456 1495> 559 80<502 926 502 956 477 926> 1552 176<461 629 944 954> 1729 176<596 629>
LayerCount: 2
Fore
SplineSet
956 559 m 1xc0
 477 559 l 1
 401 324 l 2
 376 244 362 180 362 143 c 0
 362 84 411 57 522 53 c 0
 532 53 535 49 535 33 c 2
 535 10 l 2
 535 -6 530 -10 512 -10 c 2
 248 0 l 2
 221 0 197 -2 168 -4 c 0
 113 -8 73 -10 55 -10 c 0
 41 -10 37 -4 37 14 c 2
 37 37 l 2
 37 53 41 53 82 57 c 0
 205 69 211 75 274 268 c 2
 651 1366 l 1
 684 1405 745 1457 786 1477 c 1
 1272 252 l 2
 1333 88 1364 61 1489 57 c 0
 1501 57 1503 51 1503 37 c 2
 1503 10 l 2
 1503 -6 1499 -10 1485 -10 c 2
 1456 -10 l 2
 1399 -6 1235 0 1221 0 c 0
 1190 0 1038 -6 1001 -8 c 0
 991 -10 981 -10 977 -10 c 0
 963 -10 958 -4 958 14 c 2
 958 35 l 2
 958 55 959 55 1012 57 c 0
 1090 61 1124 78 1124 113 c 0
 1124 127 1120 141 1108 172 c 0
 1100 190 1093 209 1085 225 c 2
 956 559 l 1xc0
926 639 m 1
 698 1223 l 1
 502 639 l 1
 926 639 l 1
1083 1886 m 2
 1102 1878 l 2
 1110 1874 1116 1863 1116 1855 c 0
 1116 1820 1078 1706 1049 1651 c 0
 1012 1583 975 1552 934 1552 c 0xe0
 881 1552 864 1563 739 1665 c 0
 688 1708 647 1729 610 1729 c 0xd0
 555 1729 512 1677 475 1571 c 0
 469 1557 467 1552 463 1552 c 0xe0
 459 1552 451 1552 449 1554 c 2
 424 1565 l 2
 418 1567 414 1575 414 1583 c 0
 416 1612 430 1681 440 1712 c 0
 485 1833 557 1905 635 1905 c 0xd0
 688 1905 688 1905 848 1788 c 0
 914 1739 931 1729 956 1729 c 0xe0
 989 1729 1008 1753 1051 1870 c 0
 1057 1884 1061 1890 1067 1890 c 0
 1073 1890 1077 1888 1083 1886 c 2
EndSplineSet
EndChar

StartChar: Aring
Encoding: 197 197 35
Width: 1548
GlyphClass: 2
Flags: HMW
HStem: -10 68<1456 1495 1456 1495> 559 80<502 926 502 956 477 926> 1505 102<734 813 734 837> 1849 102<738 814>
VStem: 537 102<1693 1761 1693 1792> 911 102<1694 1762>
LayerCount: 2
Fore
SplineSet
956 559 m 1
 477 559 l 1
 401 324 l 2
 376 244 362 180 362 143 c 0
 362 84 411 57 522 53 c 0
 532 53 535 49 535 33 c 2
 535 10 l 2
 535 -6 530 -10 512 -10 c 2
 248 0 l 2
 221 0 197 -2 168 -4 c 0
 113 -8 73 -10 55 -10 c 0
 41 -10 37 -4 37 14 c 2
 37 37 l 2
 37 53 41 53 82 57 c 0
 205 69 211 75 274 268 c 2
 651 1366 l 1
 684 1405 745 1457 786 1477 c 1
 1272 252 l 2
 1333 88 1364 61 1489 57 c 0
 1501 57 1503 51 1503 37 c 2
 1503 10 l 2
 1503 -6 1499 -10 1485 -10 c 2
 1456 -10 l 2
 1399 -6 1235 0 1221 0 c 0
 1190 0 1038 -6 1001 -8 c 0
 991 -10 981 -10 977 -10 c 0
 963 -10 958 -4 958 14 c 2
 958 35 l 2
 958 55 959 55 1012 57 c 0
 1090 61 1124 78 1124 113 c 0
 1124 127 1120 141 1108 172 c 0
 1100 190 1093 209 1085 225 c 2
 956 559 l 1
926 639 m 1
 698 1223 l 1
 502 639 l 1
 926 639 l 1
776 1952 m 0
 907 1952 1014 1854 1014 1733 c 0
 1014 1610 901 1505 772 1505 c 0
 643 1505 537 1608 537 1733 c 0
 537 1852 647 1952 776 1952 c 0
776 1849 m 0
 700 1849 639 1795 639 1729 c 0
 639 1657 694 1608 774 1608 c 0
 852 1608 911 1659 911 1729 c 0
 911 1797 852 1849 776 1849 c 0
EndSplineSet
EndChar

StartChar: Ccedilla
Encoding: 199 199 36
Width: 1511
GlyphClass: 2
Flags: HMW
HStem: -463 76<772 818 772 861> -41 80<942 942> 1370 80<737 984 678 1002>
VStem: 96 229<522 894 522 911> 891 164<-317 -279> 1368 74
LayerCount: 2
Fore
SplineSet
942 -41 m 1
 879 -113 l 1
 992 -131 1055 -186 1055 -260 c 0
 1055 -375 938 -463 784 -463 c 0
 671 -463 592 -432 592 -389 c 0
 592 -364 612 -344 635 -344 c 0
 647 -344 664 -348 680 -356 c 0
 743 -383 755 -387 788 -387 c 0
 847 -387 891 -348 891 -295 c 0
 891 -262 873 -235 842 -219 c 0
 824 -211 802 -209 745 -207 c 1
 723 -160 l 1
 864 -39 l 1
 426 -8 96 312 96 707 c 0
 96 1117 457 1450 899 1450 c 0
 1069 1450 1256 1403 1389 1329 c 1
 1419 1073 l 2
 1421 1063 1421 1055 1421 1053 c 0
 1421 1043 1417 1038 1403 1036 c 2
 1389 1034 l 2
 1383 1032 1380 1032 1376 1032 c 0
 1368 1032 1368 1032 1335 1114 c 0
 1267 1272 1104 1370 901 1370 c 0
 573 1370 326 1084 326 705 c 0
 326 340 588 39 907 39 c 0
 1081 39 1252 109 1313 205 c 0
 1336 242 1356 285 1368 332 c 0
 1378 363 1383 369 1395 367 c 2
 1407 365 l 1
 1421 362 l 2
 1435 362 1442 356 1442 346 c 0
 1442 340 1442 340 1436 311 c 2
 1393 68 l 1
 1268 2 1108 -37 942 -41 c 1
EndSplineSet
EndChar

StartChar: Eth
Encoding: 208 208 37
Width: 1624
GlyphClass: 2
Flags: HMW
HStem: -10 66<681 793> 715 80<43 246 43 246 430 915> 1384 66<616 786>
VStem: 246 184<283 354 354 715 795 1022 1022 1146> 1323 217<588 813>
LayerCount: 2
Fore
SplineSet
246 795 m 1
 246 1022 l 2
 246 1270 246 1278 219 1307 c 0
 203 1327 168 1337 125 1337 c 0
 107 1337 84 1335 55 1329 c 0
 49 1327 41 1327 39 1327 c 0
 25 1327 20 1337 20 1372 c 0
 20 1392 35 1397 125 1409 c 0
 289 1434 534 1450 698 1450 c 0
 907 1450 1057 1415 1194 1333 c 0
 1415 1204 1540 981 1540 715 c 0
 1540 461 1428 254 1223 125 c 0
 1067 29 912 -10 674 -10 c 0
 604 -10 604 -10 446 -4 c 0
 401 -2 365 0 338 0 c 0
 299 0 156 -4 115 -8 c 0
 88 -10 69 -10 53 -10 c 0
 33 -10 25 -4 25 16 c 2
 25 29 l 2
 25 56 31 57 82 57 c 0
 170 57 204 69 227 104 c 0
 241 124 246 168 246 272 c 2
 246 715 l 1
 43 715 l 1
 43 795 l 1
 246 795 l 1
430 795 m 1
 915 795 l 1
 915 715 l 1
 430 715 l 1
 430 354 l 2
 430 211 443 162 496 121 c 0
 545 80 633 55 729 55 c 0
 1071 55 1323 334 1323 715 c 0
 1323 912 1260 1085 1139 1212 c 0
 1024 1335 893 1384 680 1384 c 0
 553 1384 484 1368 453 1331 c 0
 435 1306 430 1282 430 1163 c 2
 430 795 l 1
EndSplineSet
EndChar

StartChar: Edieresis
Encoding: 203 203 38
Width: 1284
GlyphClass: 2
Flags: HW
HStem: -2 68 725 70<559 694 549 724> 1356 68<75 92 74 146 756 818> 1620 225<428 489 428 489 868 930>
VStem: 283 184<272 279 279 723 797 1139> 346 225<1703 1763 1701 1764> 786 225<1703 1763 1701 1764> 911 55 1044 68
LayerCount: 2
Fore
SplineSet
467 723 m 1xf980
 467 279 l 2
 467 158 471 137 508 106 c 0
 545 75 594 66 721 66 c 2
 791 66 l 2
 1031 66 1047 73 1149 270 c 0
 1161 295 1168 301 1176 301 c 0
 1203 301 1223 293 1223 281 c 0
 1223 277 1218 260 1212 240 c 2
 1163 66 l 2
 1149 21 1138 -2 1130 -6 c 0
 1122 -10 1114 -10 1057 -10 c 2
 606 -4 l 2
 530 -2 530 -2 481 -2 c 2
 420 -2 l 2
 371 0 348 0 348 0 c 2
 311 0 280 -2 231 -4 c 0
 157 -8 119 -10 88 -10 c 0
 55 -10 49 -7 49 16 c 2
 49 29 l 2
 49 58 49 57 137 57 c 0
 205 57 244 71 264 104 c 0
 278 127 283 168 283 272 c 2
 283 1141 l 2
 283 1266 277 1300 252 1325 c 0
 221 1352 207 1356 86 1356 c 0
 63 1356 55 1364 55 1384 c 2
 55 1397 l 2
 55 1415 64 1423 84 1423 c 0
 100 1423 123 1423 150 1421 c 2
 231 1417 l 1
 330 1415 l 2
 379 1413 414 1411 428 1411 c 0
 448 1411 486 1413 535 1415 c 0
 625 1419 715 1423 756 1423 c 2
 1055 1423 l 2
 1112 1423 1112 1423 1112 1368 c 2
 1112 1161 l 2
 1112 1120 1110 1116 1092 1116 c 2
 1071 1116 l 2
 1048 1116 1048 1117 1044 1178 c 0
 1038 1264 1009 1312 954 1337 c 0
 919 1351 875 1356 762 1356 c 0
 467 1356 467 1356 467 1139 c 2
 467 797 l 1
 485 795 543 795 555 795 c 0
 834 795 866 809 911 952 c 0
 915 964 920 967 934 967 c 2
 946 967 l 2
 960 967 967 960 967 948 c 2
 965 905 l 2
 959 856 954 790 954 745 c 0
 954 692 959 610 963 592 c 0
 967 569 969 553 969 545 c 0
 969 535 962 526 950 526 c 2
 926 524 l 2
 903 524 903 527 889 623 c 0
 875 725 874 725 573 725 c 0
 544 725 545 725 496 723 c 2
 467 723 l 1xf980
459 1845 m 0
 520 1845 571 1794 571 1733 c 0
 571 1670 520 1620 459 1620 c 0
 396 1620 346 1672 346 1735 c 0xf480
 346 1794 398 1845 459 1845 c 0
899 1845 m 0
 960 1845 1012 1794 1012 1733 c 0
 1012 1670 960 1620 899 1620 c 0
 836 1620 786 1672 786 1735 c 0xf280
 786 1794 838 1845 899 1845 c 0
EndSplineSet
EndChar

StartChar: Eacute
Encoding: 201 201 39
Width: 1284
GlyphClass: 2
Flags: HMW
HStem: -2 68 725 70<559 694 549 724> 1356 68<75 92 74 146 756 818>
VStem: 283 184<272 279 279 723 797 1139> 911 55 1044 68
LayerCount: 2
Fore
SplineSet
467 723 m 1
 467 279 l 2
 467 158 471 137 508 106 c 0
 545 75 594 66 721 66 c 2
 791 66 l 2
 1031 66 1047 73 1149 270 c 0
 1161 295 1168 301 1176 301 c 0
 1203 301 1223 293 1223 281 c 0
 1223 277 1218 260 1212 240 c 2
 1163 66 l 2
 1149 21 1138 -2 1130 -6 c 0
 1122 -10 1114 -10 1057 -10 c 2
 606 -4 l 2
 530 -2 530 -2 481 -2 c 2
 420 -2 l 2
 371 0 348 0 348 0 c 2
 311 0 280 -2 231 -4 c 0
 157 -8 119 -10 88 -10 c 0
 55 -10 49 -7 49 16 c 2
 49 29 l 2
 49 58 49 57 137 57 c 0
 205 57 244 71 264 104 c 0
 278 127 283 168 283 272 c 2
 283 1141 l 2
 283 1266 277 1300 252 1325 c 0
 221 1352 207 1356 86 1356 c 0
 63 1356 55 1364 55 1384 c 2
 55 1397 l 2
 55 1415 64 1423 84 1423 c 0
 100 1423 123 1423 150 1421 c 2
 231 1417 l 1
 330 1415 l 2
 379 1413 414 1411 428 1411 c 0
 448 1411 486 1413 535 1415 c 0
 625 1419 715 1423 756 1423 c 2
 1055 1423 l 2
 1112 1423 1112 1423 1112 1368 c 2
 1112 1161 l 2
 1112 1120 1110 1116 1092 1116 c 2
 1071 1116 l 2
 1048 1116 1048 1117 1044 1178 c 0
 1038 1264 1009 1312 954 1337 c 0
 919 1351 875 1356 762 1356 c 0
 467 1356 467 1356 467 1139 c 2
 467 797 l 1
 485 795 543 795 555 795 c 0
 834 795 866 809 911 952 c 0
 915 964 920 967 934 967 c 2
 946 967 l 2
 960 967 967 960 967 948 c 2
 965 905 l 2
 959 856 954 790 954 745 c 0
 954 692 959 610 963 592 c 0
 967 569 969 553 969 545 c 0
 969 535 962 526 950 526 c 2
 926 524 l 2
 903 524 903 527 889 623 c 0
 875 725 874 725 573 725 c 0
 544 725 545 725 496 723 c 2
 467 723 l 1
481 1618 m 2
 745 1853 l 2
 821 1923 833 1931 866 1931 c 0
 911 1931 950 1886 950 1835 c 0
 950 1784 920 1751 838 1710 c 2
 526 1559 l 2
 520 1555 512 1552 506 1552 c 0
 500 1552 491 1557 489 1563 c 2
 477 1583 l 2
 473 1589 471 1595 471 1599 c 0
 471 1603 475 1612 481 1618 c 2
EndSplineSet
EndChar

StartChar: Egrave
Encoding: 200 200 40
Width: 1284
GlyphClass: 2
Flags: HMW
HStem: -2 68 725 70<559 694 549 724> 1356 68<75 92 74 146 756 818>
VStem: 283 184<272 279 279 723 797 1139> 911 55 1044 68
LayerCount: 2
Fore
SplineSet
467 723 m 1
 467 279 l 2
 467 158 471 137 508 106 c 0
 545 75 594 66 721 66 c 2
 791 66 l 2
 1031 66 1047 73 1149 270 c 0
 1161 295 1168 301 1176 301 c 0
 1203 301 1223 293 1223 281 c 0
 1223 277 1218 260 1212 240 c 2
 1163 66 l 2
 1149 21 1138 -2 1130 -6 c 0
 1122 -10 1114 -10 1057 -10 c 2
 606 -4 l 2
 530 -2 530 -2 481 -2 c 2
 420 -2 l 2
 371 0 348 0 348 0 c 2
 311 0 280 -2 231 -4 c 0
 157 -8 119 -10 88 -10 c 0
 55 -10 49 -7 49 16 c 2
 49 29 l 2
 49 58 49 57 137 57 c 0
 205 57 244 71 264 104 c 0
 278 127 283 168 283 272 c 2
 283 1141 l 2
 283 1266 277 1300 252 1325 c 0
 221 1352 207 1356 86 1356 c 0
 63 1356 55 1364 55 1384 c 2
 55 1397 l 2
 55 1415 64 1423 84 1423 c 0
 100 1423 123 1423 150 1421 c 2
 231 1417 l 1
 330 1415 l 2
 379 1413 414 1411 428 1411 c 0
 448 1411 486 1413 535 1415 c 0
 625 1419 715 1423 756 1423 c 2
 1055 1423 l 2
 1112 1423 1112 1423 1112 1368 c 2
 1112 1161 l 2
 1112 1120 1110 1116 1092 1116 c 2
 1071 1116 l 2
 1048 1116 1048 1117 1044 1178 c 0
 1038 1264 1009 1312 954 1337 c 0
 919 1351 875 1356 762 1356 c 0
 467 1356 467 1356 467 1139 c 2
 467 797 l 1
 485 795 543 795 555 795 c 0
 834 795 866 809 911 952 c 0
 915 964 920 967 934 967 c 2
 946 967 l 2
 960 967 967 960 967 948 c 2
 965 905 l 2
 959 856 954 790 954 745 c 0
 954 692 959 610 963 592 c 0
 967 569 969 553 969 545 c 0
 969 535 962 526 950 526 c 2
 926 524 l 2
 903 524 903 527 889 623 c 0
 875 725 874 725 573 725 c 0
 544 725 545 725 496 723 c 2
 467 723 l 1
762 1559 m 2
 453 1710 l 2
 367 1751 338 1784 338 1835 c 0
 338 1886 377 1931 422 1931 c 0
 455 1931 469 1923 545 1853 c 2
 807 1618 l 2
 813 1612 817 1605 817 1599 c 0
 817 1595 815 1589 811 1583 c 2
 801 1563 l 2
 797 1557 790 1552 782 1552 c 0
 776 1552 770 1555 762 1559 c 2
EndSplineSet
EndChar

StartChar: Ecircumflex
Encoding: 202 202 41
Width: 1284
GlyphClass: 2
Flags: HMW
HStem: -2 68 725 70<559 694 549 724> 1356 68<75 92 74 146 756 818>
VStem: 283 184<272 279 279 723 797 1139> 911 55 1044 68
LayerCount: 2
Fore
SplineSet
467 723 m 1
 467 279 l 2
 467 158 471 137 508 106 c 0
 545 75 594 66 721 66 c 2
 791 66 l 2
 1031 66 1047 73 1149 270 c 0
 1161 295 1168 301 1176 301 c 0
 1203 301 1223 293 1223 281 c 0
 1223 277 1218 260 1212 240 c 2
 1163 66 l 2
 1149 21 1138 -2 1130 -6 c 0
 1122 -10 1114 -10 1057 -10 c 2
 606 -4 l 2
 530 -2 530 -2 481 -2 c 2
 420 -2 l 2
 371 0 348 0 348 0 c 2
 311 0 280 -2 231 -4 c 0
 157 -8 119 -10 88 -10 c 0
 55 -10 49 -7 49 16 c 2
 49 29 l 2
 49 58 49 57 137 57 c 0
 205 57 244 71 264 104 c 0
 278 127 283 168 283 272 c 2
 283 1141 l 2
 283 1266 277 1300 252 1325 c 0
 221 1352 207 1356 86 1356 c 0
 63 1356 55 1364 55 1384 c 2
 55 1397 l 2
 55 1415 64 1423 84 1423 c 0
 100 1423 123 1423 150 1421 c 2
 231 1417 l 1
 330 1415 l 2
 379 1413 414 1411 428 1411 c 0
 448 1411 486 1413 535 1415 c 0
 625 1419 715 1423 756 1423 c 2
 1055 1423 l 2
 1112 1423 1112 1423 1112 1368 c 2
 1112 1161 l 2
 1112 1120 1110 1116 1092 1116 c 2
 1071 1116 l 2
 1048 1116 1048 1117 1044 1178 c 0
 1038 1264 1009 1312 954 1337 c 0
 919 1351 875 1356 762 1356 c 0
 467 1356 467 1356 467 1139 c 2
 467 797 l 1
 485 795 543 795 555 795 c 0
 834 795 866 809 911 952 c 0
 915 964 920 967 934 967 c 2
 946 967 l 2
 960 967 967 960 967 948 c 2
 965 905 l 2
 959 856 954 790 954 745 c 0
 954 692 959 610 963 592 c 0
 967 569 969 553 969 545 c 0
 969 535 962 526 950 526 c 2
 926 524 l 2
 903 524 903 527 889 623 c 0
 875 725 874 725 573 725 c 0
 544 725 545 725 496 723 c 2
 467 723 l 1
686 1731 m 1
 424 1561 l 2
 414 1555 407 1552 401 1552 c 0
 397 1552 391 1557 387 1563 c 2
 365 1587 l 2
 359 1593 356 1598 356 1602 c 0
 356 1606 361 1612 371 1622 c 2
 573 1829 l 2
 649 1907 659 1913 692 1913 c 0
 725 1913 741 1903 809 1829 c 2
 1012 1622 l 2
 1020 1614 1024 1608 1024 1602 c 0
 1024 1600 1020 1591 1016 1587 c 2
 991 1561 l 2
 987 1557 981 1552 977 1552 c 0
 975 1552 966 1557 956 1563 c 2
 686 1731 l 1
EndSplineSet
EndChar

StartChar: Idieresis
Encoding: 207 207 42
Width: 679
GlyphClass: 2
Flags: HMW
HStem: -10 68<59 140 614 620> 1354 68<58 141> 1620 225<90 151 530 591>
VStem: 8 225<1703 1763 1701 1764> 252 184<270 1139> 449 225<1703 1763 1701 1764>
LayerCount: 2
Fore
SplineSet
252 270 m 2
 252 1139 l 2
 252 1245 247 1284 233 1309 c 0
 213 1342 178 1354 104 1354 c 0
 43 1356 39 1355 39 1382 c 2
 39 1397 l 2
 39 1415 47 1421 70 1421 c 0
 84 1421 108 1421 133 1419 c 0
 207 1415 299 1411 336 1411 c 0
 367 1411 526 1417 561 1419 c 0
 584 1421 602 1421 616 1421 c 0
 636 1421 643 1415 643 1397 c 2
 643 1382 l 2
 643 1357 639 1356 594 1354 c 0
 504 1352 478 1344 455 1309 c 0
 441 1284 436 1245 436 1139 c 2
 436 270 l 2
 436 166 441 127 455 102 c 0
 478 69 512 57 594 57 c 0
 645 57 649 54 649 29 c 2
 649 14 l 2
 649 -4 643 -10 623 -10 c 0
 607 -10 586 -10 561 -8 c 0
 526 -6 371 0 340 0 c 0
 309 0 186 -4 135 -8 c 0
 108 -10 86 -10 70 -10 c 0
 50 -10 41 -4 41 14 c 2
 41 29 l 2
 41 56 43 55 106 57 c 0
 174 57 213 71 233 102 c 0
 247 127 252 166 252 270 c 2
121 1845 m 0
 182 1845 233 1794 233 1733 c 0
 233 1670 182 1620 119 1620 c 0
 58 1620 8 1672 8 1735 c 0
 8 1794 60 1845 121 1845 c 0
561 1845 m 0
 622 1845 674 1794 674 1733 c 0
 674 1670 622 1620 559 1620 c 0
 498 1620 449 1672 449 1735 c 0
 449 1794 500 1845 561 1845 c 0
EndSplineSet
EndChar

StartChar: Iacute
Encoding: 205 205 43
Width: 679
GlyphClass: 2
Flags: HMW
HStem: -10 68<60 140 613 620> 1356 66<58 70>
VStem: 252 184<270 1139>
LayerCount: 2
Fore
SplineSet
252 270 m 2
 252 1139 l 2
 252 1266 246 1298 221 1323 c 0
 192 1350 174 1354 70 1356 c 0
 47 1356 39 1362 39 1382 c 2
 39 1397 l 2
 39 1415 48 1421 68 1421 c 0
 86 1421 106 1421 133 1419 c 0
 196 1415 299 1411 338 1411 c 0
 367 1411 530 1417 561 1419 c 0
 584 1421 602 1421 616 1421 c 0
 636 1421 643 1415 643 1397 c 2
 643 1382 l 2
 643 1357 639 1356 594 1354 c 0
 504 1352 478 1344 455 1309 c 0
 441 1284 436 1245 436 1139 c 2
 436 270 l 2
 436 166 441 127 455 102 c 0
 478 69 512 57 594 57 c 0
 645 57 649 54 649 29 c 2
 649 14 l 2
 649 -4 644 -10 621 -10 c 0
 607 -10 586 -10 561 -8 c 0
 524 -6 371 0 340 0 c 0
 307 0 196 -4 135 -8 c 0
 110 -10 84 -10 72 -10 c 0
 49 -10 41 -4 41 14 c 2
 41 29 l 2
 41 56 43 55 106 57 c 0
 174 57 213 71 233 102 c 0
 247 127 252 166 252 270 c 2
178 1618 m 2
 442 1853 l 2
 518 1923 530 1931 563 1931 c 0
 608 1931 647 1886 647 1835 c 0
 647 1784 617 1751 535 1710 c 2
 223 1559 l 2
 217 1555 209 1552 203 1552 c 0
 197 1552 188 1557 186 1563 c 2
 174 1583 l 2
 172 1587 170 1593 170 1599 c 0
 170 1605 174 1612 178 1618 c 2
EndSplineSet
EndChar

StartChar: Igrave
Encoding: 204 204 44
Width: 679
GlyphClass: 2
Flags: HMW
HStem: -10 68<58 139 611 617> 1356 66<56 68>
VStem: 250 184<270 1139>
LayerCount: 2
Fore
SplineSet
250 270 m 2
 250 1139 l 2
 250 1268 244 1298 219 1323 c 0
 190 1350 172 1354 68 1356 c 0
 45 1356 39 1362 39 1382 c 2
 39 1397 l 2
 39 1415 46 1421 66 1421 c 0
 84 1421 104 1421 131 1419 c 0
 192 1415 297 1411 336 1411 c 0
 365 1411 526 1417 559 1419 c 0
 582 1421 600 1421 614 1421 c 0
 634 1421 641 1415 641 1397 c 2
 641 1382 l 2
 641 1357 637 1356 592 1354 c 0
 502 1352 476 1344 453 1309 c 0
 439 1284 434 1248 434 1139 c 2
 434 270 l 2
 434 164 439 127 453 102 c 0
 473 69 510 57 592 57 c 0
 643 57 647 54 647 29 c 2
 647 14 l 2
 647 -4 641 -10 621 -10 c 0
 603 -10 584 -10 559 -8 c 0
 524 -6 369 0 338 0 c 0
 305 0 194 -4 133 -8 c 0
 108 -10 82 -10 70 -10 c 0
 47 -10 39 -4 39 14 c 2
 39 29 l 2
 39 56 41 55 104 57 c 0
 174 57 211 71 231 102 c 0
 245 127 250 164 250 270 c 2
459 1559 m 2
 147 1710 l 2
 65 1751 35 1784 35 1835 c 0
 35 1886 74 1931 119 1931 c 0
 152 1931 166 1921 242 1853 c 2
 504 1618 l 2
 510 1612 514 1603 514 1599 c 0
 514 1595 512 1589 508 1583 c 2
 498 1563 l 2
 494 1557 485 1552 479 1552 c 0
 473 1552 465 1555 459 1559 c 2
EndSplineSet
EndChar

StartChar: Icircumflex
Encoding: 206 206 45
Width: 679
GlyphClass: 2
Flags: HMW
HStem: -10 68<59 140 614 620> 1354 68<57 141>
VStem: 252 184<270 1139>
LayerCount: 2
Fore
SplineSet
252 270 m 2
 252 1139 l 2
 252 1243 247 1286 233 1309 c 0
 213 1342 178 1354 104 1354 c 0
 43 1356 39 1355 39 1382 c 2
 39 1397 l 2
 39 1415 48 1421 68 1421 c 0
 86 1421 106 1421 131 1419 c 0
 194 1415 299 1411 338 1411 c 0
 367 1411 528 1417 561 1419 c 0
 584 1421 602 1421 616 1421 c 0
 636 1421 643 1415 643 1397 c 2
 643 1382 l 2
 643 1357 639 1356 594 1354 c 0
 504 1352 478 1344 455 1309 c 0
 441 1286 436 1243 436 1139 c 2
 436 270 l 2
 436 168 441 125 455 102 c 0
 475 69 512 57 594 57 c 0
 645 57 649 54 649 29 c 2
 649 14 l 2
 649 -4 643 -10 623 -10 c 0
 607 -10 586 -10 561 -8 c 0
 524 -6 371 0 340 0 c 0
 307 0 186 -4 135 -8 c 0
 108 -10 86 -10 70 -10 c 0
 50 -10 41 -4 41 14 c 2
 41 29 l 2
 41 56 43 55 106 57 c 0
 174 57 213 71 233 102 c 0
 247 125 252 168 252 270 c 2
342 1731 m 1
 78 1561 l 2
 70 1555 63 1552 57 1552 c 0
 53 1552 47 1557 43 1563 c 2
 20 1587 l 2
 14 1593 12 1598 12 1602 c 0
 12 1606 17 1612 27 1622 c 2
 229 1829 l 2
 305 1907 315 1913 348 1913 c 0
 381 1913 395 1903 465 1829 c 2
 668 1622 l 2
 676 1614 680 1606 680 1602 c 0
 680 1600 676 1591 672 1587 c 2
 647 1561 l 2
 643 1557 637 1552 633 1552 c 0
 631 1552 622 1557 612 1563 c 2
 342 1731 l 1
EndSplineSet
EndChar

StartChar: Lslash
Encoding: 321 321 46
Width: 1245
GlyphClass: 2
Flags: HMW
HStem: -10 68<66 142> 461 98<74 74> 948 100<723 723> 1356 66<65 76>
VStem: 254 184<270 358 358 596 596 596 694 733 834 1139>
LayerCount: 2
Fore
SplineSet
254 694 m 1
 254 1139 l 2
 254 1268 248 1298 221 1323 c 0
 194 1350 176 1354 76 1356 c 0
 53 1356 47 1362 47 1382 c 2
 47 1397 l 2
 47 1415 54 1421 74 1421 c 0
 90 1421 106 1421 129 1419 c 0
 180 1415 297 1411 342 1411 c 0
 373 1411 506 1415 561 1419 c 0
 590 1421 613 1421 631 1421 c 0
 651 1421 659 1415 659 1397 c 2
 659 1382 l 2
 659 1355 660 1356 582 1354 c 0
 512 1354 477 1340 457 1309 c 0
 443 1284 438 1248 438 1139 c 2
 438 834 l 1
 723 1049 l 1
 723 948 l 1
 438 733 l 1
 438 358 l 2
 438 104 481 66 772 66 c 0
 911 66 997 82 1030 115 c 0
 1044 129 1049 135 1133 291 c 0
 1139 301 1147 305 1157 305 c 0
 1180 305 1194 299 1194 289 c 2
 1192 270 l 1
 1143 76 l 2
 1135 37 1124 10 1114 0 c 0
 1106 -8 1088 -10 1010 -10 c 2
 428 0 l 2
 412 0 155 -6 141 -8 c 0
 114 -10 92 -10 76 -10 c 0
 56 -10 47 -4 47 14 c 2
 47 29 l 2
 47 56 52 55 109 57 c 0
 177 57 216 71 236 102 c 0
 250 127 254 164 254 270 c 2
 254 596 l 1
 74 461 l 1
 74 559 l 1
 254 694 l 1
EndSplineSet
EndChar

StartChar: Ntilde
Encoding: 209 209 47
Width: 1736
GlyphClass: 2
Flags: HW
HStem: -10 68<104 185> 1354 68<41 155> 1552 176<555 723 1039 1049> 1729 176<690 723>
VStem: 297 92<270 1139 1139 1185> 1389 102<295 1139>
LayerCount: 2
Fore
SplineSet
1491 -63 m 1xcc
 1442 -63 l 1
 389 1186 l 1
 389 270 l 2
 389 147 395 111 420 88 c 0
 449 61 471 57 571 57 c 0
 594 55 602 49 602 29 c 2
 602 14 l 2
 602 -2 593 -10 575 -10 c 0
 569 -10 567 -10 440 -4 c 0
 389 -2 350 0 344 0 c 0
 330 0 315 0 172 -8 c 0
 141 -10 119 -10 115 -10 c 0
 95 -10 88 -4 88 14 c 2
 88 29 l 2
 88 56 91 55 152 57 c 0
 220 57 259 71 279 102 c 0
 293 127 297 166 297 270 c 2
 297 1139 l 2
 297 1231 295 1237 258 1274 c 0
 188 1344 166 1352 49 1354 c 0
 33 1354 27 1358 27 1374 c 2
 27 1395 l 2
 27 1420 33 1421 109 1421 c 0
 201 1421 327 1417 481 1409 c 1
 1137 561 l 2
 1170 520 1305 375 1389 295 c 1
 1389 1139 l 2
 1389 1266 1383 1298 1358 1323 c 0
 1329 1350 1312 1352 1206 1356 c 0
 1183 1356 1176 1362 1176 1382 c 2
 1176 1397 l 2
 1176 1415 1184 1421 1202 1421 c 0
 1208 1421 1212 1421 1337 1415 c 0
 1390 1413 1430 1411 1440 1411 c 0
 1463 1411 1475 1411 1616 1419 c 0
 1645 1421 1665 1421 1675 1421 c 0
 1693 1421 1702 1415 1702 1397 c 2
 1702 1382 l 2
 1702 1355 1699 1356 1636 1354 c 0
 1564 1354 1529 1340 1509 1309 c 0
 1495 1284 1491 1248 1491 1139 c 2
 1491 -63 l 1xcc
1178 1886 m 2
 1196 1878 l 2
 1204 1874 1210 1865 1210 1855 c 0
 1210 1820 1172 1706 1143 1651 c 0
 1106 1583 1069 1552 1028 1552 c 0xec
 975 1552 959 1563 834 1665 c 0
 783 1708 742 1729 705 1729 c 0xdc
 650 1729 606 1680 569 1571 c 0
 563 1557 561 1552 557 1552 c 0xec
 553 1552 547 1552 543 1554 c 2
 518 1565 l 2
 512 1567 508 1575 508 1583 c 0
 508 1606 525 1681 535 1712 c 0
 578 1831 651 1905 729 1905 c 0xdc
 782 1905 782 1905 942 1788 c 0
 1005 1741 1028 1729 1051 1729 c 0xec
 1084 1729 1102 1755 1147 1870 c 0
 1151 1884 1157 1890 1163 1890 c 0
 1167 1890 1174 1888 1178 1886 c 2
EndSplineSet
EndChar

StartChar: Odieresis
Encoding: 214 214 48
Width: 1736
GlyphClass: 2
Flags: HMW
HStem: -41 70<716 1043 716 1059> 1382 68<766 1006> 1620 225<653 715 653 715 1092 1153>
VStem: 88 217<543 848 543 890> 571 225<1703 1763 1701 1764> 1010 225<1703 1763 1701 1764> 1430 217<522 878>
LayerCount: 2
Fore
SplineSet
868 1450 m 0
 1296 1450 1647 1128 1647 735 c 0
 1647 309 1280 -41 838 -41 c 0
 400 -41 88 258 88 680 c 0
 88 1100 442 1450 868 1450 c 0
838 1382 m 0
 695 1382 567 1331 477 1235 c 0
 371 1124 305 942 305 754 c 0
 305 332 547 29 885 29 c 0
 1202 29 1430 299 1430 678 c 0
 1430 1077 1174 1382 838 1382 c 0
684 1845 m 0
 745 1845 797 1794 797 1733 c 0
 797 1670 745 1620 684 1620 c 0
 621 1620 571 1672 571 1735 c 0
 571 1794 623 1845 684 1845 c 0
1122 1845 m 0
 1183 1845 1235 1794 1235 1733 c 0
 1235 1670 1183 1620 1122 1620 c 0
 1059 1620 1010 1672 1010 1735 c 0
 1010 1794 1061 1845 1122 1845 c 0
EndSplineSet
EndChar

StartChar: Oacute
Encoding: 211 211 49
Width: 1736
GlyphClass: 2
Flags: HMW
HStem: -41 70<716 1043 716 1059> 1382 68<766 1006>
VStem: 88 217<543 848 543 890> 1430 217<522 878>
LayerCount: 2
Fore
SplineSet
868 1450 m 0
 1296 1450 1647 1128 1647 735 c 0
 1647 309 1280 -41 838 -41 c 0
 400 -41 88 258 88 680 c 0
 88 1100 442 1450 868 1450 c 0
838 1382 m 0
 695 1382 567 1331 477 1235 c 0
 371 1124 305 942 305 754 c 0
 305 332 547 29 885 29 c 0
 1202 29 1430 299 1430 678 c 0
 1430 1077 1174 1382 838 1382 c 0
707 1618 m 2
 971 1853 l 2
 1047 1923 1059 1931 1092 1931 c 0
 1137 1931 1176 1886 1176 1835 c 0
 1176 1784 1145 1751 1063 1710 c 2
 752 1559 l 2
 746 1555 737 1552 731 1552 c 0
 725 1552 717 1557 713 1563 c 2
 702 1583 l 2
 698 1589 696 1595 696 1599 c 0
 696 1603 701 1612 707 1618 c 2
EndSplineSet
EndChar

StartChar: Ograve
Encoding: 210 210 50
Width: 1736
GlyphClass: 2
Flags: HMW
HStem: -41 70<716 1043 716 1059> 1382 68<766 1006>
VStem: 88 217<543 848 543 890> 1430 217<522 878>
LayerCount: 2
Fore
SplineSet
868 1450 m 0
 1296 1450 1647 1128 1647 735 c 0
 1647 309 1280 -41 838 -41 c 0
 400 -41 88 258 88 680 c 0
 88 1100 442 1450 868 1450 c 0
838 1382 m 0
 695 1382 567 1331 477 1235 c 0
 371 1124 305 942 305 754 c 0
 305 332 547 29 885 29 c 0
 1202 29 1430 299 1430 678 c 0
 1430 1077 1174 1382 838 1382 c 0
987 1559 m 2
 676 1710 l 2
 594 1751 563 1784 563 1835 c 0
 563 1886 602 1931 647 1931 c 0
 680 1931 694 1923 770 1853 c 2
 1032 1618 l 2
 1038 1612 1042 1605 1042 1599 c 0
 1042 1595 1040 1589 1036 1583 c 2
 1026 1563 l 2
 1022 1557 1014 1552 1008 1552 c 0
 1002 1552 993 1555 987 1559 c 2
EndSplineSet
EndChar

StartChar: Ocircumflex
Encoding: 212 212 51
Width: 1736
GlyphClass: 2
Flags: HMW
HStem: -41 70<716 1043 716 1059> 1382 68<766 1006>
VStem: 88 217<543 848 543 890> 1430 217<522 878>
LayerCount: 2
Fore
SplineSet
868 1450 m 0
 1296 1450 1647 1128 1647 735 c 0
 1647 309 1280 -41 838 -41 c 0
 400 -41 88 258 88 680 c 0
 88 1100 442 1450 868 1450 c 0
838 1382 m 0
 695 1382 567 1331 477 1235 c 0
 371 1124 305 942 305 754 c 0
 305 332 547 29 885 29 c 0
 1202 29 1430 299 1430 678 c 0
 1430 1077 1174 1382 838 1382 c 0
911 1731 m 1
 647 1561 l 2
 639 1555 631 1552 627 1552 c 0
 623 1552 616 1557 612 1563 c 2
 590 1587 l 2
 586 1591 582 1598 582 1602 c 0
 582 1606 586 1612 596 1622 c 2
 799 1829 l 2
 875 1907 885 1913 918 1913 c 0
 951 1913 964 1903 1034 1829 c 2
 1237 1622 l 2
 1243 1614 1249 1608 1249 1602 c 0
 1249 1600 1245 1593 1241 1587 c 2
 1217 1561 l 2
 1213 1557 1206 1552 1202 1552 c 0
 1200 1552 1192 1557 1182 1563 c 2
 911 1731 l 1
EndSplineSet
EndChar

StartChar: Otilde
Encoding: 213 213 52
Width: 1736
GlyphClass: 2
Flags: HW
HStem: -41 70<716 1043 716 1059> 1382 68<766 1006> 1552 176<555 723 1038 1049> 1729 176<690 723>
VStem: 88 217<543 848 543 890> 1430 217<522 878>
LayerCount: 2
Fore
SplineSet
868 1450 m 0xcc
 1296 1450 1647 1128 1647 735 c 0
 1647 309 1280 -41 838 -41 c 0
 400 -41 88 258 88 680 c 0
 88 1100 442 1450 868 1450 c 0xcc
838 1382 m 0
 695 1382 567 1331 477 1235 c 0
 371 1124 305 942 305 754 c 0
 305 332 547 29 885 29 c 0
 1202 29 1430 299 1430 678 c 0
 1430 1077 1174 1382 838 1382 c 0
1178 1886 m 2
 1196 1878 l 2
 1204 1874 1210 1863 1210 1855 c 0
 1210 1820 1172 1706 1143 1651 c 0
 1106 1583 1069 1552 1028 1552 c 0xec
 975 1552 959 1563 834 1665 c 0
 783 1708 742 1729 705 1729 c 0xdc
 650 1729 602 1673 569 1571 c 0
 563 1557 561 1552 557 1552 c 0xec
 553 1552 545 1552 543 1554 c 2
 518 1565 l 2
 512 1567 508 1575 508 1583 c 0
 508 1603 525 1681 535 1712 c 0
 578 1833 651 1905 729 1905 c 0xdc
 782 1905 782 1905 942 1788 c 0
 1008 1739 1026 1729 1051 1729 c 0xec
 1084 1729 1102 1755 1145 1870 c 0
 1151 1884 1157 1890 1163 1890 c 0
 1167 1890 1172 1888 1178 1886 c 2
EndSplineSet
EndChar

StartChar: Scaron
Encoding: 352 352 53
Width: 980
GlyphClass: 2
Flags: HW
HStem: -41 80<392 506 392 555> 1370 80<478 554>
VStem: 70 70 86 168<1078 1114> 705 190<257 377> 735 88
LayerCount: 2
Fore
SplineSet
811 1364 m 2xd8
 823 1155 l 1
 823 1139 l 2
 823 1121 819 1116 801 1116 c 2
 780 1114 l 1
 774 1114 l 2
 747 1112 747 1112 735 1186 c 0
 719 1292 615 1370 494 1370 c 0
 355 1370 254 1274 254 1141 c 0xd4
 254 1016 314 952 547 825 c 0
 817 680 895 580 895 379 c 0
 895 135 695 -41 416 -41 c 0
 328 -41 180 -13 123 16 c 0
 103 26 96 43 90 109 c 2
 74 248 l 2
 72 268 70 283 70 283 c 2
 70 293 76 299 90 299 c 2
 113 301 l 1
 117 301 l 2
 127 303 131 296 139 276 c 0xe8
 168 194 180 172 217 133 c 0
 270 74 352 39 432 39 c 0
 579 39 705 162 705 307 c 0
 705 446 641 518 401 655 c 0
 145 800 86 875 86 1051 c 0
 86 1178 135 1284 221 1350 c 0
 305 1413 420 1450 537 1450 c 0
 609 1450 721 1430 782 1407 c 0
 805 1399 809 1393 811 1364 c 2xd8
500 1733 m 1
 762 1903 l 2
 772 1909 778 1913 784 1913 c 0
 786 1913 793 1909 799 1903 c 2
 821 1876 l 2
 827 1872 829 1866 829 1864 c 0
 829 1860 825 1851 815 1843 c 2
 612 1634 l 2
 536 1558 527 1552 494 1552 c 0
 461 1552 445 1562 377 1634 c 2
 174 1841 l 2
 166 1849 162 1858 162 1862 c 0
 162 1864 166 1872 170 1876 c 2
 195 1903 l 2
 201 1909 205 1913 207 1913 c 0
 211 1913 219 1909 229 1901 c 2
 500 1733 l 1
EndSplineSet
EndChar

StartChar: Udieresis
Encoding: 220 220 54
Width: 1662
GlyphClass: 2
Flags: HMW
HStem: -41 117<757 942 757 1027> 1354 68<71 80 70 135> 1620 225<614 675 1055 1115>
VStem: 270 184<509 604 604 1139> 532 225<1703 1763 1701 1764> 973 225<1703 1763 1701 1764> 1315 100<621 1130 1130 1163>
LayerCount: 2
Fore
SplineSet
455 1139 m 2
 455 604 l 2
 455 414 457 390 475 322 c 0
 518 160 651 76 862 76 c 0
 1022 76 1157 133 1229 231 c 0
 1290 317 1315 431 1315 621 c 2
 1315 1130 l 2
 1315 1294 1313 1306 1284 1329 c 0
 1264 1347 1229 1354 1155 1356 c 0
 1135 1356 1128 1362 1128 1380 c 2
 1128 1397 l 2
 1128 1415 1135 1421 1149 1421 c 2
 1190 1419 l 1
 1370 1411 l 1
 1608 1421 l 2
 1622 1421 1628 1415 1628 1401 c 2
 1628 1376 l 2
 1628 1358 1624 1356 1587 1356 c 0
 1425 1354 1411 1337 1415 1163 c 2
 1415 528 l 2
 1415 157 1215 -41 840 -41 c 0
 643 -41 481 12 385 106 c 0
 303 186 270 287 270 453 c 2
 270 1139 l 2
 270 1264 265 1298 240 1323 c 0
 211 1350 188 1354 82 1354 c 0
 59 1354 51 1362 51 1382 c 2
 51 1397 l 2
 51 1415 60 1421 80 1421 c 2
 139 1419 l 2
 168 1417 332 1411 367 1411 c 0
 398 1411 551 1417 586 1419 c 2
 653 1421 l 2
 673 1421 680 1415 680 1397 c 2
 680 1382 l 2
 680 1353 680 1354 600 1354 c 0
 532 1354 493 1340 473 1309 c 0
 459 1286 455 1243 455 1139 c 2
645 1845 m 0
 706 1845 758 1794 758 1733 c 0
 758 1670 706 1620 643 1620 c 0
 582 1620 532 1672 532 1735 c 0
 532 1794 584 1845 645 1845 c 0
1085 1845 m 0
 1146 1845 1198 1794 1198 1733 c 0
 1198 1670 1146 1620 1083 1620 c 0
 1022 1620 973 1672 973 1735 c 0
 973 1794 1024 1845 1085 1845 c 0
EndSplineSet
EndChar

StartChar: Uacute
Encoding: 218 218 55
Width: 1662
GlyphClass: 2
Flags: HMW
HStem: -41 117<757 942 757 1027> 1354 68<71 80 70 135>
VStem: 270 184<509 604 604 1139> 1315 100<621 1130 1130 1163>
LayerCount: 2
Fore
SplineSet
455 1139 m 2
 455 604 l 2
 455 414 457 390 475 322 c 0
 518 160 651 76 862 76 c 0
 1022 76 1157 133 1229 231 c 0
 1290 317 1315 431 1315 621 c 2
 1315 1130 l 2
 1315 1294 1313 1306 1284 1329 c 0
 1264 1347 1229 1354 1155 1356 c 0
 1135 1356 1128 1362 1128 1380 c 2
 1128 1397 l 2
 1128 1415 1135 1421 1149 1421 c 2
 1190 1419 l 1
 1370 1411 l 1
 1608 1421 l 2
 1622 1421 1628 1415 1628 1401 c 2
 1628 1376 l 2
 1628 1358 1624 1356 1587 1356 c 0
 1425 1354 1411 1337 1415 1163 c 2
 1415 528 l 2
 1415 157 1215 -41 840 -41 c 0
 643 -41 481 12 385 106 c 0
 303 186 270 287 270 453 c 2
 270 1139 l 2
 270 1264 265 1298 240 1323 c 0
 211 1350 188 1354 82 1354 c 0
 59 1354 51 1362 51 1382 c 2
 51 1397 l 2
 51 1415 60 1421 80 1421 c 2
 139 1419 l 2
 168 1417 332 1411 367 1411 c 0
 398 1411 551 1417 586 1419 c 2
 653 1421 l 2
 673 1421 680 1415 680 1397 c 2
 680 1382 l 2
 680 1353 680 1354 600 1354 c 0
 532 1354 493 1340 473 1309 c 0
 459 1286 455 1243 455 1139 c 2
670 1618 m 2
 932 1853 l 2
 1008 1923 1022 1931 1055 1931 c 0
 1100 1931 1139 1886 1139 1835 c 0
 1139 1784 1110 1751 1026 1710 c 2
 715 1559 l 2
 709 1555 700 1552 694 1552 c 0
 688 1552 680 1557 676 1563 c 2
 666 1583 l 2
 662 1589 659 1595 659 1599 c 0
 659 1605 664 1612 670 1618 c 2
EndSplineSet
EndChar

StartChar: Ugrave
Encoding: 217 217 56
Width: 1662
GlyphClass: 2
Flags: HMW
HStem: -41 117<757 942 757 1027> 1354 68<71 80 70 135>
VStem: 270 184<509 604 604 1139> 1315 100<621 1130 1130 1163>
LayerCount: 2
Fore
SplineSet
455 1139 m 2
 455 604 l 2
 455 414 457 390 475 322 c 0
 518 160 651 76 862 76 c 0
 1022 76 1157 133 1229 231 c 0
 1290 317 1315 431 1315 621 c 2
 1315 1130 l 2
 1315 1294 1313 1306 1284 1329 c 0
 1264 1347 1229 1354 1155 1356 c 0
 1135 1356 1128 1362 1128 1380 c 2
 1128 1397 l 2
 1128 1415 1135 1421 1149 1421 c 2
 1190 1419 l 1
 1370 1411 l 1
 1608 1421 l 2
 1622 1421 1628 1415 1628 1401 c 2
 1628 1376 l 2
 1628 1358 1624 1356 1587 1356 c 0
 1425 1354 1411 1337 1415 1163 c 2
 1415 528 l 2
 1415 157 1215 -41 840 -41 c 0
 643 -41 481 12 385 106 c 0
 303 186 270 287 270 453 c 2
 270 1139 l 2
 270 1264 265 1298 240 1323 c 0
 211 1350 188 1354 82 1354 c 0
 59 1354 51 1362 51 1382 c 2
 51 1397 l 2
 51 1415 60 1421 80 1421 c 2
 139 1419 l 2
 168 1417 332 1411 367 1411 c 0
 398 1411 551 1417 586 1419 c 2
 653 1421 l 2
 673 1421 680 1415 680 1397 c 2
 680 1382 l 2
 680 1353 680 1354 600 1354 c 0
 532 1354 493 1340 473 1309 c 0
 459 1286 455 1243 455 1139 c 2
950 1559 m 2
 639 1710 l 2
 557 1751 526 1784 526 1835 c 0
 526 1886 565 1931 610 1931 c 0
 643 1931 655 1923 731 1853 c 2
 995 1618 l 2
 1001 1610 1006 1603 1006 1599 c 0
 1006 1595 1003 1589 999 1583 c 2
 989 1563 l 2
 985 1557 977 1552 971 1552 c 0
 965 1552 956 1555 950 1559 c 2
EndSplineSet
EndChar

StartChar: Ucircumflex
Encoding: 219 219 57
Width: 1662
GlyphClass: 2
Flags: HMW
HStem: -41 117<757 942 757 1027> 1354 68<71 80 70 135>
VStem: 270 184<509 604 604 1139> 1315 100<621 1130 1130 1163>
LayerCount: 2
Fore
SplineSet
455 1139 m 2
 455 604 l 2
 455 414 457 390 475 322 c 0
 518 160 651 76 862 76 c 0
 1022 76 1157 133 1229 231 c 0
 1290 317 1315 431 1315 621 c 2
 1315 1130 l 2
 1315 1294 1313 1306 1284 1329 c 0
 1264 1347 1229 1354 1155 1356 c 0
 1135 1356 1128 1362 1128 1380 c 2
 1128 1397 l 2
 1128 1415 1135 1421 1149 1421 c 2
 1190 1419 l 1
 1370 1411 l 1
 1608 1421 l 2
 1622 1421 1628 1415 1628 1401 c 2
 1628 1376 l 2
 1628 1358 1624 1356 1587 1356 c 0
 1425 1354 1411 1337 1415 1163 c 2
 1415 528 l 2
 1415 157 1215 -41 840 -41 c 0
 643 -41 481 12 385 106 c 0
 303 186 270 287 270 453 c 2
 270 1139 l 2
 270 1264 265 1298 240 1323 c 0
 211 1350 188 1354 82 1354 c 0
 59 1354 51 1362 51 1382 c 2
 51 1397 l 2
 51 1415 60 1421 80 1421 c 2
 139 1419 l 2
 168 1417 332 1411 367 1411 c 0
 398 1411 551 1417 586 1419 c 2
 653 1421 l 2
 673 1421 680 1415 680 1397 c 2
 680 1382 l 2
 680 1353 680 1354 600 1354 c 0
 532 1354 493 1340 473 1309 c 0
 459 1286 455 1243 455 1139 c 2
874 1731 m 1
 610 1561 l 2
 602 1555 594 1552 590 1552 c 0
 586 1552 579 1557 575 1563 c 2
 553 1587 l 2
 549 1591 545 1598 545 1602 c 0
 545 1606 549 1614 559 1622 c 2
 760 1829 l 2
 838 1907 848 1913 881 1913 c 0
 914 1913 927 1903 997 1829 c 2
 1198 1622 l 2
 1206 1614 1212 1606 1212 1602 c 0
 1212 1600 1208 1593 1204 1587 c 2
 1180 1561 l 2
 1174 1557 1167 1552 1165 1552 c 0
 1163 1552 1151 1559 1143 1563 c 2
 874 1731 l 1
EndSplineSet
EndChar

StartChar: Yacute
Encoding: 221 221 58
Width: 1472
GlyphClass: 2
Flags: HMW
HStem: -10 68<461 552 1034 1040> 1356 66<34 50 34 95>
VStem: 664 184<270 592 592 630>
LayerCount: 2
Fore
SplineSet
848 698 m 1
 848 270 l 2
 848 145 854 113 879 88 c 0
 908 61 927 57 1040 57 c 0
 1063 55 1071 49 1071 29 c 2
 1071 14 l 2
 1071 -4 1062 -10 1042 -10 c 0
 1026 -10 1006 -10 979 -8 c 0
 936 -4 795 0 756 0 c 0
 717 0 573 -4 532 -8 c 0
 505 -10 487 -10 471 -10 c 0
 451 -10 442 -4 442 14 c 2
 442 29 l 2
 442 56 442 55 518 57 c 0
 586 57 625 71 645 102 c 0
 659 127 664 166 664 270 c 2
 664 592 l 2
 664 668 659 680 618 737 c 2
 240 1255 l 2
 174 1343 152 1356 39 1356 c 0
 23 1356 18 1360 18 1378 c 2
 18 1399 l 2
 18 1415 25 1421 43 1421 c 0
 57 1421 74 1421 92 1419 c 0
 160 1415 275 1411 322 1411 c 0
 383 1411 389 1411 539 1419 c 0
 555 1421 574 1421 586 1421 c 0
 604 1421 610 1415 610 1397 c 2
 610 1378 l 2
 610 1353 606 1352 563 1352 c 0
 477 1354 432 1342 432 1317 c 0
 432 1307 436 1299 459 1268 c 2
 479 1239 l 1
 727 893 l 2
 756 854 784 820 809 793 c 1
 846 832 872 869 948 971 c 2
 1055 1118 l 2
 1135 1227 1165 1282 1165 1313 c 0
 1165 1344 1133 1356 1051 1356 c 0
 988 1356 987 1355 987 1378 c 2
 987 1395 l 2
 987 1415 994 1421 1012 1421 c 2
 1063 1419 l 2
 1100 1415 1202 1411 1231 1411 c 0
 1260 1411 1345 1415 1382 1419 c 2
 1432 1421 l 2
 1446 1421 1452 1415 1452 1401 c 2
 1452 1376 l 2
 1452 1356 1450 1354 1405 1354 c 0
 1331 1354 1306 1333 1214 1206 c 2
 848 698 l 1
575 1618 m 2
 840 1853 l 2
 918 1925 928 1931 961 1931 c 0
 1006 1931 1044 1886 1044 1835 c 0
 1044 1784 1014 1751 932 1710 c 2
 621 1559 l 2
 615 1555 608 1552 600 1552 c 0
 594 1552 586 1557 584 1563 c 2
 571 1583 l 2
 569 1589 567 1593 567 1599 c 0
 567 1605 571 1612 575 1618 c 2
EndSplineSet
EndChar

StartChar: Zcaron
Encoding: 381 381 59
Width: 1359
GlyphClass: 2
Flags: HMW
HStem: 0 68<658 720> 1348 68<420 701 542 701 542 874>
LayerCount: 2
Fore
SplineSet
88 39 m 1
 594 760 l 2
 975 1307 975 1307 975 1325 c 0
 975 1343 958 1348 874 1348 c 2
 512 1348 l 2
 328 1348 301 1331 207 1155 c 0
 184 1112 180 1108 170 1108 c 0
 147 1108 121 1125 121 1137 c 0
 121 1145 121 1145 141 1241 c 2
 197 1475 l 2
 205 1512 207 1513 227 1513 c 2
 248 1513 l 2
 264 1513 266 1513 272 1497 c 0
 297 1438 406 1415 678 1415 c 0
 725 1415 737 1415 1044 1423 c 0
 1097 1425 1137 1425 1157 1425 c 0
 1257 1425 1278 1421 1278 1407 c 0
 1278 1401 1278 1401 1251 1362 c 2
 752 653 l 2
 516 317 494 285 422 176 c 2
 397 137 l 2
 370 98 367 92 367 84 c 0
 367 72 379 68 420 68 c 2
 778 68 l 2
 983 68 1036 88 1116 205 c 2
 1190 307 l 2
 1200 323 1206 330 1210 330 c 0
 1212 330 1215 330 1225 326 c 2
 1245 317 l 2
 1261 311 1266 307 1266 299 c 0
 1266 293 1266 293 1262 281 c 2
 1257 266 l 1
 1196 39 l 2
 1184 -6 1180 -10 1157 -10 c 2
 1083 -8 l 2
 1013 -6 754 0 686 0 c 0
 631 0 569 0 481 -2 c 2
 258 -6 l 1
 133 -8 l 2
 117 -10 102 -10 96 -10 c 0
 76 -10 68 -6 68 6 c 0
 68 14 72 23 80 31 c 2
 88 39 l 1
690 1733 m 1
 952 1903 l 2
 962 1909 969 1913 975 1913 c 0
 977 1913 983 1909 989 1903 c 2
 1012 1876 l 2
 1018 1872 1020 1866 1020 1864 c 0
 1020 1860 1016 1851 1006 1843 c 2
 803 1634 l 2
 727 1558 717 1552 684 1552 c 0
 651 1552 637 1562 567 1634 c 2
 365 1841 l 2
 357 1849 352 1858 352 1862 c 0
 352 1864 356 1872 360 1876 c 2
 385 1903 l 2
 391 1909 397 1913 399 1913 c 0
 401 1913 410 1909 420 1901 c 2
 690 1733 l 1
EndSplineSet
EndChar

StartChar: Thorn
Encoding: 222 222 60
Width: 1208
GlyphClass: 2
Flags: HMW
HStem: -12 66<56 152> 334 68 1096 68 1358 66<63 75 58 80>
VStem: 252 180<238 936 1163 1169 1169 1221> 924 207<667 775 667 829>
LayerCount: 2
Fore
SplineSet
432 1163 m 1
 532 1165 l 2
 739 1165 869 1126 975 1032 c 0
 1069 952 1130 827 1130 723 c 0
 1130 610 1053 476 944 406 c 0
 866 355 799 338 647 334 c 2
 618 334 l 2
 583 332 567 342 567 360 c 2
 567 377 l 2
 567 400 573 403 602 401 c 0
 659 397 725 411 776 438 c 0
 872 487 924 584 924 715 c 0
 924 944 780 1096 559 1096 c 0
 450 1096 432 1071 432 936 c 2
 432 238 l 2
 432 84 446 65 573 55 c 0
 643 51 643 52 643 27 c 2
 643 8 l 2
 643 -6 634 -12 616 -12 c 0
 600 -12 549 -10 496 -6 c 0
 453 -2 399 0 348 0 c 0
 280 0 229 -2 178 -6 c 0
 131 -10 82 -12 66 -12 c 0
 48 -12 41 -7 41 18 c 2
 41 25 l 2
 41 52 43 51 125 53 c 0
 178 53 220 69 236 94 c 0
 250 119 252 138 252 238 c 2
 252 1169 l 2
 252 1271 245 1307 227 1325 c 0
 204 1348 156 1360 80 1358 c 0
 47 1358 41 1361 41 1386 c 2
 41 1403 l 2
 41 1417 50 1423 68 1423 c 0
 82 1423 131 1419 182 1417 c 0
 225 1413 277 1411 326 1411 c 0
 389 1411 441 1413 492 1417 c 0
 545 1421 598 1423 614 1423 c 0
 634 1423 643 1417 643 1403 c 2
 643 1386 l 2
 643 1359 643 1360 565 1358 c 0
 489 1354 477 1351 461 1337 c 0
 443 1321 432 1294 432 1247 c 2
 432 1163 l 1
EndSplineSet
EndChar

StartChar: Ydieresis
Encoding: 376 376 61
Width: 1472
GlyphClass: 2
Flags: HW
HStem: -10 68<461 552 1034 1040> 1356 66<34 50 34 95> 1620 225<522 584 522 584 963 1023>
VStem: 440 225<1703 1763 1701 1764> 664 184<270 592 592 630> 881 225<1703 1763 1701 1764>
LayerCount: 2
Fore
SplineSet
848 698 m 1xec
 848 270 l 2
 848 145 854 113 879 88 c 0
 908 61 927 57 1040 57 c 0
 1063 55 1071 49 1071 29 c 2
 1071 14 l 2
 1071 -4 1062 -10 1042 -10 c 0
 1026 -10 1006 -10 979 -8 c 0
 936 -4 795 0 756 0 c 0
 717 0 573 -4 532 -8 c 0
 505 -10 487 -10 471 -10 c 0
 451 -10 442 -4 442 14 c 2
 442 29 l 2
 442 56 442 55 518 57 c 0
 586 57 625 71 645 102 c 0
 659 127 664 166 664 270 c 2
 664 592 l 2
 664 668 659 680 618 737 c 2
 240 1255 l 2
 174 1343 152 1356 39 1356 c 0
 23 1356 18 1360 18 1378 c 2
 18 1399 l 2
 18 1415 25 1421 43 1421 c 0
 57 1421 74 1421 92 1419 c 0
 160 1415 275 1411 322 1411 c 0
 383 1411 389 1411 539 1419 c 0
 555 1421 574 1421 586 1421 c 0
 604 1421 610 1415 610 1397 c 2
 610 1378 l 2
 610 1353 606 1352 563 1352 c 0
 477 1354 432 1342 432 1317 c 0
 432 1307 436 1299 459 1268 c 2
 479 1239 l 1
 727 893 l 2
 756 854 784 820 809 793 c 1
 846 832 872 869 948 971 c 2
 1055 1118 l 2
 1135 1227 1165 1282 1165 1313 c 0
 1165 1344 1133 1356 1051 1356 c 0
 988 1356 987 1355 987 1378 c 2
 987 1395 l 2
 987 1415 994 1421 1012 1421 c 2
 1063 1419 l 2
 1100 1415 1202 1411 1231 1411 c 0
 1260 1411 1345 1415 1382 1419 c 2
 1432 1421 l 2
 1446 1421 1452 1415 1452 1401 c 2
 1452 1376 l 2
 1452 1356 1450 1354 1405 1354 c 0
 1331 1354 1306 1333 1214 1206 c 2
 848 698 l 1xec
553 1845 m 0
 614 1845 666 1794 666 1733 c 0
 666 1670 614 1620 553 1620 c 0
 490 1620 440 1672 440 1735 c 0xf4
 440 1794 492 1845 553 1845 c 0
993 1845 m 0
 1054 1845 1106 1794 1106 1733 c 0
 1106 1670 1054 1620 991 1620 c 0
 930 1620 881 1672 881 1735 c 0
 881 1794 932 1845 993 1845 c 0
EndSplineSet
EndChar

StartChar: a
Encoding: 97 97 62
Width: 868
GlyphClass: 2
Flags: HW
HStem: -41 102<212 368> -41 131<734 741> 766 131<341 428>
VStem: 80 166<170 229> 104 131<621 712> 551 141<201 240 240 414 414 414 473 539 539 555> 829 37<135 150>
LayerCount: 2
Fore
SplineSet
829 150 m 1x6e
 866 135 l 1
 835 10 784 -41 698 -41 c 0x6e
 608 -41 555 24 555 137 c 1
 391 -17 348 -41 258 -41 c 0
 166 -41 80 71 80 188 c 0xb6
 80 270 125 303 340 389 c 2
 551 473 l 1
 551 578 l 2
 551 662 543 692 516 723 c 0
 491 750 444 766 387 766 c 0
 295 766 236 735 236 688 c 0
 236 676 238 668 244 645 c 1
 117 573 l 1
 107 600 104 613 104 629 c 0
 104 690 143 735 258 801 c 2
 428 897 l 1
 641 891 700 815 692 555 c 1
 692 539 l 1
 692 240 l 1
 692 201 l 2
 692 125 713 90 756 90 c 0
 787 90 802 103 829 150 c 1x6e
551 414 m 1
 395 344 l 2
 272 289 246 264 246 209 c 0
 246 131 289 61 340 61 c 0xb6
 395 61 431 84 535 184 c 0
 539 190 545 197 551 201 c 2
 551 414 l 1
EndSplineSet
Substitution2: "smcpLowercasetoSmallCapitalslookup subtable" a.smcp
EndChar

StartChar: b
Encoding: 98 98 63
Width: 1095
GlyphClass: 2
Flags: HMW
HStem: -41 74<536 659 536 679> 795 102<581 627>
VStem: 172 156<286 358 358 715 772 1223 1223 1293> 854 166<326 525>
LayerCount: 2
Fore
SplineSet
328 1370 m 1
 328 772 l 1
 457 866 531 897 631 897 c 0
 848 897 1020 705 1020 461 c 0
 1020 191 805 -41 553 -41 c 0
 490 -41 442 -31 383 -2 c 0
 324 27 314 31 289 31 c 0
 256 31 252 29 219 -16 c 2
 209 -31 l 1
 168 -31 l 1
 172 39 172 78 172 129 c 2
 172 1223 l 2
 172 1364 170 1368 66 1423 c 1
 61 1450 l 1
 197 1516 l 2
 260 1545 278 1555 317 1575 c 1
 332 1571 l 1
 330 1534 l 1
 328 1370 l 1
328 715 m 1
 328 358 l 2
 328 213 334 186 379 127 c 0
 426 68 495 33 575 33 c 0
 743 33 854 185 854 414 c 0
 854 637 720 795 532 795 c 0
 452 795 387 768 328 715 c 1
EndSplineSet
Substitution2: "smcpLowercasetoSmallCapitalslookup subtable" b.smcp
EndChar

StartChar: c
Encoding: 99 99 64
Width: 868
GlyphClass: 2
Flags: HMW
HStem: -41 131<437 521> 829 68<402 495>
VStem: 63 152<380 530>
LayerCount: 2
Fore
SplineSet
799 252 m 1
 829 209 l 1
 690 21 598 -41 444 -41 c 0
 229 -41 63 145 63 391 c 0
 63 670 274 897 530 897 c 0
 675 897 797 821 797 729 c 0
 797 684 760 649 715 649 c 0
 674 649 668 655 602 743 c 0
 553 809 522 829 467 829 c 0
 332 829 215 672 215 494 c 0
 215 267 350 90 524 90 c 0
 626 90 680 121 799 252 c 1
EndSplineSet
Substitution2: "smcpLowercasetoSmallCapitalslookup subtable" c.smcp
EndChar

StartChar: d
Encoding: 100 100 65
Width: 1056
GlyphClass: 2
Flags: HMW
HStem: -41 117<443 485> 829 68<471 552>
VStem: 68 166<350 505 350 525> 754 156<115 272 193 272 272 553 553 599 854 1223 1223 1245>
LayerCount: 2
Fore
SplineSet
754 854 m 1
 754 1223 l 2
 754 1364 751 1368 647 1423 c 1
 643 1450 l 1
 778 1516 l 2
 846 1547 850 1548 899 1575 c 1
 913 1571 l 1
 911 1538 911 1429 909 1245 c 2
 909 272 l 2
 909 112 911 102 952 102 c 0
 970 102 979 105 1038 119 c 1
 1042 111 1042 104 1042 94 c 0
 1042 80 1042 76 1038 66 c 2
 756 -41 l 1
 748 -8 l 1
 754 115 l 1
 607 -8 536 -41 434 -41 c 0
 231 -41 68 147 68 383 c 0
 68 668 283 897 551 897 c 0
 614 897 664 887 754 854 c 1
754 188 m 1
 754 553 l 2
 754 645 744 684 707 733 c 0
 662 794 592 829 512 829 c 0
 430 829 362 794 317 731 c 0
 264 657 233 553 233 457 c 0
 233 244 362 76 524 76 c 0
 608 76 678 110 754 188 c 1
EndSplineSet
Substitution2: "smcpLowercasetoSmallCapitalslookup subtable" d.smcp
EndChar

StartChar: e
Encoding: 101 101 66
Width: 868
GlyphClass: 2
Flags: HMW
HStem: -41 131<450 515> 530 47<231 231 231 801 221 231> 831 66<425 510>
VStem: 63 152<356 449> 633 168<530 710>
LayerCount: 2
Fore
SplineSet
801 530 m 1
 221 530 l 1
 217 491 215 476 215 453 c 0
 215 260 365 90 535 90 c 0
 613 90 674 123 768 209 c 1
 803 182 l 1
 701 30 585 -41 444 -41 c 0
 231 -41 63 147 63 389 c 0
 63 508 104 633 178 731 c 0
 258 840 364 897 485 897 c 0
 600 897 701 844 756 756 c 0
 789 703 801 649 801 561 c 2
 801 530 l 1
231 578 m 1
 498 584 l 2
 576 586 588 588 608 602 c 0
 622 616 633 639 633 664 c 0
 633 756 557 831 463 831 c 0
 352 831 268 740 231 578 c 1
EndSplineSet
Substitution2: "smcpLowercasetoSmallCapitalslookup subtable" e.smcp
EndChar

StartChar: f
Encoding: 102 102 67
Width: 643
GlyphClass: 2
Flags: HMW
HStem: -14 59<82 82 512 512> 778 92<71 217 90 217 373 565> 1475 100<476 486>
VStem: 217 156<147 778 272 778 272 778 870 1008 1008 1174>
LayerCount: 2
Fore
SplineSet
373 778 m 1
 373 272 l 1
 375 133 l 2
 377 65 403 49 514 45 c 0
 539 43 547 39 547 25 c 2
 547 10 l 2
 547 -10 541 -14 512 -14 c 0
 485 -14 442 -12 401 -8 c 0
 356 -2 322 0 297 0 c 0
 272 0 235 -2 188 -6 c 0
 133 -12 107 -14 82 -14 c 0
 53 -14 49 -10 49 10 c 2
 49 25 l 2
 49 39 55 43 82 45 c 0
 164 49 193 59 209 90 c 0
 213 102 215 116 217 147 c 2
 217 272 l 1
 217 778 l 1
 90 778 l 2
 51 778 49 780 49 803 c 2
 49 846 l 2
 49 869 51 870 90 870 c 2
 217 870 l 1
 217 1008 l 2
 217 1340 369 1575 584 1575 c 0
 658 1575 707 1542 707 1491 c 0
 707 1446 676 1407 639 1407 c 0
 621 1407 612 1411 567 1438 c 0
 524 1463 498 1475 475 1475 c 0
 434 1475 403 1448 389 1393 c 0
 375 1348 373 1329 373 1206 c 2
 373 870 l 1
 565 870 l 2
 616 870 616 871 616 846 c 2
 616 803 l 2
 616 778 616 778 565 778 c 2
 373 778 l 1
EndSplineSet
Substitution2: "smcpLowercasetoSmallCapitalslookup subtable" f.smcp
EndChar

StartChar: g
Encoding: 103 103 68
Width: 944
GlyphClass: 2
Flags: HW
HStem: -549 68<411 571 411 588> -72 152<610 643> 295 55<377 417> 723 92<764 874 764 874 743 874> 844 53<359 459 339 468>
VStem: 80 139<-281 -225> 84 152<549 667> 106 143<68 184> 610 152<562 643 562 654> 772 135<-285 -190>
LayerCount: 2
Fore
SplineSet
111 164 m 1xf9c0
 305 309 l 1
 164 356 84 457 84 586 c 0xfac0
 84 748 250 897 428 897 c 0
 489 897 582 873 641 842 c 0
 692 815 692 815 764 815 c 2
 874 815 l 2
 927 815 928 815 928 788 c 2
 928 758 l 2
 928 725 925 723 874 723 c 2
 743 723 l 1
 757 682 762 662 762 625 c 0
 762 500 692 393 571 334 c 0
 510 303 463 295 371 295 c 1
 287 256 250 213 250 156 c 0xf9c0
 250 103 314 68 412 68 c 0
 424 68 441 68 457 70 c 0
 541 76 606 80 614 80 c 0
 692 80 774 51 829 2 c 0
 882 -41 907 -100 907 -180 c 0
 907 -389 715 -549 461 -549 c 0
 316 -549 182 -498 123 -422 c 0
 90 -375 80 -336 80 -225 c 1xfcc0
 287 -78 l 1
 168 -53 106 15 106 121 c 0
 106 137 107 146 111 164 c 1xf9c0
414 844 m 0
 305 844 236 758 236 627 c 0
 236 471 321 350 432 350 c 0
 532 350 610 451 610 582 c 0
 610 727 523 844 414 844 c 0
365 -82 m 1
 309 -121 l 2
 237 -170 219 -197 219 -254 c 0xfcc0
 219 -383 333 -481 487 -481 c 0
 655 -481 772 -385 772 -246 c 0
 772 -135 703 -72 584 -72 c 0
 561 -72 524 -74 483 -76 c 0
 442 -80 396 -82 365 -82 c 1
EndSplineSet
Substitution2: "smcpLowercasetoSmallCapitalslookup subtable" g.smcp
EndChar

StartChar: h
Encoding: 104 104 69
Width: 1132
GlyphClass: 2
Flags: HMW
HStem: -14 59<75 125> 778 119<658 665>
VStem: 215 156<272 670 272 733 733 1223 1223 1255> 801 156<186 272 186 272 272 551 551 594>
LayerCount: 2
Fore
SplineSet
371 670 m 1
 371 272 l 1
 373 119 l 2
 375 72 403 53 483 45 c 0
 508 43 516 39 516 25 c 2
 516 10 l 2
 516 -8 509 -14 489 -14 c 0
 479 -14 463 -12 408 -8 c 0
 361 -2 322 0 293 0 c 0
 262 0 225 -2 180 -6 c 0
 125 -12 104 -14 86 -14 c 0
 63 -14 57 -8 57 10 c 2
 57 25 l 2
 57 41 65 43 102 45 c 0
 147 45 191 64 203 84 c 0
 215 102 215 114 215 272 c 2
 215 1223 l 2
 215 1364 213 1368 109 1423 c 1
 104 1450 l 1
 240 1516 l 2
 303 1547 319 1552 360 1575 c 1
 375 1571 l 1
 373 1536 373 1431 371 1255 c 2
 371 733 l 1
 549 870 602 897 715 897 c 0
 793 897 860 868 901 819 c 0
 942 770 956 711 956 600 c 2
 956 272 l 2
 956 100 957 92 977 74 c 0
 989 62 1028 47 1069 41 c 0
 1075 41 1081 33 1081 25 c 2
 1081 10 l 2
 1081 -6 1075 -14 1061 -14 c 0
 1059 -14 1055 -14 1049 -12 c 0
 1031 -10 901 0 874 0 c 0
 847 0 813 -2 764 -8 c 0
 707 -12 692 -14 680 -14 c 0
 662 -14 655 -8 655 10 c 2
 655 25 l 2
 655 39 661 41 688 45 c 0
 754 51 781 65 793 92 c 0
 797 102 799 119 801 150 c 2
 801 272 l 1
 801 551 l 2
 801 637 794 674 776 707 c 0
 751 752 699 778 631 778 c 0
 539 778 459 746 371 670 c 1
EndSplineSet
Substitution2: "smcpLowercasetoSmallCapitalslookup subtable" h.smcp
EndChar

StartChar: i
Encoding: 105 105 70
Width: 565
GlyphClass: 2
Flags: HW
HStem: -14 59 860 41G<358 358> 1272 229<253 316>
VStem: 170 229<1356 1418 1355 1419> 213 158<103 272 103 547>
LayerCount: 2
Fore
SplineSet
106 748 m 1xe8
 102 774 l 1
 238 840 l 2
 316 877 323 881 358 901 c 1
 373 895 l 1
 371 838 l 1
 371 739 l 1
 369 584 l 1
 369 272 l 1
 371 133 l 2
 371 74 393 55 481 45 c 0
 506 43 514 39 514 25 c 2
 514 10 l 2
 514 -8 508 -14 492 -14 c 0
 482 -14 481 -14 418 -8 c 0
 375 -2 330 0 285 0 c 0
 226 0 207 -2 111 -12 c 0
 103 -14 90 -14 82 -14 c 0
 64 -14 57 -8 57 10 c 2
 57 25 l 2
 57 39 63 43 90 45 c 0
 158 49 195 63 205 92 c 0
 209 102 211 119 213 150 c 2
 213 272 l 1
 213 547 l 2
 213 688 208 695 106 748 c 1xe8
285 1501 m 0
 348 1501 399 1449 399 1386 c 0
 399 1323 348 1272 285 1272 c 0
 222 1272 170 1323 170 1389 c 0xf0
 170 1450 222 1501 285 1501 c 0
EndSplineSet
Substitution2: "smcpLowercasetoSmallCapitalslookup subtable" i.smcp
EndChar

StartChar: j
Encoding: 106 106 71
Width: 528
GlyphClass: 2
Flags: HW
HStem: 860 41G<332 332> 1272 229<224 288>
VStem: 141 229<1356 1418 1355 1419> 186 156<-25 98 98 547 547 617>
LayerCount: 2
Fore
SplineSet
80 748 m 1xd0
 76 774 l 1
 211 840 l 2
 289 877 295 878 332 901 c 1
 346 895 l 1
 344 870 344 786 342 645 c 2
 342 98 l 2
 342 -162 317 -252 221 -358 c 0
 174 -411 157 -426 57 -504 c 0
 41 -518 26 -529 16 -537 c 1
 -12 -483 l 1
 172 -305 186 -275 186 -25 c 2
 186 547 l 2
 186 688 182 695 80 748 c 1xd0
256 1501 m 0
 319 1501 371 1449 371 1386 c 0
 371 1323 319 1272 256 1272 c 0
 193 1272 141 1323 141 1389 c 0xe0
 141 1450 193 1501 256 1501 c 0
EndSplineSet
Substitution2: "smcpLowercasetoSmallCapitalslookup subtable" j.smcp
EndChar

StartChar: k
Encoding: 107 107 72
Width: 1132
GlyphClass: 2
Flags: HMW
HStem: -14 59<633 685> 813 61<567 571>
VStem: 205 156<272 403 473 1223 1223 1293>
LayerCount: 2
Fore
SplineSet
473 483 m 1
 360 403 l 1
 360 272 l 2
 360 114 361 102 373 84 c 0
 385 64 426 47 473 45 c 0
 498 43 506 39 506 25 c 2
 506 10 l 2
 506 -8 499 -14 479 -14 c 0
 469 -14 452 -12 395 -8 c 0
 350 -2 312 0 283 0 c 0
 254 0 217 -2 168 -8 c 0
 107 -14 96 -14 84 -14 c 0
 66 -14 59 -8 59 10 c 2
 59 25 l 2
 59 39 65 43 92 45 c 0
 141 49 185 66 193 84 c 0
 201 96 203 106 203 133 c 2
 205 272 l 1
 205 1223 l 2
 205 1364 202 1368 98 1423 c 1
 94 1450 l 1
 229 1516 l 2
 290 1545 297 1547 322 1561 c 0
 332 1565 342 1571 350 1575 c 2
 365 1571 l 1
 362 1516 l 1
 360 1296 l 1
 360 473 l 1
 444 534 516 594 600 670 c 0
 672 736 684 751 684 776 c 0
 684 803 657 811 571 813 c 0
 559 813 555 819 555 831 c 2
 555 852 l 2
 555 870 559 874 575 874 c 0
 577 874 588 874 594 872 c 0
 666 866 725 862 772 862 c 0
 825 862 828 862 963 872 c 0
 971 874 983 874 989 874 c 0
 1005 874 1010 870 1010 856 c 2
 1010 831 l 2
 1010 815 1004 811 963 813 c 0
 867 811 843 798 741 698 c 0
 690 655 641 614 596 575 c 1
 909 174 l 2
 993 68 1016 51 1071 47 c 0
 1102 47 1106 43 1106 27 c 2
 1106 8 l 2
 1106 -10 1102 -14 1079 -14 c 0
 1067 -14 1067 -14 977 -4 c 0
 942 0 915 0 901 0 c 0
 758 -8 657 -14 639 -14 c 0
 627 -14 621 -8 621 8 c 2
 621 27 l 2
 621 45 624 47 657 45 c 0
 712 45 754 65 754 98 c 0
 754 125 746 139 676 227 c 2
 473 483 l 1
EndSplineSet
Substitution2: "smcpLowercasetoSmallCapitalslookup subtable" k.smcp
EndChar

StartChar: l
Encoding: 108 108 73
Width: 565
GlyphClass: 2
Flags: HMW
HStem: -14 59<71 121>
VStem: 211 156<272 1223 1223 1255 272 1292>
LayerCount: 2
Fore
SplineSet
356 1575 m 1
 371 1569 l 1
 369 1536 369 1429 367 1255 c 2
 367 272 l 1
 369 119 l 2
 371 72 399 53 479 45 c 0
 504 43 512 39 512 25 c 2
 512 10 l 2
 512 -8 505 -14 487 -14 c 0
 475 -14 458 -12 403 -8 c 0
 356 -2 318 0 289 0 c 0
 258 0 221 -2 176 -6 c 0
 121 -12 100 -14 82 -14 c 0
 59 -14 53 -8 53 10 c 2
 53 25 l 2
 53 41 61 43 98 45 c 0
 143 45 187 64 199 84 c 0
 211 102 211 114 211 272 c 2
 211 1223 l 2
 211 1362 208 1368 104 1421 c 1
 100 1450 l 1
 236 1513 l 2
 299 1544 315 1552 356 1575 c 1
EndSplineSet
Substitution2: "smcpLowercasetoSmallCapitalslookup subtable" l.smcp
EndChar

StartChar: m
Encoding: 109 109 74
Width: 1699
GlyphClass: 2
Flags: HMW
HStem: -14 59 780 117<552 754>
VStem: 205 154<150 272 272 553 553 624> 786 154<272 528 528 585> 1366 154<272 580 580 590 272 618>
LayerCount: 2
Fore
SplineSet
940 653 m 1
 940 272 l 1
 942 119 l 2
 944 74 971 55 1049 45 c 0
 1076 43 1081 39 1081 25 c 2
 1081 10 l 2
 1081 -8 1075 -14 1059 -14 c 0
 1049 -14 1049 -14 975 -8 c 0
 928 -2 889 0 864 0 c 0
 835 0 745 -6 694 -12 c 0
 686 -14 678 -14 672 -14 c 0
 658 -14 651 -8 651 10 c 2
 651 25 l 2
 651 39 657 41 684 45 c 0
 727 51 768 68 774 84 c 0
 782 96 784 106 784 133 c 2
 786 272 l 1
 786 528 l 2
 786 641 784 653 764 688 c 0
 733 745 666 780 592 780 c 0
 512 780 440 746 358 670 c 1
 358 272 l 1
 358 133 l 2
 360 76 375 63 457 45 c 0
 486 41 489 39 489 25 c 2
 489 10 l 2
 489 -8 483 -14 469 -14 c 0
 467 -14 459 -14 453 -12 c 0
 424 -8 308 0 281 0 c 0
 246 0 232 -2 113 -12 c 0
 103 -14 92 -14 86 -14 c 0
 68 -14 63 -8 63 10 c 2
 63 25 l 2
 63 39 67 41 92 45 c 0
 158 51 187 65 197 92 c 0
 201 102 203 119 205 150 c 2
 205 272 l 1
 205 553 l 2
 205 694 202 699 98 754 c 1
 94 780 l 1
 229 846 l 2
 297 877 301 879 324 891 c 2
 350 905 l 1
 360 901 l 1
 360 735 l 1
 495 848 598 897 700 897 c 0
 806 897 889 834 928 717 c 1
 1102 862 1170 897 1274 897 c 0
 1358 897 1432 860 1473 801 c 0
 1506 754 1520 690 1520 590 c 2
 1520 272 l 1
 1522 119 l 2
 1524 72 1552 53 1630 45 c 0
 1655 43 1663 39 1663 25 c 2
 1663 10 l 2
 1663 -8 1656 -14 1638 -14 c 0
 1628 -14 1615 -14 1554 -8 c 0
 1507 -2 1471 0 1444 0 c 0
 1415 0 1323 -6 1274 -12 c 0
 1266 -14 1257 -14 1251 -14 c 0
 1237 -14 1231 -8 1231 10 c 2
 1231 25 l 2
 1231 39 1237 41 1264 45 c 0
 1309 51 1348 68 1354 84 c 0
 1362 96 1364 106 1364 133 c 2
 1366 272 l 1
 1366 580 l 2
 1366 658 1361 676 1343 705 c 0
 1310 750 1253 778 1192 778 c 0
 1108 778 1030 739 940 653 c 1
EndSplineSet
Substitution2: "smcpLowercasetoSmallCapitalslookup subtable" m.smcp
EndChar

StartChar: n
Encoding: 110 110 75
Width: 1132
GlyphClass: 2
Flags: HMW
HStem: -14 59 780 117<645 650>
VStem: 201 156<272 553 553 624> 784 156<272 549 549 580 272 597>
LayerCount: 2
Fore
SplineSet
356 668 m 1
 356 272 l 2
 356 114 357 104 369 84 c 0
 381 64 422 47 469 45 c 0
 494 43 500 39 500 25 c 2
 500 10 l 2
 500 -8 495 -14 475 -14 c 0
 465 -14 450 -12 391 -8 c 0
 344 -2 308 0 279 0 c 0
 250 0 213 -2 164 -8 c 0
 103 -14 92 -14 80 -14 c 0
 62 -14 55 -8 55 10 c 2
 55 25 l 2
 55 39 61 43 88 45 c 0
 137 49 180 66 188 84 c 0
 196 96 199 106 199 133 c 2
 201 272 l 1
 201 553 l 2
 201 694 198 699 94 754 c 1
 90 780 l 1
 225 846 l 2
 288 875 292 877 317 891 c 2
 346 905 l 1
 356 901 l 1
 356 733 l 1
 530 866 594 897 696 897 c 0
 788 897 870 854 907 784 c 0
 932 737 940 689 940 580 c 2
 940 272 l 1
 942 133 l 2
 942 74 965 55 1053 45 c 0
 1080 43 1085 39 1085 25 c 2
 1085 10 l 2
 1085 -8 1079 -14 1059 -14 c 0
 1049 -14 1032 -12 977 -8 c 0
 930 -2 891 0 864 0 c 0
 835 0 797 -2 750 -8 c 0
 687 -14 676 -14 664 -14 c 0
 648 -14 641 -8 641 10 c 2
 641 25 l 2
 641 39 647 43 672 45 c 0
 721 47 764 66 772 84 c 0
 780 96 782 106 782 133 c 2
 784 272 l 1
 784 549 l 2
 784 645 780 672 764 705 c 0
 739 752 684 780 616 780 c 0
 522 780 428 740 356 668 c 1
EndSplineSet
Substitution2: "smcpLowercasetoSmallCapitalslookup subtable" n.smcp
EndChar

StartChar: o
Encoding: 111 111 76
Width: 1095
GlyphClass: 2
Flags: HMW
HStem: -41 68<474 649 474 663> 829 68<480 621>
VStem: 74 180<332 505 332 550> 840 180<303 523>
LayerCount: 2
Fore
SplineSet
561 897 m 0
 815 897 1020 690 1020 436 c 0
 1020 170 800 -41 524 -41 c 0
 266 -41 74 156 74 420 c 0
 74 680 297 897 561 897 c 0
526 829 m 0
 434 829 363 793 322 725 c 0
 281 659 254 553 254 457 c 0
 254 207 383 27 565 27 c 0
 733 27 840 168 840 391 c 0
 840 655 714 829 526 829 c 0
EndSplineSet
Substitution2: "smcpLowercasetoSmallCapitalslookup subtable" o.smcp
EndChar

StartChar: p
Encoding: 112 112 77
Width: 1095
GlyphClass: 2
Flags: HMW
HStem: -553 59 -41 90<489 617> 764 133<620 623>
VStem: 170 156<-266 -23 193 240 240 553 553 624> 842 166<329 504>
LayerCount: 2
Fore
SplineSet
326 -23 m 1
 326 -266 l 1
 328 -406 l 2
 330 -478 354 -490 487 -494 c 0
 512 -496 520 -500 520 -514 c 2
 520 -528 l 2
 520 -548 514 -553 483 -553 c 0
 454 -553 409 -551 362 -545 c 0
 313 -541 275 -539 244 -539 c 0
 211 -539 174 -541 133 -545 c 0
 78 -553 72 -553 47 -553 c 0
 24 -553 20 -548 20 -528 c 2
 20 -514 l 2
 20 -500 26 -496 51 -494 c 0
 106 -492 150 -475 158 -455 c 0
 166 -443 168 -433 168 -406 c 2
 170 -266 l 1
 170 553 l 2
 170 694 167 697 63 754 c 1
 59 780 l 1
 195 846 l 2
 222 856 243 867 266 879 c 0
 282 889 299 897 315 905 c 1
 326 901 l 1
 326 762 l 1
 461 834 l 2
 545 877 600 897 639 897 c 0
 834 897 1008 694 1008 465 c 0
 1008 193 762 -41 473 -41 c 0
 428 -41 387 -35 326 -23 c 1
326 698 m 1
 326 240 l 2
 326 146 325 142 352 113 c 0
 385 74 452 49 526 49 c 0
 719 49 842 184 842 395 c 0
 842 612 714 764 530 764 c 0
 454 764 396 745 326 698 c 1
EndSplineSet
Substitution2: "smcpLowercasetoSmallCapitalslookup subtable" p.smcp
EndChar

StartChar: q
Encoding: 113 113 78
Width: 1056
GlyphClass: 2
Flags: HMW
HStem: -553 59<1032 1032> -41 100<473 531> 819 78<455 571>
VStem: 80 180<333 522> 758 156<-391 621 -266 61 61 61 125 541 541 599>
LayerCount: 2
Fore
SplineSet
868 903 m 1
 891 901 l 2
 918 899 922 897 922 883 c 0
 922 879 922 872 920 866 c 0
 916 821 913 748 913 621 c 2
 913 -266 l 1
 915 -420 l 2
 919 -469 946 -486 1030 -494 c 0
 1057 -496 1063 -500 1063 -514 c 2
 1063 -528 l 2
 1063 -548 1057 -553 1032 -553 c 0
 1016 -553 981 -551 950 -547 c 0
 899 -541 859 -539 836 -539 c 0
 816 -539 774 -541 721 -547 c 0
 678 -551 650 -553 623 -553 c 0
 586 -553 582 -551 582 -528 c 2
 582 -514 l 2
 582 -500 589 -496 614 -494 c 0
 702 -492 736 -480 750 -449 c 0
 754 -437 756 -422 758 -391 c 2
 758 -266 l 1
 758 61 l 1
 641 -19 579 -41 483 -41 c 0
 260 -41 80 147 80 385 c 0
 80 659 318 897 592 897 c 0
 647 897 670 893 774 864 c 0
 790 860 805 858 817 858 c 0
 837 858 848 866 868 903 c 1
758 125 m 1
 758 541 l 2
 758 658 752 686 715 735 c 0
 674 788 609 819 535 819 c 0
 375 819 260 664 260 449 c 0
 260 218 383 59 563 59 c 0
 631 59 662 70 758 125 c 1
EndSplineSet
Substitution2: "smcpLowercasetoSmallCapitalslookup subtable" q.smcp
EndChar

StartChar: r
Encoding: 114 114 79
Width: 792
GlyphClass: 2
Flags: HMW
HStem: -14 59 745 152<546 707>
VStem: 225 156<150 588 272 547 547 588 272 617>
LayerCount: 2
Fore
SplineSet
381 588 m 1
 381 272 l 1
 383 119 l 2
 389 66 416 49 518 45 c 0
 541 43 549 39 549 25 c 2
 549 10 l 2
 549 -10 545 -14 510 -14 c 0
 490 -14 461 -12 418 -8 c 0
 367 -2 328 0 303 0 c 0
 278 0 239 -2 190 -8 c 0
 147 -12 122 -14 102 -14 c 0
 82 -14 76 -8 76 10 c 2
 76 25 l 2
 76 39 82 43 109 45 c 0
 175 49 207 63 217 92 c 0
 221 102 223 119 225 150 c 2
 225 272 l 1
 225 547 l 2
 225 688 221 695 119 748 c 1
 115 774 l 1
 250 840 l 2
 328 877 328 876 371 901 c 1
 385 895 l 1
 385 866 383 795 381 684 c 2
 381 659 l 1
 414 702 l 2
 520 847 588 897 676 897 c 0
 737 897 782 854 782 795 c 0
 782 746 747 709 698 709 c 0
 678 709 666 713 631 729 c 0
 604 741 587 745 571 745 c 0
 520 745 491 723 399 610 c 2
 381 588 l 1
EndSplineSet
Substitution2: "smcpLowercasetoSmallCapitalslookup subtable" r.smcp
EndChar

StartChar: s
Encoding: 115 115 80
Width: 718
GlyphClass: 2
Flags: HW
HStem: -41 66<290 389 290 420> 831 66<344 437>
VStem: 59 57<236 240> 92 135<666 720> 508 150<160 219> 578 49<645 645>
LayerCount: 2
Fore
SplineSet
639 831 m 1xd8
 627 645 l 1
 578 645 l 1
 539 778 485 831 389 831 c 0
 299 831 227 772 227 698 c 0xd4
 227 632 254 608 416 518 c 0
 600 416 657 351 657 240 c 0
 657 80 514 -41 326 -41 c 0
 230 -41 160 -20 72 33 c 1
 59 236 l 1
 117 240 l 1xe8
 156 103 238 25 342 25 c 0
 436 25 508 94 508 182 c 0
 508 256 458 305 315 383 c 0
 147 471 92 536 92 647 c 0
 92 792 221 897 399 897 c 0
 481 897 547 878 639 831 c 1xd8
EndSplineSet
Substitution2: "smcpLowercasetoSmallCapitalslookup subtable" s.smcp
EndChar

StartChar: t
Encoding: 116 116 81
Width: 679
GlyphClass: 2
Flags: HMW
HStem: -41 115<409 426> 776 92<309 557 309 557>
VStem: 154 156<255 301 301 655 655 715>
LayerCount: 2
Fore
SplineSet
23 776 m 1
 23 817 l 1
 53 842 l 1
 170 934 l 2
 180 942 221 979 297 1051 c 1
 320 1047 324 1044 324 1034 c 0
 324 1030 324 1022 322 1014 c 0
 320 1006 315 955 313 920 c 2
 309 868 l 1
 557 868 l 2
 592 868 594 867 594 836 c 2
 594 809 l 2
 594 778 590 776 557 776 c 2
 309 776 l 1
 309 301 l 2
 309 209 314 172 324 141 c 0
 340 102 385 74 432 74 c 0
 485 74 540 105 565 150 c 0
 579 175 580 174 584 174 c 0
 586 174 588 172 592 170 c 2
 614 150 l 1
 559 15 486 -41 367 -41 c 0
 301 -41 240 -18 203 23 c 0
 162 64 154 94 154 211 c 2
 154 655 l 2
 154 774 151 776 59 776 c 2
 23 776 l 1
EndSplineSet
Substitution2: "smcpLowercasetoSmallCapitalslookup subtable" t.smcp
EndChar

StartChar: u
Encoding: 117 117 82
Width: 1095
GlyphClass: 2
Flags: HMW
HStem: -41 131<496 509> 799 59 860 41G<322 322 903 903>
VStem: 188 156<291 344 344 645 645 672 672 707> 772 156<141 272 212 272 272 631 631 705>
LayerCount: 2
Fore
SplineSet
772 205 m 1
 772 631 l 2
 772 778 756 799 629 797 c 0
 615 797 610 801 610 817 c 2
 610 838 l 2
 610 850 614 854 643 856 c 0
 745 868 768 872 903 901 c 1
 930 891 l 1
 930 877 930 823 928 729 c 2
 928 272 l 2
 928 151 928 135 936 123 c 0
 942 109 955 102 973 102 c 0
 991 102 1000 105 1057 119 c 1
 1061 109 1061 104 1061 92 c 0
 1061 80 1061 74 1057 66 c 2
 776 -41 l 1
 766 -8 l 1
 772 141 l 1
 622 -6 564 -41 455 -41 c 0
 371 -41 287 -4 242 53 c 0
 201 106 188 162 188 291 c 2
 188 645 l 2
 188 768 164 801 68 799 c 0
 29 797 27 799 27 817 c 2
 27 838 l 2
 27 854 27 854 74 858 c 0
 121 864 195 876 322 901 c 1
 346 891 l 1
 346 856 l 1
 344 778 l 1
 344 672 l 1
 344 344 l 2
 344 231 348 205 371 168 c 0
 402 119 460 90 530 90 c 0
 620 90 698 127 772 205 c 1
EndSplineSet
Substitution2: "smcpLowercasetoSmallCapitalslookup subtable" u.smcp
EndChar

StartChar: v
Encoding: 118 118 83
Width: 1019
GlyphClass: 2
Flags: HMW
HStem: -37 43G<505 519> 815 59<652 653 981 988>
LayerCount: 2
Fore
SplineSet
563 217 m 1
 694 539 l 2
 745 658 766 723 766 754 c 0
 766 793 733 815 672 815 c 0
 633 815 633 815 633 838 c 2
 633 852 l 2
 633 870 635 874 649 874 c 0
 657 874 657 874 731 868 c 0
 778 864 811 862 817 862 c 0
 833 862 864 864 907 868 c 0
 946 872 975 874 987 874 c 0
 1001 874 1006 870 1006 852 c 2
 1006 836 l 2
 1006 818 1002 815 975 815 c 0
 897 811 874 786 817 649 c 2
 530 -29 l 2
 526 -35 522 -37 516 -37 c 0
 493 -37 486 -23 459 63 c 2
 444 102 l 1
 428 137 l 1
 182 700 l 2
 139 804 129 813 43 811 c 0
 16 811 14 814 14 834 c 2
 14 854 l 2
 14 870 19 874 39 874 c 0
 53 874 82 872 119 870 c 0
 180 864 225 862 252 862 c 0
 291 862 373 866 422 872 c 0
 432 874 443 874 449 874 c 0
 461 874 465 868 465 854 c 2
 465 834 l 2
 465 816 465 813 432 813 c 0
 366 813 334 801 334 776 c 0
 334 753 367 663 410 565 c 2
 563 217 l 1
EndSplineSet
Substitution2: "smcpLowercasetoSmallCapitalslookup subtable" v.smcp
EndChar

StartChar: w
Encoding: 119 119 84
Width: 1548
GlyphClass: 2
Flags: HMW
HStem: -37 43G<520 534 1014 1026> 817 57<36 43>
LayerCount: 2
Fore
SplineSet
1055 211 m 1
 1233 625 l 2
 1262 691 1278 742 1278 760 c 0
 1278 797 1251 809 1159 815 c 0
 1151 815 1147 819 1147 831 c 2
 1147 854 l 2
 1147 870 1153 874 1176 874 c 0
 1196 874 1227 872 1264 868 c 0
 1305 864 1336 862 1354 862 c 0
 1374 862 1403 864 1440 868 c 0
 1479 872 1495 874 1507 874 c 0
 1521 874 1526 870 1526 854 c 2
 1526 831 l 2
 1526 811 1525 811 1468 807 c 0
 1445 807 1403 779 1389 756 c 2
 1360 707 l 1
 1282 541 l 1
 1034 -31 l 2
 1030 -35 1028 -37 1024 -37 c 0
 1004 -37 996 -23 973 51 c 0
 971 59 954 100 944 127 c 2
 776 516 l 1
 543 -31 l 2
 539 -35 536 -37 530 -37 c 0
 510 -37 501 -25 481 45 c 2
 463 92 l 2
 459 104 452 117 446 127 c 2
 262 555 l 2
 186 727 162 775 137 795 c 0
 129 807 96 815 43 817 c 0
 27 817 23 822 23 834 c 2
 23 854 l 2
 23 868 29 874 43 874 c 0
 59 874 80 874 109 872 c 2
 197 870 l 1
 352 864 l 2
 420 862 482 862 545 862 c 0
 658 862 723 864 926 872 c 0
 940 874 959 874 963 874 c 0
 981 874 985 870 985 852 c 2
 985 834 l 2
 985 818 985 817 936 815 c 0
 856 813 836 807 836 778 c 0
 836 762 839 752 866 684 c 2
 1055 211 l 1
741 586 m 1
 682 715 l 2
 639 809 639 809 481 809 c 0
 385 809 348 799 348 770 c 0
 348 758 354 740 385 666 c 2
 569 203 l 1
 741 586 l 1
EndSplineSet
Substitution2: "smcpLowercasetoSmallCapitalslookup subtable" w.smcp
EndChar

StartChar: x
Encoding: 120 120 85
Width: 1019
GlyphClass: 2
Flags: HMW
HStem: -14 53<38 62> 811 63<42 74>
LayerCount: 2
Fore
SplineSet
434 418 m 1
 223 696 l 2
 168 772 167 772 147 788 c 0
 127 802 97 813 74 811 c 2
 49 809 l 2
 37 809 31 818 31 834 c 2
 31 852 l 2
 31 868 35 874 49 874 c 0
 55 874 55 874 131 868 c 0
 182 864 219 862 233 862 c 0
 239 862 314 866 455 874 c 0
 471 874 477 868 477 852 c 2
 477 831 l 2
 477 813 478 813 412 813 c 0
 379 811 358 800 358 782 c 0
 358 762 388 715 449 637 c 2
 530 530 l 1
 612 627 l 2
 669 697 707 753 707 776 c 0
 707 803 684 809 600 811 c 0
 588 811 588 813 588 831 c 2
 588 852 l 2
 588 870 592 874 610 874 c 0
 620 874 647 872 688 868 c 0
 729 864 760 862 776 862 c 0
 790 862 910 870 926 872 c 0
 934 874 944 874 948 874 c 0
 962 874 967 870 967 852 c 2
 967 831 l 2
 967 813 963 811 926 811 c 0
 854 807 833 793 737 678 c 2
 567 479 l 1
 821 133 l 2
 874 59 889 53 977 41 c 0
 985 41 985 39 985 25 c 2
 983 10 l 2
 981 -10 979 -14 963 -14 c 0
 951 -14 950 -14 856 -8 c 0
 797 -2 753 0 741 0 c 0
 725 0 694 -2 653 -8 c 0
 610 -12 584 -14 561 -14 c 0
 543 -14 537 -8 535 10 c 2
 535 27 l 1
 539 41 l 2
 543 43 547 45 551 45 c 2
 582 47 l 2
 633 51 657 63 657 86 c 0
 657 102 631 148 588 209 c 2
 469 371 l 1
 442 334 414 299 385 262 c 0
 326 188 283 115 283 90 c 0
 283 61 314 47 375 45 c 0
 404 43 410 41 410 25 c 2
 410 10 l 2
 410 -8 402 -14 379 -14 c 0
 367 -14 340 -12 301 -8 c 0
 260 -2 229 0 211 0 c 0
 191 0 164 -2 129 -8 c 0
 90 -12 71 -14 53 -14 c 0
 33 -14 31 -10 31 10 c 2
 31 27 l 2
 31 37 33 39 43 39 c 0
 123 51 142 63 236 176 c 2
 434 418 l 1
EndSplineSet
Substitution2: "smcpLowercasetoSmallCapitalslookup subtable" x.smcp
EndChar

StartChar: y
Encoding: 121 121 86
Width: 1095
GlyphClass: 2
Flags: HMW
HStem: -549 164<161 263> 809 66<37 46 30 102 471 475>
LayerCount: 2
Fore
SplineSet
578 182 m 1
 760 598 l 2
 799 686 817 736 817 752 c 0
 817 791 782 811 721 811 c 0
 686 809 680 813 680 829 c 2
 680 848 l 2
 680 871 682 874 709 874 c 0
 725 874 758 872 791 868 c 0
 828 864 856 862 874 862 c 0
 880 862 899 864 1034 872 c 0
 1044 874 1055 874 1059 874 c 0
 1071 874 1079 866 1079 848 c 2
 1079 829 l 2
 1079 811 1077 809 1030 807 c 0
 942 799 915 770 825 573 c 2
 514 -106 l 2
 453 -243 375 -393 328 -461 c 0
 291 -518 241 -549 186 -549 c 0
 135 -549 98 -512 98 -459 c 0
 98 -410 131 -367 168 -367 c 0
 178 -367 181 -367 201 -377 c 0
 217 -383 221 -385 229 -385 c 0
 297 -385 367 -295 451 -92 c 2
 487 -2 l 1
 215 680 l 2
 172 793 153 809 51 809 c 0
 22 809 16 813 16 829 c 2
 16 852 l 2
 16 870 21 874 39 874 c 0
 53 874 98 872 143 868 c 0
 194 864 237 862 260 862 c 0
 291 862 328 864 381 868 c 0
 438 872 463 874 479 874 c 0
 499 874 504 870 504 852 c 2
 504 829 l 2
 504 811 498 809 453 809 c 0
 387 811 358 799 358 770 c 0
 358 758 360 756 391 670 c 2
 578 182 l 1
EndSplineSet
Substitution2: "smcpLowercasetoSmallCapitalslookup subtable" y.smcp
EndChar

StartChar: z
Encoding: 122 122 87
Width: 944
GlyphClass: 2
Flags: HMW
HStem: -6 59<353 652> 805 57<370 611>
LayerCount: 2
Fore
SplineSet
55 -10 m 1
 55 16 l 1
 596 731 l 2
 604 741 627 768 629 770 c 0
 637 778 639 782 639 786 c 0
 639 802 612 805 467 805 c 0
 272 805 197 778 154 694 c 0
 140 669 137 666 129 666 c 0
 127 666 125 666 121 668 c 2
 96 672 l 2
 88 674 86 676 86 682 c 0
 86 686 88 690 90 698 c 0
 98 725 94 710 102 739 c 0
 112 768 121 794 127 821 c 0
 156 944 155 944 178 944 c 2
 199 944 l 1
 224 878 239 868 311 866 c 2
 420 864 l 2
 471 862 516 862 563 862 c 0
 659 862 733 864 868 870 c 1
 874 854 l 1
 369 172 l 2
 357 154 342 135 328 117 c 0
 305 92 301 84 301 74 c 0
 301 58 340 53 543 53 c 0
 762 53 779 59 838 172 c 2
 866 225 l 2
 878 245 883 252 891 252 c 0
 909 250 930 237 930 225 c 0
 930 219 930 219 918 184 c 2
 868 31 l 2
 854 -10 851 -14 831 -14 c 0
 823 -14 800 -14 782 -12 c 0
 749 -10 456 -6 399 -6 c 0
 307 -6 299 -6 55 -10 c 1
EndSplineSet
Substitution2: "smcpLowercasetoSmallCapitalslookup subtable" z.smcp
EndChar

StartChar: ae
Encoding: 230 230 88
Width: 1320
GlyphClass: 2
Flags: HW
HStem: -41 117<210 367> -41 131<893 962> 766 131<318 399> 829 68<912 952>
VStem: 63 166<176 228> 84 129<621 712> 522 158<190 465 414 465 465 578 465 620> 1030 184<657 759>
LayerCount: 2
Fore
SplineSet
1214 657 m 1x17
 680 465 l 1
 684 318 692 260 715 213 c 0
 756 129 831 90 954 90 c 0
 1065 90 1122 120 1206 229 c 1
 1253 207 l 1
 1165 31 1052 -41 870 -41 c 0x57
 712 -41 604 20 543 145 c 1
 422 6 345 -41 236 -41 c 0
 185 -41 150 -20 117 27 c 0
 84 76 63 135 63 188 c 0x8b
 63 268 121 313 311 389 c 2
 522 473 l 1
 522 578 l 2
 522 662 514 692 487 723 c 0
 462 750 415 766 362 766 c 0
 274 766 213 733 213 690 c 0
 213 676 215 668 223 645 c 1
 96 573 l 1
 86 600 84 613 84 629 c 0
 84 692 115 727 238 801 c 2
 399 897 l 1xa7
 567 895 645 833 659 694 c 1
 743 839 837 897 987 897 c 0
 1075 897 1145 872 1180 827 c 0
 1205 794 1212 751 1214 657 c 1x17
684 522 m 1
 852 588 l 2
 983 637 1030 676 1030 731 c 0
 1030 786 983 829 922 829 c 0
 877 829 827 809 788 774 c 0
 725 715 698 653 684 522 c 1
522 414 m 1
 367 344 l 2
 267 299 229 264 229 213 c 0
 229 139 283 76 342 76 c 0x8b
 391 76 467 124 522 190 c 1
 522 414 l 1
EndSplineSet
Substitution2: "smcpLowercasetoSmallCapitalslookup subtable" ae.smcp
EndChar

StartChar: oe
Encoding: 339 339 89
Width: 1548
GlyphClass: 2
Flags: HW
HStem: -41 70<434 560> -41 133<1156 1197> 530 47<952 952 952 1468 944 952> 829 68<400 548>
VStem: 74 160<340 539> 750 188<433 490 433 513> 1300 168
LayerCount: 2
Fore
SplineSet
1468 530 m 1xbe
 944 530 l 1
 938 507 938 499 938 481 c 0
 938 385 952 317 983 256 c 0
 1038 147 1112 92 1200 92 c 0
 1284 92 1357 131 1425 211 c 1
 1468 178 l 1
 1388 41 1263 -41 1130 -41 c 0x7e
 1040 -41 950 6 895 78 c 0
 885 94 879 102 852 143 c 1
 735 16 627 -41 494 -41 c 0
 265 -41 74 164 74 414 c 0
 74 664 285 897 514 897 c 0
 647 897 784 819 874 692 c 1
 966 833 1063 897 1180 897 c 0
 1278 897 1370 842 1423 756 c 0
 1456 701 1468 647 1468 561 c 2
 1468 530 l 1xbe
469 829 m 0
 332 829 233 672 233 457 c 0
 233 224 358 29 510 29 c 0xbe
 647 29 750 182 750 389 c 0
 750 637 627 829 469 829 c 0
952 578 m 1
 1165 584 l 2
 1247 586 1256 588 1276 602 c 0
 1292 616 1300 637 1300 664 c 0
 1300 746 1231 827 1163 827 c 0
 1071 827 987 728 952 578 c 1
EndSplineSet
Substitution2: "smcpLowercasetoSmallCapitalslookup subtable" oe.smcp
EndChar

StartChar: oslash
Encoding: 248 248 90
Width: 1095
GlyphClass: 2
Flags: HMW
HStem: -41 68<519 645 519 657> 829 68<479 571>
VStem: 78 180<412 505 412 548> 831 180<303 440>
LayerCount: 2
Fore
SplineSet
971 868 m 2
 879 762 l 1
 971 664 1012 563 1012 436 c 0
 1012 170 794 -41 520 -41 c 0
 418 -41 344 -18 262 41 c 1
 172 -63 l 2
 149 -90 143 -96 135 -96 c 0
 117 -96 84 -69 84 -53 c 0
 84 -49 84 -49 119 -8 c 2
 205 92 l 1
 123 180 78 293 78 416 c 0
 78 680 295 897 559 897 c 0
 655 897 735 870 819 811 c 1
 907 913 l 2
 946 956 946 956 950 956 c 0
 968 956 1004 927 1004 913 c 0
 1004 907 998 899 971 868 c 2
780 647 m 1
 348 141 l 1
 403 65 475 27 563 27 c 0
 727 27 831 166 831 391 c 0
 831 489 817 565 780 647 c 1
307 211 m 1
 741 719 l 1
 686 795 618 829 524 829 c 0
 434 829 363 793 324 725 c 0
 283 655 258 555 258 455 c 0
 258 369 274 285 307 211 c 1
EndSplineSet
Substitution2: "smcpLowercasetoSmallCapitalslookup subtable" oslash.smcp
EndChar

StartChar: germandbls
Encoding: 223 223 91
Width: 1132
GlyphClass: 2
Flags: HW
HStem: -31 55<791 849> -14 59 756 53 1499 78<632 683>
VStem: 207 156<193 272 193 272 272 592 592 667> 590 152<76 98 98 127 75 146> 598 129<741 894> 825 152<1265 1335> 938 129<188 237>
LayerCount: 2
Fore
SplineSet
362 995 m 2xbb
 362 272 l 2
 362 112 363 102 375 84 c 0
 383 68 428 47 459 45 c 0x7b
 488 41 492 39 492 25 c 2xbb
 492 10 l 2
 492 -8 485 -14 469 -14 c 0
 461 -14 460 -14 397 -8 c 0
 356 -2 318 0 287 0 c 0
 254 0 217 -2 170 -6 c 0
 113 -12 96 -14 80 -14 c 0x7b
 60 -14 53 -8 53 10 c 2
 53 25 l 2xbb
 53 39 61 43 86 45 c 0
 152 49 189 63 199 90 c 0
 203 102 205 119 207 150 c 2
 207 272 l 1
 207 592 l 2
 207 742 203 752 127 754 c 2
 86 756 l 2
 53 758 49 760 49 776 c 2
 49 791 l 2
 49 803 54 807 70 809 c 0
 160 838 197 897 209 1030 c 0
 229 1212 277 1333 367 1425 c 0
 455 1517 580 1577 684 1577 c 0
 850 1577 977 1463 977 1313 c 0
 977 1217 933 1132 827 1026 c 0
 745 942 727 913 727 874 c 0x7b
 727 825 764 768 870 647 c 0
 1026 473 1067 395 1067 274 c 0
 1067 102 942 -31 784 -31 c 0
 671 -31 590 33 590 119 c 0
 590 174 625 215 672 215 c 0
 713 215 743 187 743 152 c 0
 743 144 743 137 741 127 c 2
 741 98 l 2
 741 51 768 25 813 25 c 0
 885 25 938 96 938 190 c 0xbc80
 938 282 887 373 754 516 c 0
 627 651 598 702 598 780 c 0
 598 839 613 871 711 1008 c 0
 803 1139 825 1190 825 1266 c 0
 825 1405 744 1499 623 1499 c 0
 443 1499 362 1345 362 995 c 2xbb
EndSplineSet
Substitution2: "smcpLowercasetoSmallCapitalslookup subtable" germandbls.smcp
EndChar

StartChar: dotlessi
Encoding: 305 305 92
Width: 565
GlyphClass: 2
Flags: HMW
HStem: -14 59 860 41G<358 358>
VStem: 213 158<103 272 103 547>
LayerCount: 2
Fore
SplineSet
106 748 m 1
 102 774 l 1
 238 840 l 2
 316 877 323 881 358 901 c 1
 373 895 l 1
 371 838 l 1
 371 739 l 1
 369 584 l 1
 369 272 l 1
 371 133 l 2
 371 74 393 55 481 45 c 0
 506 43 514 39 514 25 c 2
 514 10 l 2
 514 -8 508 -14 492 -14 c 0
 482 -14 481 -14 418 -8 c 0
 375 -2 330 0 285 0 c 0
 226 0 207 -2 111 -12 c 0
 103 -14 90 -14 82 -14 c 0
 64 -14 57 -8 57 10 c 2
 57 25 l 2
 57 39 63 43 90 45 c 0
 158 49 195 63 205 92 c 0
 209 102 211 119 213 150 c 2
 213 272 l 1
 213 547 l 2
 213 688 208 695 106 748 c 1
EndSplineSet
EndChar

StartChar: fi
Encoding: 64257 64257 93
Width: 1138
GlyphClass: 2
Flags: HW
HStem: -14 59<84 84 514 514> 778 92<88 96 96 219 375 614> 860 41G<921 933> 1454 119<607 804>
VStem: 219 156<147 150 150 209 209 270 270 778> 791 156<160 211 211 270 112 270>
LayerCount: 2
Fore
SplineSet
375 778 m 1xdc
 375 270 l 1
 375 209 l 1
 375 150 l 2
 375 68 397 49 516 45 c 0
 541 43 549 39 549 25 c 2
 549 10 l 2
 549 -10 543 -14 514 -14 c 0
 487 -14 444 -12 403 -8 c 0
 358 -2 324 0 299 0 c 0
 274 0 237 -2 190 -6 c 0
 135 -12 109 -14 84 -14 c 0
 55 -14 51 -10 51 10 c 2
 51 25 l 2
 51 39 57 43 84 45 c 0
 166 49 195 59 211 90 c 0
 215 102 217 116 219 147 c 2
 219 270 l 1
 219 778 l 1
 96 778 l 2
 63 778 59 783 59 803 c 2
 59 846 l 2
 59 869 61 870 88 870 c 2
 221 870 l 1
 223 940 l 2
 227 1110 236 1159 281 1245 c 0
 369 1421 588 1573 754 1573 c 0
 854 1573 950 1506 950 1436 c 0
 950 1393 911 1356 864 1356 c 0
 829 1356 799 1370 756 1405 c 0
 709 1442 684 1454 649 1454 c 0
 565 1454 459 1380 418 1292 c 0
 377 1204 375 1183 375 870 c 1
 651 870 l 2xdc
 770 870 827 877 901 897 c 0
 909 899 918 901 924 901 c 0xbc
 942 901 946 887 946 838 c 2
 946 270 l 1
 946 211 l 1
 946 150 l 2
 946 74 965 55 1059 45 c 0
 1086 43 1092 39 1092 25 c 2
 1092 10 l 2
 1092 -8 1085 -14 1069 -14 c 0
 1059 -14 1058 -14 995 -8 c 0
 952 -2 907 0 862 0 c 0
 803 0 784 -2 688 -12 c 0
 680 -14 670 -14 662 -14 c 0
 642 -14 635 -8 635 10 c 2
 635 25 l 2
 635 39 643 43 668 45 c 0
 774 53 793 72 791 160 c 2
 791 211 l 1
 791 270 l 1
 793 616 l 2
 793 706 790 714 770 737 c 0
 743 762 686 778 614 778 c 2
 375 778 l 1xdc
EndSplineSet
Ligature2: "ligaStandardLigatureslookup subtable" f i
EndChar

StartChar: fl
Encoding: 64258 64258 94
Width: 1138
GlyphClass: 2
Flags: HMW
HStem: -14 59<76 76 506 506> 778 92<80 88 88 211 369 786> 1454 119<613 672>
VStem: 211 156<152 209 209 270 270 778> 786 154<178 225 225 297 297 299 299 778 778 778 870 1141 1141 1231>
LayerCount: 2
Fore
SplineSet
211 778 m 1
 88 778 l 2
 57 778 51 783 51 803 c 2
 51 846 l 2
 51 869 55 870 80 870 c 2
 213 870 l 1
 213 1020 215 1042 221 1083 c 0
 260 1341 500 1573 727 1573 c 0
 784 1573 820 1563 883 1528 c 1
 930 1563 l 2
 940 1569 948 1573 952 1573 c 0
 958 1573 963 1564 963 1554 c 0
 963 1546 958 1518 952 1479 c 0
 942 1411 940 1388 940 1296 c 2
 940 297 l 1
 940 178 l 2
 938 74 951 57 1053 45 c 0
 1078 43 1085 39 1085 25 c 2
 1085 10 l 2
 1085 -8 1079 -14 1061 -14 c 0
 1049 -14 1034 -12 977 -8 c 0
 930 -2 891 0 862 0 c 0
 831 0 795 -2 750 -6 c 0
 695 -12 673 -14 655 -14 c 0
 632 -14 627 -8 627 10 c 2
 627 25 l 2
 627 39 635 43 672 45 c 0
 766 55 786 74 786 150 c 2
 786 225 l 1
 786 299 l 1
 786 778 l 1
 367 778 l 1
 367 270 l 1
 367 209 l 1
 367 150 l 2
 367 68 389 49 508 45 c 0
 533 43 541 39 541 25 c 2
 541 10 l 2
 541 -10 537 -14 506 -14 c 0
 481 -14 438 -12 395 -8 c 0
 350 -2 316 0 291 0 c 0
 266 0 229 -2 182 -6 c 0
 127 -12 101 -14 76 -14 c 0
 47 -14 43 -10 43 10 c 2
 43 25 l 2
 43 39 49 43 76 45 c 0
 189 51 211 70 211 152 c 2
 211 209 l 1
 211 270 l 1
 211 778 l 1
786 870 m 1
 786 1141 l 2
 786 1321 784 1325 776 1360 c 0
 760 1415 705 1454 639 1454 c 0
 551 1454 459 1397 414 1315 c 0
 377 1245 367 1186 367 1055 c 0
 367 1035 367 1034 369 870 c 1
 786 870 l 1
EndSplineSet
Ligature2: "ligaStandardLigatureslookup subtable" f l
EndChar

StartChar: adieresis
Encoding: 228 228 95
Width: 868
GlyphClass: 2
Flags: HW
HStem: -41 102<212 368> -41 131<734 741> 766 131<341 428> 1116 225<203 264 618 680>
VStem: 80 166<170 229> 104 131<621 712> 121 225<1199 1261> 537 225<1199 1260 1197 1261> 551 141<201 240 240 414 414 414 473 539 539 555> 829 37<135 150>
LayerCount: 2
Fore
SplineSet
829 150 m 1x74c0
 866 135 l 1
 835 10 784 -41 698 -41 c 0x74c0
 608 -41 555 24 555 137 c 1
 391 -17 348 -41 258 -41 c 0
 166 -41 80 71 80 188 c 0xb8c0
 80 270 125 303 340 389 c 2
 551 473 l 1
 551 578 l 2
 551 662 543 692 516 723 c 0
 491 750 444 766 387 766 c 0
 295 766 236 735 236 688 c 0
 236 676 238 668 244 645 c 1
 117 573 l 1
 107 600 104 613 104 629 c 0
 104 690 143 735 258 801 c 2
 428 897 l 1
 641 891 700 815 692 555 c 1
 692 539 l 1
 692 240 l 1
 692 201 l 2
 692 125 713 90 756 90 c 0
 787 90 802 103 829 150 c 1x74c0
551 414 m 1
 395 344 l 2
 272 289 246 264 246 209 c 0
 246 131 289 61 340 61 c 0xb8c0
 395 61 431 84 535 184 c 0
 539 190 545 197 551 201 c 2
 551 414 l 1
233 1341 m 0
 296 1341 346 1292 346 1229 c 0
 346 1166 297 1116 231 1116 c 0
 170 1116 121 1168 121 1231 c 0x3240
 121 1290 172 1341 233 1341 c 0
649 1341 m 0
 710 1341 762 1290 762 1229 c 0
 762 1166 713 1116 647 1116 c 0
 586 1116 537 1168 537 1231 c 0x3140
 537 1290 588 1341 649 1341 c 0
EndSplineSet
Substitution2: "smcpLowercasetoSmallCapitalslookup subtable" adieresis.smcp
EndChar

StartChar: aacute
Encoding: 225 225 96
Width: 868
GlyphClass: 2
Flags: HW
HStem: -41 102<212 368> -41 131<734 741> 766 131<341 428>
VStem: 80 166<170 229> 104 131<621 712> 457 207<1425 1535> 551 141<201 240 240 414 414 414 473 539 539 555> 829 37<135 150>
LayerCount: 2
Fore
SplineSet
829 150 m 1x6b
 866 135 l 1
 835 10 784 -41 698 -41 c 0x6b
 608 -41 555 24 555 137 c 1
 391 -17 348 -41 258 -41 c 0
 166 -41 80 71 80 188 c 0xb3
 80 270 125 303 340 389 c 2
 551 473 l 1
 551 578 l 2
 551 662 543 692 516 723 c 0
 491 750 444 766 387 766 c 0
 295 766 236 735 236 688 c 0
 236 676 238 668 244 645 c 1
 117 573 l 1
 107 600 104 613 104 629 c 0
 104 690 143 735 258 801 c 2
 428 897 l 1
 641 891 700 815 692 555 c 1
 692 539 l 1
 692 240 l 1
 692 201 l 2
 692 125 713 90 756 90 c 0
 787 90 802 103 829 150 c 1x6b
551 414 m 1
 395 344 l 2
 272 289 246 264 246 209 c 0
 246 131 289 61 340 61 c 0xb3
 395 61 431 84 535 184 c 0
 539 190 545 197 551 201 c 2
 551 414 l 1
319 1098 m 2
 457 1425 l 2
 516 1562 537 1591 584 1591 c 0
 627 1591 664 1556 664 1513 c 0x25
 664 1474 650 1448 582 1360 c 2
 365 1067 l 2
 353 1051 352 1051 348 1051 c 0
 344 1051 342 1051 336 1055 c 2
 322 1063 l 2
 316 1067 313 1071 313 1075 c 0
 313 1079 315 1088 319 1098 c 2
EndSplineSet
Substitution2: "smcpLowercasetoSmallCapitalslookup subtable" aacute.smcp
EndChar

StartChar: agrave
Encoding: 224 224 97
Width: 868
GlyphClass: 2
Flags: HW
HStem: -41 102<212 368> -41 131<734 741> 766 131<341 428>
VStem: 80 166<170 229> 104 131<621 712> 205 207<1425 1534> 551 141<201 240 240 414 414 414 473 539 539 555> 829 37<135 150>
LayerCount: 2
Fore
SplineSet
829 150 m 1x6b
 866 135 l 1
 835 10 784 -41 698 -41 c 0x6b
 608 -41 555 24 555 137 c 1
 391 -17 348 -41 258 -41 c 0
 166 -41 80 71 80 188 c 0xb3
 80 270 125 303 340 389 c 2
 551 473 l 1
 551 578 l 2
 551 662 543 692 516 723 c 0
 491 750 444 766 387 766 c 0
 295 766 236 735 236 688 c 0
 236 676 238 668 244 645 c 1
 117 573 l 1
 107 600 104 613 104 629 c 0
 104 690 143 735 258 801 c 2
 428 897 l 1
 641 891 700 815 692 555 c 1
 692 539 l 1
 692 240 l 1
 692 201 l 2
 692 125 713 90 756 90 c 0
 787 90 802 103 829 150 c 1x6b
551 414 m 1
 395 344 l 2
 272 289 246 264 246 209 c 0
 246 131 289 61 340 61 c 0xb3
 395 61 431 84 535 184 c 0
 539 190 545 197 551 201 c 2
 551 414 l 1
504 1067 m 2
 287 1360 l 2
 219 1450 205 1474 205 1513 c 0
 205 1554 242 1591 285 1591 c 0
 332 1591 355 1564 412 1425 c 2x27
 549 1098 l 2
 553 1088 555 1079 555 1075 c 0
 555 1071 551 1067 547 1063 c 2
 532 1055 l 2
 528 1053 524 1051 522 1051 c 0
 518 1051 514 1053 504 1067 c 2
EndSplineSet
Substitution2: "smcpLowercasetoSmallCapitalslookup subtable" agrave.smcp
EndChar

StartChar: acircumflex
Encoding: 226 226 98
Width: 868
GlyphClass: 2
Flags: HW
HStem: -41 102<212 368> -41 131<734 741> 766 131<341 428>
VStem: 80 166<170 229> 104 131<621 712> 551 141<201 240 240 414 414 414 473 539 539 555> 829 37<135 150>
LayerCount: 2
Fore
SplineSet
829 150 m 1x6e
 866 135 l 1
 835 10 784 -41 698 -41 c 0x6e
 608 -41 555 24 555 137 c 1
 391 -17 348 -41 258 -41 c 0
 166 -41 80 71 80 188 c 0xb6
 80 270 125 303 340 389 c 2
 551 473 l 1
 551 578 l 2
 551 662 543 692 516 723 c 0
 491 750 444 766 387 766 c 0
 295 766 236 735 236 688 c 0
 236 676 238 668 244 645 c 1
 117 573 l 1
 107 600 104 613 104 629 c 0
 104 690 143 735 258 801 c 2
 428 897 l 1
 641 891 700 815 692 555 c 1
 692 539 l 1
 692 240 l 1
 692 201 l 2
 692 125 713 90 756 90 c 0
 787 90 802 103 829 150 c 1x6e
551 414 m 1
 395 344 l 2
 272 289 246 264 246 209 c 0
 246 131 289 61 340 61 c 0xb6
 395 61 431 84 535 184 c 0
 539 190 545 197 551 201 c 2
 551 414 l 1
436 1417 m 1
 244 1067 l 2
 238 1055 233 1051 227 1051 c 0
 225 1051 221 1051 217 1053 c 2
 193 1065 l 2
 187 1069 182 1073 182 1077 c 0
 182 1083 184 1090 188 1100 c 2
 326 1444 l 2
 371 1561 398 1591 449 1591 c 0
 474 1591 500 1579 516 1559 c 0
 536 1534 536 1534 571 1448 c 2
 715 1096 l 2
 719 1088 721 1079 721 1075 c 0
 721 1071 715 1067 709 1063 c 2
 690 1055 l 2
 682 1053 678 1051 676 1051 c 0
 670 1051 663 1057 657 1067 c 2
 436 1417 l 1
EndSplineSet
Substitution2: "smcpLowercasetoSmallCapitalslookup subtable" acircumflex.smcp
EndChar

StartChar: atilde
Encoding: 227 227 99
Width: 868
GlyphClass: 2
Flags: HW
HStem: -41 102<212 368> -41 131<734 741> 766 131<341 428> 1051 166<585 595> 1247 166<330 331>
VStem: 80 166<170 229> 104 131<621 712> 141 72 551 141<201 240 240 414 414 414 473 539 539 555> 829 37<135 150>
LayerCount: 2
Fore
SplineSet
829 150 m 1x7ac0
 866 135 l 1
 835 10 784 -41 698 -41 c 0x7ac0
 608 -41 555 24 555 137 c 1
 391 -17 348 -41 258 -41 c 0
 166 -41 80 71 80 188 c 0xbcc0
 80 270 125 303 340 389 c 2
 551 473 l 1
 551 578 l 2
 551 662 543 692 516 723 c 0
 491 750 444 766 387 766 c 0
 295 766 236 735 236 688 c 0
 236 676 238 668 244 645 c 1
 117 573 l 1
 107 600 104 613 104 629 c 0
 104 690 143 735 258 801 c 2
 428 897 l 1
 641 891 700 815 692 555 c 1
 692 539 l 1
 692 240 l 1
 692 201 l 2
 692 125 713 90 756 90 c 0
 787 90 802 103 829 150 c 1x7ac0
551 414 m 1
 395 344 l 2
 272 289 246 264 246 209 c 0
 246 131 289 61 340 61 c 0xbcc0
 395 61 431 84 535 184 c 0
 539 190 545 197 551 201 c 2
 551 414 l 1
731 1391 m 2
 745 1384 l 2
 749 1380 754 1372 754 1364 c 0
 754 1341 734 1269 709 1210 c 0
 668 1108 618 1051 571 1051 c 0
 524 1051 494 1076 412 1174 c 0
 367 1229 344 1247 317 1247 c 0
 288 1247 244 1190 213 1116 c 0
 195 1065 186 1051 178 1051 c 0
 174 1051 168 1053 164 1057 c 2
 152 1063 l 2
 146 1069 141 1075 141 1083 c 0x39c0
 141 1101 168 1196 186 1243 c 0
 225 1349 295 1413 365 1413 c 0
 402 1413 424 1394 473 1335 c 0
 541 1249 576 1217 594 1217 c 0
 627 1217 653 1257 696 1376 c 0
 700 1390 707 1397 713 1397 c 0
 717 1397 721 1395 731 1391 c 2
EndSplineSet
Substitution2: "smcpLowercasetoSmallCapitalslookup subtable" atilde.smcp
EndChar

StartChar: aring
Encoding: 229 229 100
Width: 868
GlyphClass: 2
Flags: HW
HStem: -41 102<212 368> -41 131<734 741> 766 131<341 428> 1051 86<400 476 400 501> 1409 86<402 477>
VStem: 80 166<170 229> 104 131<621 712> 217 86<1237 1312 1237 1335> 551 141<201 240 240 414 414 414 473 539 539 555> 575 86<1235 1311> 829 37<135 150>
LayerCount: 2
Fore
SplineSet
829 150 m 1x7aa0
 866 135 l 1
 835 10 784 -41 698 -41 c 0x7aa0
 608 -41 555 24 555 137 c 1
 391 -17 348 -41 258 -41 c 0
 166 -41 80 71 80 188 c 0xbca0
 80 270 125 303 340 389 c 2
 551 473 l 1
 551 578 l 2
 551 662 543 692 516 723 c 0
 491 750 444 766 387 766 c 0
 295 766 236 735 236 688 c 0
 236 676 238 668 244 645 c 1
 117 573 l 1
 107 600 104 613 104 629 c 0
 104 690 143 735 258 801 c 2
 428 897 l 1
 641 891 700 815 692 555 c 1
 692 539 l 1
 692 240 l 1
 692 201 l 2
 692 125 713 90 756 90 c 0
 787 90 802 103 829 150 c 1x7aa0
551 414 m 1
 395 344 l 2
 272 289 246 264 246 209 c 0
 246 131 289 61 340 61 c 0xbca0
 395 61 431 84 535 184 c 0
 539 190 545 197 551 201 c 2
 551 414 l 1
438 1495 m 0
 563 1495 662 1397 662 1274 c 0
 662 1149 563 1051 438 1051 c 0
 315 1051 217 1151 217 1276 c 0x3960
 217 1395 317 1495 438 1495 c 0
440 1409 m 0
 364 1409 303 1348 303 1276 c 0
 303 1198 362 1137 438 1137 c 0
 514 1137 575 1196 575 1274 c 0
 575 1348 514 1409 440 1409 c 0
EndSplineSet
Substitution2: "smcpLowercasetoSmallCapitalslookup subtable" aring.smcp
EndChar

StartChar: ccedilla
Encoding: 231 231 101
Width: 868
GlyphClass: 2
Flags: HMW
HStem: -430 70<362 409 362 423> -41 133<438 438> 829 68<402 495>
VStem: 63 152<380 530> 483 129<-289 -253>
LayerCount: 2
Fore
SplineSet
520 -33 m 1
 465 -100 l 1
 561 -116 612 -162 612 -236 c 0
 612 -342 495 -430 350 -430 c 0
 260 -430 195 -399 195 -356 c 0
 195 -336 213 -315 233 -315 c 0
 241 -315 256 -320 270 -328 c 0
 323 -355 346 -360 379 -360 c 0
 438 -360 483 -323 483 -276 c 0
 483 -229 446 -199 389 -199 c 0
 379 -199 358 -201 340 -203 c 1
 305 -166 l 1
 438 -41 l 1
 221 -33 63 149 63 391 c 0
 63 670 274 897 530 897 c 0
 675 897 797 821 797 729 c 0
 797 684 760 649 715 649 c 0
 674 649 668 655 602 743 c 0
 553 809 522 829 467 829 c 0
 332 829 215 672 215 494 c 0
 215 267 350 92 524 92 c 0
 626 92 680 123 799 252 c 1
 829 211 l 1
 720 57 631 -13 520 -33 c 1
EndSplineSet
Substitution2: "smcpLowercasetoSmallCapitalslookup subtable" ccedilla.smcp
EndChar

StartChar: edieresis
Encoding: 235 235 102
Width: 868
GlyphClass: 2
Flags: HW
HStem: -41 131<450 515> 530 47<231 231 231 801 221 231> 831 66<425 510> 1116 225<201 262 618 680>
VStem: 63 152<356 449> 119 225<1199 1261> 537 225<1199 1261> 633 168<530 710>
LayerCount: 2
Fore
SplineSet
801 530 m 1xf9
 221 530 l 1
 217 491 215 476 215 453 c 0
 215 260 365 90 535 90 c 0
 613 90 674 123 768 209 c 1
 803 182 l 1
 701 30 585 -41 444 -41 c 0
 231 -41 63 147 63 389 c 0
 63 508 104 633 178 731 c 0
 258 840 364 897 485 897 c 0
 600 897 701 844 756 756 c 0
 789 703 801 649 801 561 c 2
 801 530 l 1xf9
231 578 m 1
 498 584 l 2
 576 586 588 588 608 602 c 0
 622 616 633 639 633 664 c 0
 633 756 557 831 463 831 c 0
 352 831 268 740 231 578 c 1
231 1341 m 0
 294 1341 344 1292 344 1229 c 0
 344 1166 295 1116 229 1116 c 0
 168 1116 119 1168 119 1231 c 0xf4
 119 1290 170 1341 231 1341 c 0
649 1341 m 0
 712 1341 762 1292 762 1229 c 0
 762 1166 713 1116 647 1116 c 0
 586 1116 537 1168 537 1231 c 0xf2
 537 1290 588 1341 649 1341 c 0
EndSplineSet
Substitution2: "smcpLowercasetoSmallCapitalslookup subtable" edieresis.smcp
EndChar

StartChar: eacute
Encoding: 233 233 103
Width: 868
GlyphClass: 2
Flags: HW
HStem: -41 131<450 515> 530 47<231 231 231 801 221 231> 831 66<425 510>
VStem: 63 152<356 449> 457 205<1425 1534> 633 168<530 710>
LayerCount: 2
Fore
SplineSet
801 530 m 1xf4
 221 530 l 1
 217 491 215 476 215 453 c 0
 215 260 365 90 535 90 c 0
 613 90 674 123 768 209 c 1
 803 182 l 1
 701 30 585 -41 444 -41 c 0
 231 -41 63 147 63 389 c 0
 63 508 104 633 178 731 c 0
 258 840 364 897 485 897 c 0
 600 897 701 844 756 756 c 0
 789 703 801 649 801 561 c 2
 801 530 l 1xf4
231 578 m 1
 498 584 l 2
 576 586 588 588 608 602 c 0
 622 616 633 639 633 664 c 0
 633 756 557 831 463 831 c 0
 352 831 268 740 231 578 c 1
319 1098 m 2
 457 1425 l 2
 514 1562 535 1591 582 1591 c 0
 625 1591 662 1554 662 1513 c 0xf8
 662 1474 648 1446 582 1360 c 2
 362 1067 l 2
 350 1051 350 1051 346 1051 c 0
 344 1051 340 1053 336 1055 c 2
 319 1063 l 2
 315 1067 311 1071 311 1075 c 0
 311 1077 313 1086 319 1098 c 2
EndSplineSet
Substitution2: "smcpLowercasetoSmallCapitalslookup subtable" eacute.smcp
EndChar

StartChar: egrave
Encoding: 232 232 104
Width: 868
GlyphClass: 2
Flags: HW
HStem: -41 131<450 515> 530 47<231 231 231 801 221 231> 831 66<425 510>
VStem: 63 152<356 449> 205 205<1425 1535> 633 168<530 710>
LayerCount: 2
Fore
SplineSet
801 530 m 1xf4
 221 530 l 1
 217 491 215 476 215 453 c 0
 215 260 365 90 535 90 c 0
 613 90 674 123 768 209 c 1
 803 182 l 1
 701 30 585 -41 444 -41 c 0
 231 -41 63 147 63 389 c 0
 63 508 104 633 178 731 c 0
 258 840 364 897 485 897 c 0
 600 897 701 844 756 756 c 0
 789 703 801 649 801 561 c 2
 801 530 l 1xf4
231 578 m 1
 498 584 l 2
 576 586 588 588 608 602 c 0
 622 616 633 639 633 664 c 0
 633 756 557 831 463 831 c 0
 352 831 268 740 231 578 c 1
504 1067 m 2
 285 1360 l 2
 222 1444 205 1474 205 1513 c 0
 205 1556 242 1591 285 1591 c 0
 332 1591 353 1564 410 1425 c 2xec
 547 1098 l 2
 553 1086 555 1077 555 1075 c 0
 555 1071 551 1067 545 1063 c 2
 530 1055 l 2
 526 1053 522 1051 520 1051 c 0
 516 1051 514 1053 504 1067 c 2
EndSplineSet
Substitution2: "smcpLowercasetoSmallCapitalslookup subtable" egrave.smcp
EndChar

StartChar: ecircumflex
Encoding: 234 234 105
Width: 868
GlyphClass: 2
Flags: HMW
HStem: -41 131<450 515> 530 47<231 231 231 801 221 231> 831 66<425 510>
VStem: 63 152<356 449> 633 168<530 710>
LayerCount: 2
Fore
SplineSet
801 530 m 1
 221 530 l 1
 217 491 215 476 215 453 c 0
 215 260 365 90 535 90 c 0
 613 90 674 123 768 209 c 1
 803 182 l 1
 701 30 585 -41 444 -41 c 0
 231 -41 63 147 63 389 c 0
 63 508 104 633 178 731 c 0
 258 840 364 897 485 897 c 0
 600 897 701 844 756 756 c 0
 789 703 801 649 801 561 c 2
 801 530 l 1
231 578 m 1
 498 584 l 2
 576 586 588 588 608 602 c 0
 622 616 633 639 633 664 c 0
 633 756 557 831 463 831 c 0
 352 831 268 740 231 578 c 1
436 1417 m 1
 242 1067 l 2
 236 1055 231 1051 227 1051 c 2
 215 1053 l 1
 190 1065 l 2
 184 1069 180 1073 180 1077 c 0
 180 1081 182 1090 186 1100 c 2
 324 1444 l 2
 369 1561 396 1591 449 1591 c 0
 474 1591 498 1579 514 1559 c 0
 534 1534 534 1534 569 1448 c 2
 713 1096 l 2
 719 1086 721 1077 721 1075 c 0
 721 1071 717 1067 707 1063 c 2
 688 1055 l 2
 682 1053 676 1051 674 1051 c 0
 670 1051 663 1057 655 1067 c 2
 436 1417 l 1
EndSplineSet
Substitution2: "smcpLowercasetoSmallCapitalslookup subtable" ecircumflex.smcp
EndChar

StartChar: idieresis
Encoding: 239 239 106
Width: 565
GlyphClass: 2
Flags: HW
HStem: -14 59 860 41G<360 360> 1116 225<20 82 20 82 438 500>
VStem: -61 225<1199 1260 1197 1261> 215 156<194 272 194 272 272 547 547 584> 356 225<1199 1261>
LayerCount: 2
Fore
SplineSet
109 748 m 1xf8
 104 774 l 1
 240 840 l 2
 265 852 288 862 311 874 c 0
 325 882 329 885 360 901 c 1
 375 895 l 1
 373 838 l 1
 373 739 l 1
 371 584 l 1
 371 272 l 2
 371 114 371 102 383 84 c 0
 395 64 434 47 483 45 c 0
 510 43 516 39 516 25 c 2
 516 10 l 2
 516 -8 510 -14 494 -14 c 0
 484 -14 483 -14 420 -8 c 0
 377 -2 332 0 285 0 c 0
 228 0 209 -2 113 -12 c 0
 105 -14 94 -14 86 -14 c 0
 66 -14 59 -8 59 10 c 2
 59 25 l 2
 59 39 67 43 92 45 c 0
 160 49 197 63 207 92 c 0
 211 102 213 119 215 150 c 2
 215 272 l 1
 215 547 l 2
 215 686 211 695 109 748 c 1xf8
51 1341 m 0
 112 1341 164 1290 164 1229 c 0
 164 1166 115 1116 49 1116 c 0
 -12 1116 -61 1168 -61 1231 c 0
 -61 1290 -10 1341 51 1341 c 0
469 1341 m 0
 532 1341 582 1292 582 1229 c 0
 582 1166 533 1116 467 1116 c 0
 406 1116 356 1168 356 1231 c 0xf4
 356 1290 408 1341 469 1341 c 0
EndSplineSet
Substitution2: "smcpLowercasetoSmallCapitalslookup subtable" idieresis.smcp
EndChar

StartChar: iacute
Encoding: 237 237 107
Width: 565
GlyphClass: 2
Flags: HW
HStem: -14 59 860 41G<358 358>
VStem: 213 158<103 272 103 547> 305 205<1425 1535>
LayerCount: 2
Fore
SplineSet
106 748 m 1xe0
 102 774 l 1
 238 840 l 2
 316 877 323 881 358 901 c 1
 373 895 l 1
 371 838 l 1
 371 739 l 1
 369 584 l 1
 369 272 l 1
 371 133 l 2
 371 74 393 55 481 45 c 0
 506 43 514 39 514 25 c 2
 514 10 l 2
 514 -8 508 -14 492 -14 c 0
 482 -14 481 -14 418 -8 c 0
 375 -2 330 0 285 0 c 0
 226 0 207 -2 111 -12 c 0
 103 -14 90 -14 82 -14 c 0
 64 -14 57 -8 57 10 c 2
 57 25 l 2
 57 39 63 43 90 45 c 0
 158 49 195 63 205 92 c 0
 209 102 211 119 213 150 c 2
 213 272 l 1
 213 547 l 2
 213 688 208 695 106 748 c 1xe0
168 1098 m 2
 305 1425 l 2
 362 1564 383 1591 430 1591 c 0
 473 1591 510 1556 510 1513 c 0xd0
 510 1474 493 1442 430 1360 c 2
 213 1067 l 2
 201 1051 201 1051 197 1051 c 0
 193 1051 188 1053 184 1055 c 2
 170 1063 l 2
 166 1067 162 1071 162 1075 c 0
 162 1079 164 1088 168 1098 c 2
EndSplineSet
Substitution2: "smcpLowercasetoSmallCapitalslookup subtable" iacute.smcp
EndChar

StartChar: igrave
Encoding: 236 236 108
Width: 565
GlyphClass: 2
Flags: HW
HStem: -14 59 860 41G<358 358>
VStem: 53 205<1425 1535> 213 158<103 272 103 547>
LayerCount: 2
Fore
SplineSet
106 748 m 1xd0
 102 774 l 1
 238 840 l 2
 316 877 321 878 358 901 c 1
 373 895 l 1
 371 838 l 1
 371 739 l 1
 369 584 l 1
 369 272 l 1
 371 133 l 2
 371 74 393 55 481 45 c 0
 506 43 514 39 514 25 c 2
 514 10 l 2
 514 -8 508 -14 492 -14 c 0
 482 -14 481 -14 418 -8 c 0
 375 -2 330 0 283 0 c 0
 226 0 207 -2 111 -12 c 0
 103 -14 92 -14 82 -14 c 0
 64 -14 57 -8 57 10 c 2
 57 25 l 2
 57 39 63 43 90 45 c 0
 158 49 193 63 205 92 c 0
 209 102 211 119 213 150 c 2
 213 272 l 1
 213 547 l 2
 213 686 208 695 106 748 c 1xd0
352 1067 m 2
 133 1360 l 2
 70 1446 53 1474 53 1513 c 0
 53 1556 90 1591 133 1591 c 0
 180 1591 201 1564 258 1425 c 2xe0
 397 1098 l 2
 401 1088 403 1079 403 1075 c 0
 403 1071 399 1067 395 1063 c 2
 381 1055 l 2
 375 1053 373 1051 369 1051 c 0
 365 1051 362 1053 352 1067 c 2
EndSplineSet
Substitution2: "smcpLowercasetoSmallCapitalslookup subtable" igrave.smcp
EndChar

StartChar: icircumflex
Encoding: 238 238 109
Width: 565
GlyphClass: 2
Flags: HMW
HStem: -14 59 860 41G<358 358>
VStem: 213 158<119 272 119 547>
LayerCount: 2
Fore
SplineSet
106 748 m 1
 102 774 l 1
 238 840 l 2
 316 877 317 878 358 901 c 1
 373 895 l 1
 371 838 l 1
 371 739 l 1
 369 584 l 1
 369 272 l 1
 371 119 l 2
 373 72 401 53 481 45 c 0
 506 43 514 39 514 25 c 2
 514 10 l 2
 514 -8 508 -14 492 -14 c 0
 482 -14 481 -14 418 -8 c 0
 375 -2 330 0 285 0 c 0
 226 0 207 -2 111 -12 c 0
 103 -14 90 -14 82 -14 c 0
 64 -14 57 -8 57 10 c 2
 57 25 l 2
 57 39 63 43 90 45 c 0
 160 49 193 63 205 92 c 0
 209 102 211 119 213 150 c 2
 213 272 l 1
 213 547 l 2
 213 688 208 695 106 748 c 1
285 1417 m 1
 92 1067 l 2
 86 1055 82 1051 76 1051 c 2
 66 1053 l 1
 41 1065 l 2
 35 1069 31 1073 31 1077 c 0
 31 1081 33 1090 37 1100 c 2
 172 1444 l 2
 219 1561 246 1591 297 1591 c 0
 322 1591 349 1579 365 1559 c 0
 385 1534 385 1534 420 1448 c 2
 563 1096 l 2
 567 1088 569 1079 569 1075 c 0
 569 1071 565 1067 557 1063 c 2
 537 1055 l 2
 531 1053 526 1051 524 1051 c 0
 518 1051 512 1057 506 1067 c 2
 285 1417 l 1
EndSplineSet
Substitution2: "smcpLowercasetoSmallCapitalslookup subtable" icircumflex.smcp
EndChar

StartChar: lslash
Encoding: 322 322 110
Width: 565
GlyphClass: 2
Flags: HMW
HStem: -14 59<66 114> 573 98<18 18> 975 98<551 551>
VStem: 205 156<272 715 715 715 813 831 272 930 930 1223 1223 1255>
LayerCount: 2
Fore
SplineSet
360 831 m 1
 360 272 l 1
 362 119 l 2
 364 72 395 53 473 45 c 0
 498 43 506 39 506 25 c 2
 506 10 l 2
 506 -8 499 -14 481 -14 c 0
 469 -14 454 -12 397 -8 c 0
 350 -2 312 0 283 0 c 0
 254 0 215 -2 170 -6 c 0
 107 -14 96 -14 78 -14 c 0
 53 -14 49 -10 49 10 c 2
 49 25 l 2
 49 41 55 43 92 45 c 0
 135 45 181 64 193 84 c 0
 205 102 205 114 205 272 c 2
 205 715 l 1
 18 573 l 1
 18 672 l 1
 205 813 l 1
 205 1223 l 2
 205 1362 202 1368 98 1421 c 1
 96 1450 l 1
 229 1513 l 2
 254 1525 278 1536 301 1548 c 2
 350 1575 l 1
 365 1569 l 1
 362 1505 l 1
 362 1395 l 1
 360 1255 l 1
 360 930 l 1
 551 1073 l 1
 551 975 l 1
 360 831 l 1
EndSplineSet
Substitution2: "smcpLowercasetoSmallCapitalslookup subtable" lslash.smcp
EndChar

StartChar: ntilde
Encoding: 241 241 111
Width: 1132
GlyphClass: 2
Flags: HW
HStem: -14 59 780 117<645 650> 1051 166<716 726> 1247 166<461 462>
VStem: 201 156<272 553 553 624> 272 72 784 156<272 549 549 580 272 597>
LayerCount: 2
Fore
SplineSet
356 668 m 1xfa
 356 272 l 2
 356 114 357 104 369 84 c 0
 381 64 422 47 469 45 c 0
 494 43 500 39 500 25 c 2
 500 10 l 2
 500 -8 495 -14 475 -14 c 0
 465 -14 450 -12 391 -8 c 0
 344 -2 308 0 279 0 c 0
 250 0 213 -2 164 -8 c 0
 103 -14 92 -14 80 -14 c 0
 62 -14 55 -8 55 10 c 2
 55 25 l 2
 55 39 61 43 88 45 c 0
 137 49 180 66 188 84 c 0
 196 96 199 106 199 133 c 2
 201 272 l 1
 201 553 l 2
 201 694 198 699 94 754 c 1
 90 780 l 1
 225 846 l 2
 288 875 292 877 317 891 c 2
 346 905 l 1
 356 901 l 1
 356 733 l 1
 530 866 594 897 696 897 c 0
 788 897 870 854 907 784 c 0
 932 737 940 689 940 580 c 2
 940 272 l 1
 942 133 l 2
 942 74 965 55 1053 45 c 0
 1080 43 1085 39 1085 25 c 2
 1085 10 l 2
 1085 -8 1079 -14 1059 -14 c 0
 1049 -14 1032 -12 977 -8 c 0
 930 -2 891 0 864 0 c 0
 835 0 797 -2 750 -8 c 0
 687 -14 676 -14 664 -14 c 0
 648 -14 641 -8 641 10 c 2
 641 25 l 2
 641 39 647 43 672 45 c 0
 721 47 764 66 772 84 c 0
 780 96 782 106 782 133 c 2
 784 272 l 1
 784 549 l 2
 784 645 780 672 764 705 c 0
 739 752 684 780 616 780 c 0
 522 780 428 740 356 668 c 1xfa
862 1391 m 2
 874 1384 l 2
 880 1380 885 1374 885 1364 c 0
 885 1341 865 1269 840 1210 c 0
 799 1108 749 1051 702 1051 c 0
 655 1051 625 1076 543 1174 c 0
 496 1231 476 1247 449 1247 c 0
 420 1247 373 1190 344 1116 c 0
 324 1063 317 1051 309 1051 c 0
 305 1051 299 1053 295 1057 c 2
 283 1063 l 2
 277 1069 272 1075 272 1081 c 0xf6
 272 1099 301 1204 315 1243 c 0
 358 1349 426 1413 496 1413 c 0
 531 1413 555 1394 604 1335 c 0
 674 1247 707 1217 725 1217 c 0
 758 1217 780 1251 827 1376 c 0
 831 1390 838 1397 844 1397 c 0
 848 1397 854 1395 862 1391 c 2
EndSplineSet
Substitution2: "smcpLowercasetoSmallCapitalslookup subtable" ntilde.smcp
EndChar

StartChar: odieresis
Encoding: 246 246 112
Width: 1095
GlyphClass: 2
Flags: HW
HStem: -41 68<474 649 474 663> 829 68<480 621> 1116 225<315 377 731 793>
VStem: 74 180<332 505 332 550> 233 225<1199 1261> 649 225<1199 1261> 840 180<303 523>
LayerCount: 2
Fore
SplineSet
561 897 m 0xf2
 815 897 1020 690 1020 436 c 0
 1020 170 800 -41 524 -41 c 0
 266 -41 74 156 74 420 c 0
 74 680 297 897 561 897 c 0xf2
526 829 m 0
 434 829 363 793 322 725 c 0
 281 659 254 553 254 457 c 0
 254 207 383 27 565 27 c 0
 733 27 840 168 840 391 c 0
 840 655 714 829 526 829 c 0
346 1341 m 0
 409 1341 459 1292 459 1229 c 0
 459 1166 410 1116 344 1116 c 0
 283 1116 233 1168 233 1231 c 0xe8
 233 1290 285 1341 346 1341 c 0
762 1341 m 0
 825 1341 874 1292 874 1229 c 0
 874 1166 826 1116 760 1116 c 0
 699 1116 649 1168 649 1231 c 0xe4
 649 1290 701 1341 762 1341 c 0
EndSplineSet
Substitution2: "smcpLowercasetoSmallCapitalslookup subtable" odieresis.smcp
EndChar

StartChar: oacute
Encoding: 243 243 113
Width: 1095
GlyphClass: 2
Flags: HMW
HStem: -41 68<474 649 474 663> 829 68<480 621>
VStem: 74 180<332 505 332 550> 571 205<1425 1534> 840 180<303 523>
LayerCount: 2
Fore
SplineSet
561 897 m 0
 815 897 1020 690 1020 436 c 0
 1020 170 800 -41 524 -41 c 0
 266 -41 74 156 74 420 c 0
 74 680 297 897 561 897 c 0
526 829 m 0
 434 829 363 793 322 725 c 0
 281 659 254 553 254 457 c 0
 254 207 383 27 565 27 c 0
 733 27 840 168 840 391 c 0
 840 655 714 829 526 829 c 0
432 1098 m 2
 571 1425 l 2
 628 1562 649 1591 696 1591 c 0
 739 1591 776 1554 776 1513 c 0
 776 1474 762 1448 696 1360 c 2
 477 1067 l 2
 465 1051 465 1051 461 1051 c 0
 457 1051 455 1053 451 1055 c 2
 434 1063 l 2
 430 1067 426 1071 426 1075 c 0
 426 1077 428 1086 432 1098 c 2
EndSplineSet
Substitution2: "smcpLowercasetoSmallCapitalslookup subtable" oacute.smcp
EndChar

StartChar: ograve
Encoding: 242 242 114
Width: 1095
GlyphClass: 2
Flags: HMW
HStem: -41 68<474 649 474 663> 829 68<480 621>
VStem: 74 180<332 505 332 550> 319 205<1425 1535> 840 180<303 523>
LayerCount: 2
Fore
SplineSet
561 897 m 0
 815 897 1020 690 1020 436 c 0
 1020 170 800 -41 524 -41 c 0
 266 -41 74 156 74 420 c 0
 74 680 297 897 561 897 c 0
526 829 m 0
 434 829 363 793 322 725 c 0
 281 659 254 553 254 457 c 0
 254 207 383 27 565 27 c 0
 733 27 840 168 840 391 c 0
 840 655 714 829 526 829 c 0
616 1067 m 2
 399 1360 l 2
 336 1444 319 1474 319 1513 c 0
 319 1556 356 1591 399 1591 c 0
 446 1591 465 1566 524 1425 c 2
 662 1098 l 2
 668 1086 670 1077 670 1075 c 0
 670 1071 665 1067 659 1063 c 2
 645 1055 l 2
 641 1053 637 1051 635 1051 c 0
 631 1051 628 1053 616 1067 c 2
EndSplineSet
Substitution2: "smcpLowercasetoSmallCapitalslookup subtable" ograve.smcp
EndChar

StartChar: ocircumflex
Encoding: 244 244 115
Width: 1095
GlyphClass: 2
Flags: HMW
HStem: -41 68<474 649 474 663> 829 68<480 621>
VStem: 74 180<332 505 332 550> 840 180<303 523>
LayerCount: 2
Fore
SplineSet
561 897 m 0
 815 897 1020 690 1020 436 c 0
 1020 170 800 -41 524 -41 c 0
 266 -41 74 156 74 420 c 0
 74 680 297 897 561 897 c 0
526 829 m 0
 434 829 363 793 322 725 c 0
 281 659 254 553 254 457 c 0
 254 207 383 27 565 27 c 0
 733 27 840 168 840 391 c 0
 840 655 714 829 526 829 c 0
551 1417 m 1
 356 1067 l 2
 350 1055 346 1051 340 1051 c 0
 338 1051 334 1051 330 1053 c 2
 305 1065 l 2
 299 1069 295 1073 295 1077 c 0
 295 1081 297 1090 301 1100 c 2
 438 1444 l 2
 483 1561 510 1591 561 1591 c 0
 586 1591 613 1579 629 1559 c 0
 649 1534 649 1534 684 1448 c 2
 827 1096 l 2
 831 1088 834 1079 834 1075 c 0
 834 1071 829 1067 821 1063 c 2
 803 1055 l 2
 795 1053 790 1051 788 1051 c 0
 784 1051 776 1057 770 1067 c 2
 551 1417 l 1
EndSplineSet
Substitution2: "smcpLowercasetoSmallCapitalslookup subtable" ocircumflex.smcp
EndChar

StartChar: otilde
Encoding: 245 245 116
Width: 1095
GlyphClass: 2
Flags: HW
HStem: -41 68<474 649 474 663> 829 68<480 621> 1051 166<698 710> 1247 166<442 444>
VStem: 74 180<332 505 332 550> 254 74 840 180<303 523>
LayerCount: 2
Fore
SplineSet
561 897 m 0xfa
 815 897 1020 690 1020 436 c 0
 1020 170 800 -41 524 -41 c 0
 266 -41 74 156 74 420 c 0
 74 680 297 897 561 897 c 0xfa
526 829 m 0
 434 829 363 793 322 725 c 0
 281 659 254 553 254 457 c 0
 254 207 383 27 565 27 c 0
 733 27 840 168 840 391 c 0
 840 655 714 829 526 829 c 0
844 1391 m 2
 858 1384 l 2
 864 1380 868 1374 868 1364 c 0
 868 1339 848 1269 823 1210 c 0
 780 1106 733 1051 686 1051 c 0
 639 1051 608 1076 526 1174 c 0
 479 1229 457 1247 432 1247 c 0
 401 1247 357 1190 328 1116 c 0
 308 1065 299 1051 291 1051 c 0
 287 1051 282 1053 276 1057 c 2
 264 1063 l 2
 258 1069 254 1075 254 1083 c 0xf6
 254 1101 281 1198 297 1243 c 0
 340 1349 407 1413 477 1413 c 0
 512 1413 537 1394 586 1335 c 0
 656 1249 689 1217 709 1217 c 0
 740 1217 770 1263 809 1376 c 0
 815 1390 819 1397 825 1397 c 0
 831 1397 836 1395 844 1391 c 2
EndSplineSet
Substitution2: "smcpLowercasetoSmallCapitalslookup subtable" otilde.smcp
EndChar

StartChar: scaron
Encoding: 353 353 117
Width: 718
GlyphClass: 2
Flags: HW
HStem: -41 66<290 389 290 420> 831 66<344 437>
VStem: 59 57<236 240> 92 135<666 720> 508 150<160 219> 578 49<645 645>
LayerCount: 2
Fore
SplineSet
639 831 m 1xd8
 627 645 l 1
 578 645 l 1
 539 778 485 831 389 831 c 0
 299 831 227 772 227 698 c 0xd4
 227 632 254 608 416 518 c 0
 600 416 657 351 657 240 c 0
 657 80 514 -41 326 -41 c 0
 230 -41 160 -20 72 33 c 1
 59 236 l 1
 117 240 l 1xe8
 156 103 238 25 342 25 c 0
 436 25 508 94 508 182 c 0
 508 256 458 305 315 383 c 0
 147 471 92 536 92 647 c 0
 92 792 221 897 399 897 c 0
 481 897 547 878 639 831 c 1xd8
391 1225 m 1
 586 1575 l 2
 592 1587 596 1591 600 1591 c 0
 604 1591 608 1589 612 1587 c 2
 635 1575 l 2
 641 1573 645 1569 645 1565 c 0
 645 1557 643 1550 641 1542 c 2
 504 1196 l 2
 459 1081 432 1051 379 1051 c 0
 354 1051 329 1063 313 1083 c 0
 293 1108 293 1108 258 1192 c 2
 113 1544 l 2
 109 1554 106 1563 106 1565 c 0
 106 1569 113 1575 119 1577 c 2
 139 1585 l 2
 145 1587 150 1589 154 1589 c 0
 158 1589 166 1583 172 1573 c 2
 391 1225 l 1
EndSplineSet
Substitution2: "smcpLowercasetoSmallCapitalslookup subtable" scaron.smcp
EndChar

StartChar: udieresis
Encoding: 252 252 118
Width: 1095
GlyphClass: 2
Flags: HW
HStem: -41 131<496 509> 799 59 860 41G<322 322 903 903> 1116 225<315 377 731 793>
VStem: 188 156<291 344 344 645 645 672 672 707> 233 225<1199 1261> 649 225<1199 1261> 772 156<141 272 212 272 272 631 631 705>
LayerCount: 2
Fore
SplineSet
772 205 m 1xf9
 772 631 l 2
 772 778 756 799 629 797 c 0
 615 797 610 801 610 817 c 2
 610 838 l 2
 610 850 614 854 643 856 c 0
 745 868 768 872 903 901 c 1
 930 891 l 1
 930 877 930 823 928 729 c 2
 928 272 l 2
 928 151 928 135 936 123 c 0
 942 109 955 102 973 102 c 0
 991 102 1000 105 1057 119 c 1
 1061 109 1061 104 1061 92 c 0
 1061 80 1061 74 1057 66 c 2
 776 -41 l 1
 766 -8 l 1
 772 141 l 1
 622 -6 564 -41 455 -41 c 0
 371 -41 287 -4 242 53 c 0
 201 106 188 162 188 291 c 2
 188 645 l 2
 188 768 164 801 68 799 c 0
 29 797 27 799 27 817 c 2
 27 838 l 2
 27 854 27 854 74 858 c 0
 121 864 195 876 322 901 c 1
 346 891 l 1
 346 856 l 1
 344 778 l 1
 344 672 l 1
 344 344 l 2
 344 231 348 205 371 168 c 0
 402 119 460 90 530 90 c 0
 620 90 698 127 772 205 c 1xf9
346 1341 m 0
 409 1341 459 1292 459 1229 c 0xf4
 459 1166 410 1116 344 1116 c 0xf8
 283 1116 233 1168 233 1231 c 0xf4
 233 1290 285 1341 346 1341 c 0
762 1341 m 0
 825 1341 874 1292 874 1229 c 0
 874 1166 826 1116 760 1116 c 0
 699 1116 649 1168 649 1231 c 0xf2
 649 1290 701 1341 762 1341 c 0
EndSplineSet
Substitution2: "smcpLowercasetoSmallCapitalslookup subtable" udieresis.smcp
EndChar

StartChar: uacute
Encoding: 250 250 119
Width: 1095
GlyphClass: 2
Flags: HW
HStem: -41 131<496 509> 799 59 860 41G<322 322 903 903>
VStem: 188 156<291 344 344 645 645 672 672 707> 571 205 772 156<141 272 212 272 272 631 631 705>
LayerCount: 2
Fore
SplineSet
772 205 m 1xf4
 772 631 l 2
 772 778 756 799 629 797 c 0
 615 797 610 801 610 817 c 2
 610 838 l 2
 610 850 614 854 643 856 c 0
 745 868 768 872 903 901 c 1
 930 891 l 1
 930 877 930 823 928 729 c 2
 928 272 l 2xf4
 928 151 928 135 936 123 c 0
 942 109 955 102 973 102 c 0
 991 102 1000 105 1057 119 c 1
 1061 109 1061 104 1061 92 c 0
 1061 80 1061 74 1057 66 c 2
 776 -41 l 1xf8
 766 -8 l 1
 772 141 l 1
 622 -6 564 -41 455 -41 c 0
 371 -41 287 -4 242 53 c 0
 201 106 188 162 188 291 c 2
 188 645 l 2
 188 768 164 801 68 799 c 0
 29 797 27 799 27 817 c 2
 27 838 l 2
 27 854 27 854 74 858 c 0
 121 864 195 876 322 901 c 1
 346 891 l 1
 346 856 l 1
 344 778 l 1
 344 672 l 1
 344 344 l 2
 344 231 348 205 371 168 c 0
 402 119 460 90 530 90 c 0
 620 90 698 127 772 205 c 1xf4
432 1098 m 2
 571 1425 l 2
 628 1562 649 1591 696 1591 c 0
 739 1591 776 1554 776 1513 c 0xf8
 776 1474 762 1448 696 1360 c 2
 477 1067 l 2
 465 1051 465 1051 461 1051 c 0
 457 1051 455 1053 449 1055 c 2
 434 1063 l 2
 430 1067 426 1071 426 1075 c 0
 426 1079 428 1088 432 1098 c 2
EndSplineSet
Substitution2: "smcpLowercasetoSmallCapitalslookup subtable" uacute.smcp
EndChar

StartChar: ugrave
Encoding: 249 249 120
Width: 1095
GlyphClass: 2
Flags: HW
HStem: -41 131<496 509> 799 59 860 41G<322 322 903 903>
VStem: 188 156<291 344 344 645 645 672 672 707> 319 205<1425 1534> 772 156<141 272 212 272 272 631 631 705>
LayerCount: 2
Fore
SplineSet
772 205 m 1xf4
 772 631 l 2
 772 778 756 799 629 797 c 0
 615 797 610 801 610 817 c 2
 610 838 l 2
 610 850 614 854 643 856 c 0
 745 868 768 872 903 901 c 1
 930 891 l 1
 930 877 930 823 928 729 c 2
 928 272 l 2
 928 151 928 135 936 123 c 0
 942 109 955 102 973 102 c 0
 991 102 1000 105 1057 119 c 1
 1061 109 1061 104 1061 92 c 0
 1061 80 1061 74 1057 66 c 2
 776 -41 l 1
 766 -8 l 1
 772 141 l 1
 622 -6 564 -41 455 -41 c 0
 371 -41 287 -4 242 53 c 0
 201 106 188 162 188 291 c 2
 188 645 l 2
 188 768 164 801 68 799 c 0
 29 797 27 799 27 817 c 2
 27 838 l 2
 27 854 27 854 74 858 c 0
 121 864 195 876 322 901 c 1
 346 891 l 1
 346 856 l 1
 344 778 l 1
 344 672 l 1
 344 344 l 2
 344 231 348 205 371 168 c 0
 402 119 460 90 530 90 c 0
 620 90 698 127 772 205 c 1xf4
616 1067 m 2
 399 1360 l 2
 336 1442 319 1474 319 1511 c 0
 319 1556 356 1591 399 1591 c 0
 446 1591 465 1564 524 1425 c 2xec
 662 1098 l 2
 666 1088 668 1081 668 1075 c 0
 668 1071 663 1067 659 1063 c 2
 645 1055 l 2
 641 1053 637 1051 635 1051 c 0
 631 1051 628 1053 616 1067 c 2
EndSplineSet
Substitution2: "smcpLowercasetoSmallCapitalslookup subtable" ugrave.smcp
EndChar

StartChar: ucircumflex
Encoding: 251 251 121
Width: 1095
GlyphClass: 2
Flags: HMW
HStem: -41 131<496 509> 799 59 860 41G<322 322 903 903>
VStem: 188 156<291 344 344 645 645 672 672 707> 772 156<141 272 212 272 272 631 631 705>
LayerCount: 2
Fore
SplineSet
772 205 m 1
 772 631 l 2
 772 778 756 799 629 797 c 0
 615 797 610 801 610 817 c 2
 610 838 l 2
 610 850 614 854 643 856 c 0
 745 868 768 872 903 901 c 1
 930 891 l 1
 930 877 930 823 928 729 c 2
 928 272 l 2
 928 151 928 135 936 123 c 0
 942 109 955 102 973 102 c 0
 991 102 1000 105 1057 119 c 1
 1061 109 1061 104 1061 92 c 0
 1061 80 1061 74 1057 66 c 2
 776 -41 l 1
 766 -8 l 1
 772 141 l 1
 622 -6 564 -41 455 -41 c 0
 371 -41 287 -4 242 53 c 0
 201 106 188 162 188 291 c 2
 188 645 l 2
 188 768 164 801 68 799 c 0
 29 797 27 799 27 817 c 2
 27 838 l 2
 27 854 27 854 74 858 c 0
 121 864 195 876 322 901 c 1
 346 891 l 1
 346 856 l 1
 344 778 l 1
 344 672 l 1
 344 344 l 2
 344 231 348 205 371 168 c 0
 402 119 460 90 530 90 c 0
 620 90 698 127 772 205 c 1
551 1417 m 1
 356 1067 l 2
 350 1055 346 1051 340 1051 c 2
 330 1053 l 1
 305 1065 l 2
 299 1069 295 1073 295 1077 c 0
 295 1081 297 1090 301 1100 c 2
 438 1444 l 2
 483 1561 510 1591 563 1591 c 0
 586 1591 613 1579 629 1559 c 0
 649 1534 649 1534 684 1448 c 2
 827 1096 l 2
 831 1088 834 1079 834 1075 c 0
 834 1071 829 1067 821 1063 c 2
 803 1055 l 2
 795 1053 790 1051 788 1051 c 0
 782 1051 776 1057 770 1067 c 2
 551 1417 l 1
EndSplineSet
Substitution2: "smcpLowercasetoSmallCapitalslookup subtable" ucircumflex.smcp
EndChar

StartChar: yacute
Encoding: 253 253 122
Width: 1095
GlyphClass: 2
Flags: HMW
HStem: -549 164<161 263> 809 66<37 46 30 102 471 475>
VStem: 571 207<1425 1534>
LayerCount: 2
Fore
SplineSet
578 182 m 1
 760 598 l 2
 799 686 817 736 817 752 c 0
 817 791 782 811 721 811 c 0
 686 809 680 813 680 829 c 2
 680 848 l 2
 680 871 682 874 709 874 c 0
 725 874 758 872 791 868 c 0
 828 864 856 862 874 862 c 0
 880 862 899 864 1034 872 c 0
 1044 874 1055 874 1059 874 c 0
 1071 874 1079 866 1079 848 c 2
 1079 829 l 2
 1079 811 1077 809 1030 807 c 0
 942 799 915 770 825 573 c 2
 514 -106 l 2
 453 -243 375 -393 328 -461 c 0
 291 -518 241 -549 186 -549 c 0
 135 -549 98 -512 98 -459 c 0
 98 -410 131 -367 168 -367 c 0
 178 -367 181 -367 201 -377 c 0
 217 -383 221 -385 229 -385 c 0
 297 -385 367 -295 451 -92 c 2
 487 -2 l 1
 215 680 l 2
 172 793 153 809 51 809 c 0
 22 809 16 813 16 829 c 2
 16 852 l 2
 16 870 21 874 39 874 c 0
 53 874 98 872 143 868 c 0
 194 864 237 862 260 862 c 0
 291 862 328 864 381 868 c 0
 438 872 463 874 479 874 c 0
 499 874 504 870 504 852 c 2
 504 829 l 2
 504 811 498 809 453 809 c 0
 387 811 358 799 358 770 c 0
 358 758 360 756 391 670 c 2
 578 182 l 1
434 1098 m 2
 571 1425 l 2
 628 1562 651 1591 698 1591 c 0
 741 1591 778 1554 778 1513 c 0
 778 1474 766 1450 696 1360 c 2
 479 1067 l 2
 467 1051 467 1051 463 1051 c 0
 459 1051 455 1053 451 1055 c 2
 436 1063 l 2
 432 1067 428 1071 428 1075 c 0
 428 1079 430 1088 434 1098 c 2
EndSplineSet
Substitution2: "smcpLowercasetoSmallCapitalslookup subtable" yacute.smcp
EndChar

StartChar: zcaron
Encoding: 382 382 123
Width: 944
GlyphClass: 2
Flags: HMW
HStem: -6 59<353 652> 805 57<370 611>
LayerCount: 2
Fore
SplineSet
55 -10 m 1
 55 16 l 1
 596 731 l 2
 604 741 627 768 629 770 c 0
 637 778 639 782 639 786 c 0
 639 802 612 805 467 805 c 0
 272 805 197 778 154 694 c 0
 140 669 137 666 129 666 c 0
 127 666 125 666 121 668 c 2
 96 672 l 2
 88 674 86 676 86 682 c 0
 86 686 88 690 90 698 c 0
 98 725 94 710 102 739 c 0
 112 768 121 794 127 821 c 0
 156 944 155 944 178 944 c 2
 199 944 l 1
 224 878 239 868 311 866 c 2
 420 864 l 2
 471 862 516 862 563 862 c 0
 659 862 733 864 868 870 c 1
 874 854 l 1
 369 172 l 2
 357 154 342 135 328 117 c 0
 305 92 301 84 301 74 c 0
 301 58 340 53 543 53 c 0
 762 53 779 59 838 172 c 2
 866 225 l 2
 878 245 883 252 891 252 c 0
 909 250 930 237 930 225 c 0
 930 219 930 219 918 184 c 2
 868 31 l 2
 854 -10 851 -14 831 -14 c 0
 823 -14 800 -14 782 -12 c 0
 749 -10 456 -6 399 -6 c 0
 307 -6 299 -6 55 -10 c 1
506 1225 m 1
 698 1575 l 2
 706 1587 711 1591 715 1591 c 0
 717 1591 721 1589 727 1587 c 2
 750 1575 l 2
 756 1573 760 1569 760 1563 c 0
 760 1559 758 1550 754 1542 c 2
 618 1196 l 2
 571 1081 547 1051 494 1051 c 0
 469 1051 442 1063 426 1083 c 0
 406 1108 406 1108 373 1192 c 2
 227 1544 l 2
 223 1554 221 1563 221 1565 c 0
 221 1569 227 1575 233 1577 c 2
 254 1585 l 2
 258 1587 264 1589 266 1589 c 0
 272 1589 279 1583 287 1573 c 2
 506 1225 l 1
EndSplineSet
Substitution2: "smcpLowercasetoSmallCapitalslookup subtable" zcaron.smcp
EndChar

StartChar: eth
Encoding: 240 240 124
Width: 1095
GlyphClass: 2
Flags: HMW
HStem: -31 78<464 639 464 672> 829 78<459 590 430 639> 1505 70<172 406>
VStem: 82 168<341 561> 854 168<330 537 330 555>
LayerCount: 2
Fore
SplineSet
463 1276 m 1
 303 1163 l 1
 252 1229 l 1
 408 1343 l 1
 307 1454 l 2
 272 1493 260 1499 213 1503 c 2
 172 1505 l 1
 172 1575 l 1
 406 1575 l 1
 444 1536 l 2
 469 1513 488 1491 535 1436 c 1
 674 1536 l 1
 729 1468 l 1
 594 1372 l 1
 647 1309 l 2
 815 1100 848 1053 907 932 c 0
 977 789 1022 604 1022 469 c 0
 1022 190 807 -31 537 -31 c 0
 281 -31 82 170 82 426 c 0
 82 696 295 907 565 907 c 0
 614 907 662 901 711 887 c 2
 756 874 l 1
 631 1069 596 1118 463 1276 c 1
549 829 m 0
 369 829 250 684 250 463 c 0
 250 219 375 47 553 47 c 0
 725 47 854 215 854 440 c 0
 854 669 729 829 549 829 c 0
EndSplineSet
Substitution2: "smcpLowercasetoSmallCapitalslookup subtable" eth.smcp
EndChar

StartChar: thorn
Encoding: 254 254 125
Width: 1095
GlyphClass: 2
Flags: HMW
HStem: -553 59 -41 90<518 646> 764 133<648 651>
VStem: 199 156<-266 -23 193 240 240 698 762 1223 1223 1293> 870 166<329 504>
LayerCount: 2
Fore
SplineSet
354 -23 m 1
 354 -266 l 1
 356 -406 l 2
 358 -478 383 -490 516 -494 c 0
 541 -496 549 -500 549 -514 c 2
 549 -528 l 2
 549 -548 543 -553 512 -553 c 0
 483 -553 438 -551 391 -545 c 0
 342 -541 303 -539 272 -539 c 0
 239 -539 203 -541 162 -545 c 0
 107 -553 101 -553 76 -553 c 0
 53 -553 49 -548 49 -528 c 2
 49 -514 l 2
 49 -500 55 -496 80 -494 c 0
 135 -492 178 -475 186 -455 c 0
 194 -443 197 -433 197 -406 c 2
 199 -266 l 1
 199 1223 l 2
 199 1364 196 1368 92 1423 c 1
 88 1450 l 1
 223 1516 l 2
 246 1528 270 1540 295 1550 c 2
 344 1575 l 1
 354 1571 l 1
 354 762 l 1
 489 834 l 2
 573 877 629 897 668 897 c 0
 863 897 1036 694 1036 465 c 0
 1036 193 791 -41 502 -41 c 0
 457 -41 415 -35 354 -23 c 1
354 698 m 1
 354 240 l 2
 354 146 354 142 381 113 c 0
 414 74 481 49 555 49 c 0
 748 49 870 184 870 395 c 0
 870 612 743 764 559 764 c 0
 483 764 424 745 354 698 c 1
EndSplineSet
Substitution2: "smcpLowercasetoSmallCapitalslookup subtable" thorn.smcp
EndChar

StartChar: ydieresis
Encoding: 255 255 126
Width: 1095
GlyphClass: 2
Flags: HMW
HStem: -549 164<161 263> 809 66<37 46 30 102 471 475> 1116 225<315 377 733 795>
VStem: 233 225<1199 1261> 651 225<1199 1260 1197 1261>
LayerCount: 2
Fore
SplineSet
578 182 m 1
 760 598 l 2
 799 686 817 736 817 752 c 0
 817 791 782 811 721 811 c 0
 686 809 680 813 680 829 c 2
 680 848 l 2
 680 871 682 874 709 874 c 0
 725 874 758 872 791 868 c 0
 828 864 856 862 874 862 c 0
 880 862 899 864 1034 872 c 0
 1044 874 1055 874 1059 874 c 0
 1071 874 1079 866 1079 848 c 2
 1079 829 l 2
 1079 811 1077 809 1030 807 c 0
 942 799 915 770 825 573 c 2
 514 -106 l 2
 453 -243 375 -393 328 -461 c 0
 291 -518 241 -549 186 -549 c 0
 135 -549 98 -512 98 -459 c 0
 98 -410 131 -367 168 -367 c 0
 178 -367 181 -367 201 -377 c 0
 217 -383 221 -385 229 -385 c 0
 297 -385 367 -295 451 -92 c 2
 487 -2 l 1
 215 680 l 2
 172 793 153 809 51 809 c 0
 22 809 16 813 16 829 c 2
 16 852 l 2
 16 870 21 874 39 874 c 0
 53 874 98 872 143 868 c 0
 194 864 237 862 260 862 c 0
 291 862 328 864 381 868 c 0
 438 872 463 874 479 874 c 0
 499 874 504 870 504 852 c 2
 504 829 l 2
 504 811 498 809 453 809 c 0
 387 811 358 799 358 770 c 0
 358 758 360 756 391 670 c 2
 578 182 l 1
346 1341 m 0
 409 1341 459 1292 459 1229 c 0
 459 1166 410 1116 344 1116 c 0
 283 1116 233 1168 233 1231 c 0
 233 1290 285 1341 346 1341 c 0
764 1341 m 0
 825 1341 877 1290 877 1229 c 0
 877 1166 828 1116 762 1116 c 0
 701 1116 651 1168 651 1231 c 0
 651 1290 703 1341 764 1341 c 0
EndSplineSet
Substitution2: "smcpLowercasetoSmallCapitalslookup subtable" ydieresis.smcp
EndChar

StartChar: one
Encoding: 49 49 127
Width: 980
GlyphClass: 2
Flags: HMW
HStem: -10 57<283 283>
VStem: 455 168<260 995>
LayerCount: 2
Fore
SplineSet
565 1364 m 1
 637 1354 l 1
 629 1137 l 2
 625 1071 623 1022 623 995 c 2
 623 256 l 2
 623 131 625 119 645 92 c 0
 665 65 704 51 784 47 c 0
 819 43 819 43 819 29 c 2
 819 8 l 2
 819 -6 815 -10 801 -10 c 0
 770 -8 770 -8 702 -6 c 0
 667 -6 668 -6 537 0 c 1
 426 -6 301 -10 283 -10 c 0
 269 -10 264 -6 264 8 c 2
 264 31 l 2
 264 41 267 45 281 47 c 0
 445 61 455 74 455 260 c 2
 455 1102 l 2
 453 1161 452 1161 444 1161 c 0
 440 1161 441 1161 410 1141 c 2
 272 1055 l 1
 258 1044 l 2
 248 1038 244 1036 240 1036 c 0
 236 1036 231 1043 225 1053 c 2
 217 1065 l 2
 209 1077 209 1077 209 1081 c 0
 209 1085 213 1092 223 1098 c 0
 327 1155 454 1253 565 1364 c 1
EndSplineSet
Substitution2: "onumOldstyleFigureslookup subtable" one.onum
Substitution2: "cv01CharacterVariants01 subtable" one.cv01
Substitution2: "supsSuperscriptlookup subtable" onesuperior
EndChar

StartChar: two
Encoding: 50 50 128
Width: 980
GlyphClass: 2
Flags: HMW
HStem: -4 170 1225 154<477 518>
VStem: 664 203<970 1042>
LayerCount: 2
Fore
SplineSet
49 -8 m 1
 47 45 l 1
 72 88 80 96 129 145 c 0
 524 524 664 738 664 965 c 0
 664 1121 580 1225 457 1225 c 0
 379 1225 305 1191 244 1128 c 0
 228 1114 227 1114 172 1042 c 0
 160 1024 156 1022 150 1022 c 0
 146 1022 139 1024 135 1026 c 2
 121 1038 l 2
 113 1044 109 1049 109 1055 c 0
 109 1065 121 1087 141 1118 c 0
 254 1286 401 1378 553 1378 c 0
 647 1378 735 1339 786 1276 c 0
 833 1219 866 1120 866 1042 c 0
 866 897 784 734 614 539 c 0
 528 441 527 438 289 211 c 0
 275 195 262 180 248 170 c 1
 273 166 283 166 299 166 c 0
 307 166 307 166 379 170 c 2
 848 182 l 2
 914 182 913 182 913 174 c 0
 913 170 913 170 901 150 c 2
 852 41 l 2
 836 4 820 -10 793 -10 c 0
 777 -10 746 -8 711 -6 c 2
 428 0 l 2
 403 0 351 -2 281 -4 c 0
 193 -6 142 -8 119 -8 c 2
 49 -8 l 1
EndSplineSet
Substitution2: "onumOldstyleFigureslookup subtable" two.onum
Substitution2: "supsSuperscriptlookup subtable" twosuperior
EndChar

StartChar: three
Encoding: 51 51 129
Width: 980
GlyphClass: 2
Flags: HW
HStem: -10 100<349 360> 1235 143<388 430>
VStem: 580 156<1028 1225> 657 182<460 522>
LayerCount: 2
Fore
SplineSet
162 1122 m 1xe0
 121 1153 l 1
 193 1300 311 1378 465 1378 c 0
 619 1378 735 1286 735 1163 c 0xe0
 735 1075 692 995 573 874 c 1
 733 835 840 696 840 526 c 0
 840 393 770 250 651 139 c 0
 545 39 426 -10 295 -10 c 0
 160 -10 78 35 78 109 c 0
 78 152 113 184 160 184 c 0
 197 184 217 174 285 119 c 0
 308 103 337 90 360 90 c 0
 432 90 527 136 578 195 c 0
 627 250 657 344 657 438 c 0xd0
 657 606 571 717 436 717 c 0
 403 717 380 712 360 702 c 1
 332 739 l 1
 500 880 580 987 580 1069 c 0
 580 1159 486 1235 375 1235 c 0
 297 1235 236 1202 162 1122 c 1xe0
EndSplineSet
Substitution2: "onumOldstyleFigureslookup subtable" three.onum
Substitution2: "supsSuperscriptlookup subtable" threesuperior
EndChar

StartChar: four
Encoding: 52 52 130
Width: 980
GlyphClass: 2
Flags: HW
HStem: -10 43G<563 580 580 680> 436 135<709 864>
VStem: 551 158<281 436> 555 178
LayerCount: 2
Fore
SplineSet
709 436 m 1xe0
 709 25 l 2
 709 -10 709 -10 680 -10 c 2
 580 -10 l 2
 547 -10 541 -6 541 10 c 2
 541 25 l 1
 543 45 l 1
 545 121 l 1
 551 281 l 1
 551 442 l 1xe0
 475 442 l 2
 375 442 164 430 88 420 c 0
 80 418 70 418 66 418 c 0
 52 418 43 432 43 461 c 0
 43 481 57 507 104 575 c 2
 657 1362 l 1
 700 1362 l 2
 731 1362 733 1362 733 1329 c 0xd0
 733 1311 727 1215 721 1104 c 0
 713 973 709 874 709 813 c 2
 709 571 l 1
 864 571 l 2
 915 571 922 563 922 510 c 0
 922 444 915 436 864 436 c 2
 709 436 l 1xe0
551 571 m 1
 555 1108 l 1xd0
 528 1079 496 1030 410 899 c 2
 313 752 l 2
 258 666 223 604 223 594 c 0
 223 576 236 571 297 571 c 2
 551 571 l 1
EndSplineSet
Substitution2: "onumOldstyleFigureslookup subtable" four.onum
Substitution2: "supsSuperscriptlookup subtable" foursuperior
EndChar

StartChar: five
Encoding: 53 53 131
Width: 980
GlyphClass: 2
Flags: HMW
HStem: -10 100<250 481> 752 180<393 445> 1196 162<345 389 389 625>
VStem: 694 182<427 479>
LayerCount: 2
Fore
SplineSet
195 690 m 1
 162 705 l 1
 229 1268 l 2
 235 1307 238 1319 240 1329 c 0
 240 1337 242 1342 248 1358 c 1
 791 1358 l 1
 764 1286 l 2
 731 1198 727 1196 625 1196 c 2
 389 1196 l 2
 301 1196 301 1196 291 1106 c 2
 276 981 l 1
 274 932 l 2
 274 922 279 918 291 918 c 0
 293 918 297 918 303 920 c 0
 350 930 373 932 414 932 c 0
 693 932 877 762 877 504 c 0
 877 350 811 228 672 119 c 0
 566 37 434 -10 317 -10 c 0
 182 -10 90 39 90 113 c 0
 90 156 131 190 178 190 c 0
 209 190 218 186 279 139 c 0
 318 106 360 90 401 90 c 0
 561 90 694 248 694 438 c 0
 694 520 668 600 623 657 c 0
 572 720 497 752 393 752 c 0
 313 752 263 735 195 690 c 1
EndSplineSet
Substitution2: "onumOldstyleFigureslookup subtable" five.onum
Substitution2: "supsSuperscriptlookup subtable" fivesuperior
EndChar

StartChar: six
Encoding: 54 54 132
Width: 980
GlyphClass: 2
Flags: HMW
HStem: -10 66<436 577 436 628> 668 90<524 567>
VStem: 84 180<352 450 319 701> 737 182<275 443>
LayerCount: 2
Fore
SplineSet
692 1384 m 1
 727 1331 l 1
 459 1136 305 893 276 621 c 1
 387 723 467 758 582 758 c 0
 787 758 920 612 920 391 c 0
 920 160 746 -10 510 -10 c 0
 252 -10 84 195 84 510 c 0
 84 893 299 1202 692 1384 c 1
272 547 m 1
 266 492 264 465 264 434 c 0
 264 205 360 55 512 55 c 0
 641 55 737 182 737 352 c 0
 737 534 637 668 498 668 c 0
 412 668 333 625 272 547 c 1
EndSplineSet
Substitution2: "onumOldstyleFigureslookup subtable" six.onum
Substitution2: "supsSuperscriptlookup subtable" sixsuperior
EndChar

StartChar: seven
Encoding: 55 55 133
Width: 980
GlyphClass: 2
Flags: HMW
HStem: -10 43G<195 195> 1206 152<225 541>
LayerCount: 2
Fore
SplineSet
57 1206 m 1
 115 1307 l 2
 140 1350 139 1350 147 1354 c 0
 157 1358 172 1358 225 1358 c 2
 858 1358 l 2
 934 1358 944 1356 944 1331 c 0
 944 1317 935 1299 915 1260 c 0
 899 1231 882 1200 866 1167 c 0
 841 1120 815 1071 788 1024 c 2
 258 96 l 1
 227 41 l 2
 221 33 215 22 209 12 c 0
 205 4 199 -4 195 -10 c 2
 94 59 l 1
 469 684 l 2
 520 770 520 770 696 1092 c 0
 719 1133 727 1153 727 1169 c 0
 727 1202 707 1206 541 1206 c 2
 57 1206 l 1
EndSplineSet
Substitution2: "onumOldstyleFigureslookup subtable" seven.onum
Substitution2: "supsSuperscriptlookup subtable" sevensuperior
EndChar

StartChar: eight
Encoding: 56 56 134
Width: 980
GlyphClass: 2
Flags: HW
HStem: -10 68<431 550 431 584> 1311 68<442 555>
VStem: 119 156<258 338> 141 156<1027 1128> 686 168<246 311>
LayerCount: 2
Fore
SplineSet
377 659 m 1xe8
 348 684 l 2
 237 782 215 805 186 854 c 0
 155 909 141 967 141 1028 c 0xd8
 141 1229 299 1378 510 1378 c 0
 709 1378 848 1255 848 1081 c 0
 848 987 805 899 723 829 c 0
 688 800 664 780 592 725 c 1
 662 674 692 647 731 610 c 0
 807 538 854 438 854 346 c 0
 854 145 690 -10 477 -10 c 0
 276 -10 119 123 119 295 c 0
 119 381 164 475 236 547 c 0
 275 586 305 610 377 659 c 1xe8
541 754 m 1
 549 762 551 762 561 770 c 0
 649 844 692 932 692 1036 c 0
 692 1200 613 1311 498 1311 c 0
 387 1311 297 1206 297 1079 c 0
 297 975 353 901 541 754 c 1
428 631 m 0
 422 627 422 627 414 621 c 0
 328 553 274 446 274 340 c 0xe8
 274 176 367 57 496 57 c 0
 605 57 686 151 686 274 c 0
 686 348 659 420 608 479 c 0
 583 508 541 544 455 610 c 0
 449 614 438 623 428 631 c 0
EndSplineSet
Substitution2: "onumOldstyleFigureslookup subtable" eight.onum
Substitution2: "supsSuperscriptlookup subtable" eightsuperior
EndChar

StartChar: nine
Encoding: 57 57 135
Width: 980
GlyphClass: 2
Flags: HMW
HStem: -18 43G<285 285> 608 92<412 455> 1313 66<402 541>
VStem: 63 182<925 1093> 705 182<819 819>
LayerCount: 2
Fore
SplineSet
285 -18 m 1
 250 35 l 1
 518 230 673 477 700 745 c 1
 589 643 512 608 397 608 c 0
 194 608 63 754 63 977 c 0
 63 1208 234 1378 467 1378 c 0
 721 1378 887 1173 887 858 c 0
 887 475 674 166 285 -18 c 1
705 819 m 1
 707 918 l 2
 707 1164 617 1313 465 1313 c 0
 340 1313 246 1186 246 1016 c 0
 246 834 344 700 479 700 c 0
 565 700 644 743 705 819 c 1
EndSplineSet
Substitution2: "onumOldstyleFigureslookup subtable" nine.onum
Substitution2: "supsSuperscriptlookup subtable" ninesuperior
EndChar

StartChar: zero
Encoding: 48 48 136
Width: 980
GlyphClass: 2
Flags: HMW
HStem: -10 180<391 538 391 637> 1198 180<419 526>
VStem: 76 90<551 806> 813 92<620 752>
LayerCount: 2
Fore
SplineSet
487 1378 m 0
 753 1378 905 1126 905 684 c 0
 905 229 768 -10 506 -10 c 0
 227 -10 76 242 76 707 c 0
 76 906 112 1077 182 1198 c 0
 252 1319 350 1378 487 1378 c 0
473 1198 m 0
 276 1198 166 1026 166 715 c 0
 166 387 294 170 487 170 c 0
 587 170 684 232 735 330 c 0
 784 426 813 555 813 684 c 0
 813 819 780 955 723 1051 c 0
 666 1147 579 1198 473 1198 c 0
EndSplineSet
Substitution2: "onumOldstyleFigureslookup subtable" zero.onum
Substitution2: "supsSuperscriptlookup subtable" zerosuperior
EndChar

StartChar: sterling
Encoding: 163 163 137
Width: 983
GlyphClass: 2
Flags: HW
HStem: -223 131<593 793> 655 82<92 246 113 240 393 541> 1507 74<675 734>
VStem: 791 178 864 84<-35 -1>
LayerCount: 2
Fore
SplineSet
541 655 m 2xf0
 387 655 l 1
 332 354 318 295 244 59 c 1
 359 36 385 31 485 -8 c 0
 655 -74 719 -92 768 -92 c 0
 817 -92 864 -55 864 -14 c 0xe8
 864 13 852 26 791 59 c 0xf0
 744 86 721 114 721 147 c 0
 721 186 758 221 797 221 c 0
 877 221 948 129 948 25 c 0xe8
 948 -114 813 -223 639 -223 c 0
 547 -223 467 -190 358 -106 c 0
 276 -43 270 -39 221 -14 c 1
 182 -86 166 -108 141 -137 c 0
 102 -182 45 -213 0 -213 c 0
 -39 -213 -74 -180 -74 -143 c 0
 -74 -92 -30 -31 27 4 c 0
 64 27 94 39 170 57 c 1
 205 180 224 342 240 655 c 1
 106 655 l 2
 77 655 74 660 74 680 c 2
 74 711 l 2
 74 734 80 737 113 737 c 2
 246 737 l 1
 264 966 271 1022 281 1094 c 0
 314 1289 361 1391 455 1473 c 0
 533 1543 629 1581 721 1581 c 0
 856 1581 969 1497 969 1395 c 0
 969 1342 930 1300 881 1300 c 0
 852 1300 827 1312 811 1337 c 0
 795 1360 795 1360 791 1442 c 0
 789 1481 756 1507 713 1507 c 0
 574 1507 488 1311 406 813 c 2
 393 737 l 1
 541 737 l 2
 561 737 567 731 567 711 c 2
 567 680 l 2
 567 657 564 655 541 655 c 2xf0
EndSplineSet
EndChar

StartChar: dollar
Encoding: 36 36 138
Width: 980
GlyphClass: 2
Flags: HMW
HStem: 0 88<451 451 451 528> 1266 88<451 451 451 528>
VStem: 127 162<1024 1091> 451 78<-106 0 88 606 846 1266 1354 1456> 711 162<309 396>
LayerCount: 2
Fore
SplineSet
451 88 m 1
 451 647 l 1
 359 690 323 710 272 745 c 0
 178 811 127 904 127 1006 c 0
 127 1176 254 1313 451 1354 c 1
 451 1460 l 2
 451 1483 455 1487 471 1487 c 2
 508 1487 l 2
 524 1487 528 1481 528 1456 c 2
 528 1354 l 1
 620 1348 670 1335 731 1298 c 0
 809 1253 850 1202 850 1145 c 0
 850 1098 819 1061 780 1061 c 0
 743 1061 723 1079 664 1163 c 0
 615 1231 581 1256 528 1266 c 1
 528 811 l 1
 544 801 562 790 580 782 c 0
 707 712 756 676 799 625 c 0
 848 564 872 490 872 406 c 0
 872 213 743 61 528 0 c 1
 528 -106 l 2
 528 -124 522 -133 508 -133 c 2
 475 -133 l 2
 459 -133 451 -122 451 -106 c 2
 451 0 l 1
 347 2 285 18 215 63 c 0
 147 108 102 170 102 219 c 0
 102 262 135 295 176 295 c 0
 209 295 235 276 272 227 c 0
 352 123 379 102 451 88 c 1
528 606 m 1
 528 88 l 1
 639 108 711 207 711 336 c 0
 711 457 657 534 528 606 c 1
451 846 m 1
 451 1266 l 1
 345 1243 289 1177 289 1075 c 0
 289 973 336 905 451 846 c 1
EndSplineSet
EndChar

StartChar: cent
Encoding: 162 162 139
Width: 983
GlyphClass: 2
Flags: HMW
HStem: -10 43G<492 569 492 492> 217 129<492 648 569 648> 903 43G<761 800> 1042 78<492 492>
VStem: 125 162<643 708> 492 78<-10 217 -10 217 369 1042 1042 1042 1135 1362>
LayerCount: 2
Fore
SplineSet
492 1120 m 1
 492 1362 l 1
 569 1362 l 1
 569 1135 l 1
 594 1135 l 2
 739 1135 850 1069 850 981 c 0
 850 936 819 903 780 903 c 0
 741 903 729 913 668 985 c 0
 631 1028 608 1043 569 1047 c 1
 569 348 l 1
 585 346 598 346 608 346 c 0
 688 346 752 383 848 481 c 1
 858 494 l 1
 895 453 l 1
 791 312 688 237 569 217 c 1
 569 -10 l 1
 492 -10 l 1
 492 217 l 1
 392 233 335 256 276 307 c 0
 178 391 125 506 125 639 c 0
 125 776 176 907 262 993 c 0
 323 1054 383 1087 492 1120 c 1
492 369 m 1
 492 1042 l 1
 447 1030 422 1020 393 997 c 0
 325 944 287 842 287 725 c 0
 287 561 353 447 492 369 c 1
EndSplineSet
Substitution2: "cv02CharacterVariants02 subtable" cent.cv01
EndChar

StartChar: florin
Encoding: 402 402 140
Width: 980
GlyphClass: 2
Flags: HMW
HStem: -522 106<-31 -28> 799 78<247 406 274 389 543 707> 1503 70<818 863>
LayerCount: 2
Fore
SplineSet
274 877 m 2
 406 877 l 1
 500 1196 516 1245 582 1374 c 0
 645 1497 758 1573 879 1573 c 0
 994 1573 1090 1512 1090 1440 c 0
 1090 1397 1057 1364 1016 1364 c 0
 979 1364 959 1381 932 1432 c 0
 905 1483 881 1503 846 1503 c 0
 780 1503 731 1440 668 1272 c 0
 639 1202 635 1188 543 877 c 1
 719 877 l 2
 737 877 754 864 750 854 c 2
 737 817 l 2
 733 805 723 799 707 799 c 2
 522 799 l 1
 452 492 379 239 279 -37 c 0
 154 -385 45 -522 -100 -522 c 0
 -161 -522 -211 -481 -211 -432 c 0
 -211 -387 -170 -348 -123 -348 c 0
 -96 -348 -84 -356 -55 -395 c 0
 -45 -409 -35 -416 -27 -416 c 0
 6 -416 39 -367 86 -240 c 0
 166 -33 213 121 311 508 c 0
 340 619 350 660 389 799 c 1
 256 799 l 2
 238 799 223 807 225 819 c 2
 225 819 225 821 227 825 c 2
 238 862 l 2
 242 870 254 877 274 877 c 2
EndSplineSet
EndChar

StartChar: Euro
Encoding: 8364 8364 141
Width: 980
GlyphClass: 2
Flags: HMW
HStem: -66 80<546 655 546 656> 528 84<6 94 41 94 41 104 319 690 319 319> 786 84<4 102 39 94 319 774> 1368 80<525 626 457 653>
VStem: 90 219<687 718 683 720> 821 55 885 45
LayerCount: 2
Fore
SplineSet
319 870 m 1
 805 870 l 2
 813 870 817 866 817 860 c 0
 817 858 817 856 815 854 c 2
 793 799 l 2
 789 789 784 786 774 786 c 2
 313 786 l 1
 311 759 309 735 309 700 c 0
 309 665 311 641 313 612 c 1
 723 612 l 2
 731 612 735 608 735 602 c 0
 735 600 735 598 733 596 c 2
 711 541 l 2
 707 531 702 528 690 528 c 2
 319 528 l 1
 327 446 346 354 371 272 c 0
 424 88 489 14 602 14 c 0
 708 14 796 90 821 199 c 0
 827 232 832 238 842 236 c 2
 850 233 l 1
 862 231 l 2
 872 231 877 225 877 215 c 0
 877 209 876 194 874 178 c 2
 854 -6 l 1
 745 -53 693 -66 621 -66 c 0
 412 -66 256 68 156 336 c 0
 131 399 116 456 104 528 c 1
 10 528 l 2
 2 528 -2 533 -2 539 c 0
 -2 541 -2 543 0 545 c 2
 23 600 l 2
 27 610 31 612 41 612 c 2
 94 612 l 1
 92 643 90 670 90 705 c 0
 90 736 90 755 94 786 c 1
 8 786 l 2
 0 786 -4 791 -4 797 c 0
 -4 799 -4 801 -2 803 c 2
 20 858 l 2
 24 868 29 870 39 870 c 2
 102 870 l 1
 153 1208 346 1448 567 1448 c 0
 684 1448 809 1407 905 1337 c 1
 928 1079 l 2
 930 1067 930 1059 930 1055 c 0
 930 1047 925 1042 915 1040 c 2
 903 1038 l 2
 899 1036 895 1036 893 1036 c 0
 889 1036 887 1041 885 1049 c 0
 830 1252 721 1368 586 1368 c 0
 465 1368 397 1280 348 1055 c 0
 336 998 325 936 319 870 c 1
EndSplineSet
EndChar

StartChar: yen
Encoding: 165 165 142
Width: 980
GlyphClass: 2
Flags: HMW
HStem: -10 63<299 333> 348 82<209 444 209 444 625 858> 545 82<209 444 209 444 625 858> 1350 74<707 707>
VStem: 444 180<236 348 158 348 430 545 627 692 692 692>
LayerCount: 2
Fore
SplineSet
444 430 m 1
 444 545 l 1
 209 545 l 1
 209 627 l 1
 444 627 l 1
 444 692 l 1
 219 1184 l 2
 213 1204 207 1221 199 1231 c 0
 162 1315 133 1348 88 1354 c 2
 53 1360 l 2
 39 1360 29 1372 29 1384 c 2
 29 1401 l 2
 29 1415 41 1423 61 1423 c 0
 81 1423 127 1421 162 1417 c 0
 203 1413 234 1411 252 1411 c 0
 268 1411 297 1413 332 1417 c 0
 361 1421 396 1423 410 1423 c 0
 433 1423 444 1413 444 1395 c 2
 444 1376 l 2
 440 1358 434 1354 399 1350 c 0
 368 1344 348 1326 348 1303 c 0
 348 1291 355 1274 369 1245 c 0
 379 1225 389 1204 397 1184 c 2
 573 797 l 1
 760 1231 l 2
 776 1270 786 1303 786 1313 c 0
 786 1333 773 1340 707 1350 c 0
 687 1352 676 1360 676 1372 c 2
 676 1397 l 2
 676 1413 689 1423 709 1423 c 0
 717 1423 731 1421 745 1419 c 0
 776 1413 803 1411 821 1411 c 0
 837 1411 858 1413 883 1417 c 0
 908 1421 928 1423 942 1423 c 0
 960 1423 975 1411 975 1397 c 2
 975 1378 l 2
 975 1364 970 1356 952 1350 c 0
 889 1325 870 1302 827 1210 c 2
 625 735 l 1
 625 627 l 1
 858 627 l 1
 858 545 l 1
 625 545 l 1
 625 430 l 1
 858 430 l 1
 858 348 l 1
 625 348 l 1
 625 225 l 2
 625 90 651 59 782 53 c 0
 807 51 813 45 813 27 c 2
 813 14 l 2
 813 -2 804 -10 784 -10 c 0
 759 -10 690 -8 639 -4 c 0
 596 -2 565 0 545 0 c 0
 533 0 484 -2 416 -6 c 0
 385 -8 346 -10 319 -10 c 0
 296 -10 287 -2 287 16 c 2
 287 29 l 2
 287 37 291 47 297 51 c 2
 299 53 l 1
 367 66 l 2
 428 78 444 113 444 236 c 2
 444 348 l 1
 209 348 l 1
 209 430 l 1
 444 430 l 1
EndSplineSet
EndChar

StartChar: onesuperior
Encoding: 185 185 143
Width: 679
GlyphClass: 2
Flags: HMW
HStem: 555 72<519 527>
VStem: 303 113<764 766 766 1245 1245 1245>
LayerCount: 2
Fore
SplineSet
303 1245 m 1
 203 1186 l 2
 191 1180 182 1176 180 1176 c 0
 178 1176 172 1180 170 1184 c 2
 156 1204 l 2
 154 1208 152 1213 152 1217 c 0
 152 1223 156 1227 166 1233 c 0
 223 1264 303 1323 354 1370 c 0
 366 1380 373 1382 379 1382 c 2
 399 1382 l 2
 413 1382 416 1381 416 1352 c 2
 416 766 l 2
 416 647 430 627 516 627 c 0
 539 627 543 624 543 604 c 2
 541 578 l 2
 541 562 536 555 522 555 c 0
 516 555 506 557 465 561 c 0
 436 563 410 565 383 565 c 0
 346 565 305 563 264 557 c 0
 239 553 213 551 203 551 c 0
 183 551 176 560 176 578 c 2
 176 602 l 2
 176 620 183 627 199 627 c 0
 293 627 303 641 303 764 c 2
 303 1245 l 1
EndSplineSet
EndChar

StartChar: twosuperior
Encoding: 178 178 144
Width: 679
GlyphClass: 2
Flags: HMW
HStem: 567 111<324 359 314 368> 1270 113<341 357>
VStem: 432 141<1127 1177>
LayerCount: 2
Fore
SplineSet
256 733 m 2
 193 680 l 1
 287 678 295 678 334 678 c 0
 385 678 385 678 569 686 c 1
 584 686 l 2
 598 686 606 682 606 676 c 2
 606 670 l 2
 606 662 602 651 596 639 c 2
 561 580 l 2
 549 560 544 557 526 557 c 0
 518 557 487 559 467 561 c 0
 389 567 381 567 354 567 c 0
 293 567 180 563 143 561 c 0
 112 559 82 557 72 557 c 0
 56 557 51 563 51 586 c 2
 51 616 l 2
 51 643 54 647 70 659 c 0
 146 720 223 792 289 864 c 0
 391 977 432 1055 432 1137 c 0
 432 1217 389 1270 326 1270 c 0
 265 1270 226 1248 154 1176 c 0
 146 1168 139 1163 135 1163 c 0
 131 1163 127 1163 123 1167 c 2
 109 1174 l 2
 101 1178 96 1182 96 1186 c 0
 96 1198 133 1247 166 1282 c 0
 232 1348 303 1382 379 1382 c 0
 498 1382 573 1307 573 1188 c 0
 573 1067 467 913 256 733 c 2
EndSplineSet
EndChar

StartChar: threesuperior
Encoding: 179 179 145
Width: 679
GlyphClass: 2
Flags: HW
HStem: 551 63<250 302> 1270 113<317 332>
VStem: 403 113<1213 1217> 446 113<798 885>
LayerCount: 2
Fore
SplineSet
408 1081 m 2xe0
 397 1073 l 1
 510 1046 559 989 559 885 c 0
 559 711 391 551 213 551 c 0
 125 551 53 590 53 637 c 0
 53 662 77 686 104 686 c 0
 129 686 151 676 188 647 c 0
 221 622 240 614 260 614 c 0
 354 614 446 727 446 842 c 0xd0
 446 928 385 979 283 977 c 0
 267 977 252 990 252 1006 c 0
 252 1012 258 1018 270 1028 c 0
 282 1036 309 1061 346 1096 c 0
 387 1135 403 1163 403 1194 c 0
 403 1239 362 1270 301 1270 c 0
 264 1270 213 1261 182 1253 c 0
 176 1251 170 1249 168 1249 c 0
 156 1249 137 1268 137 1280 c 0
 137 1292 158 1310 199 1337 c 0
 246 1368 291 1382 344 1382 c 0
 442 1382 516 1323 516 1241 c 0
 516 1186 484 1136 408 1081 c 2xe0
EndSplineSet
EndChar

StartChar: period
Encoding: 46 46 146
Width: 528
GlyphClass: 2
Flags: HMW
HStem: -20 248<231 302>
VStem: 143 248<67 139>
LayerCount: 2
Fore
SplineSet
268 227 m 0
 342 227 391 180 391 106 c 0
 391 26 342 -20 262 -20 c 0
 188 -20 143 24 143 102 c 0
 143 176 194 227 268 227 c 0
EndSplineSet
EndChar

StartChar: colon
Encoding: 58 58 147
Width: 528
GlyphClass: 2
Flags: HMW
HStem: -20 248<231 302> 637 248<231 302>
VStem: 143 248<67 139 723 797>
LayerCount: 2
Fore
SplineSet
268 885 m 0
 344 885 391 838 391 762 c 0
 391 684 342 637 262 637 c 0
 188 637 143 684 143 760 c 0
 143 834 194 885 268 885 c 0
268 227 m 0
 342 227 391 180 391 106 c 0
 391 26 342 -20 262 -20 c 0
 188 -20 143 24 143 102 c 0
 143 176 194 227 268 227 c 0
EndSplineSet
EndChar

StartChar: periodcentered
Encoding: 183 183 148
Width: 258
VWidth: 1000
GlyphClass: 2
Flags: MW
HStem: 269 125<113 146.5>
VStem: 67 125<314.5 348.5 314 349>
LayerCount: 2
Fore
SplineSet
130 394 m 0
 164 394 192 366 192 331 c 0
 192 297 164 269 129 269 c 0
 94 269 67 297 67 332 c 0
 67 366 96 394 130 394 c 0
EndSplineSet
Validated: 1
EndChar

StartChar: middot
Encoding: 183 183 149
Width: 528
Flags: HMW
HStem: 551 256<231 300>
VStem: 137 256<644 714 643 715>
LayerCount: 2
Fore
SplineSet
266 807 m 0
 336 807 393 750 393 678 c 0
 393 608 336 551 264 551 c 0
 192 551 137 608 137 680 c 0
 137 750 196 807 266 807 c 0
EndSplineSet
EndChar

StartChar: ellipsis
Encoding: 8230 8230 150
Width: 1662
GlyphClass: 2
Flags: HMW
HStem: -31 240<250 316 798 863 1346 1412>
VStem: 164 240<56 122 55 123> 711 240<56 122 55 123> 1260 240<56 123>
LayerCount: 2
Fore
SplineSet
283 209 m 0
 351 209 403 156 403 88 c 0
 403 22 351 -31 283 -31 c 0
 217 -31 164 22 164 90 c 0
 164 156 217 209 283 209 c 0
829 209 m 0
 897 209 950 156 950 88 c 0
 950 22 897 -31 829 -31 c 0
 763 -31 711 22 711 90 c 0
 711 156 766 209 829 209 c 0
1378 209 m 0
 1446 209 1499 156 1499 90 c 0
 1499 22 1446 -31 1378 -31 c 0
 1312 -31 1260 22 1260 90 c 0
 1260 156 1312 209 1378 209 c 0
EndSplineSet
EndChar

StartChar: comma
Encoding: 44 44 151
Width: 528
GlyphClass: 2
Flags: HMW
HStem: 25 217
VStem: 305 113<-113 74>
LayerCount: 2
Fore
SplineSet
135 -334 m 2
 121 -309 l 2
 119 -305 117 -297 117 -293 c 0
 117 -285 117 -285 166 -258 c 0
 248 -215 305 -143 305 -82 c 0
 305 -51 292 -26 272 -10 c 0
 266 -8 240 5 193 25 c 0
 146 43 121 78 121 127 c 0
 121 190 173 242 236 242 c 0
 334 242 418 137 418 10 c 0
 418 -111 366 -211 268 -281 c 0
 221 -314 164 -346 152 -346 c 0
 146 -346 137 -340 135 -334 c 2
EndSplineSet
EndChar

StartChar: semicolon
Encoding: 59 59 152
Width: 528
GlyphClass: 2
Flags: HW
HStem: 25 217 637 248<244 314>
VStem: 156 248<724 797> 305 113<-113 74>
LayerCount: 2
Fore
SplineSet
281 885 m 0xe0
 357 885 403 838 403 762 c 0
 403 686 354 637 274 637 c 0
 200 637 156 682 156 760 c 0
 156 834 207 885 281 885 c 0xe0
135 -334 m 2
 121 -309 l 2
 119 -305 117 -297 117 -293 c 0
 117 -285 117 -285 166 -258 c 0
 248 -215 305 -143 305 -82 c 0
 305 -51 292 -26 272 -10 c 0
 266 -8 240 5 193 25 c 0
 146 43 121 78 121 127 c 0
 121 190 173 242 236 242 c 0
 334 242 418 137 418 10 c 0xd0
 418 -111 366 -211 268 -281 c 0
 221 -314 164 -346 152 -346 c 0
 146 -346 137 -340 135 -334 c 2
EndSplineSet
EndChar

StartChar: quoteleft
Encoding: 8216 8216 153
Width: 565
GlyphClass: 2
Flags: HMW
HStem: 918 205 1370 72
VStem: 109 113<1074 1238>
LayerCount: 2
Fore
SplineSet
395 1427 m 2
 406 1401 l 2
 408 1395 408 1390 408 1386 c 0
 408 1378 403 1374 391 1370 c 0
 276 1323 221 1269 221 1206 c 0
 221 1188 234 1165 252 1151 c 0
 260 1143 260 1142 317 1122 c 0
 372 1102 406 1065 406 1020 c 0
 406 961 355 918 287 918 c 0
 187 918 109 1012 109 1137 c 0
 109 1229 158 1315 244 1372 c 0
 299 1409 363 1442 379 1442 c 0
 387 1442 391 1437 395 1427 c 2
EndSplineSet
EndChar

StartChar: quotedblright
Encoding: 8221 8221 154
Width: 868
GlyphClass: 2
Flags: HMW
HStem: 918 72 1235 207
VStem: 295 113<1120 1286> 643 113<1120 1286>
LayerCount: 2
Fore
SplineSet
123 930 m 2
 111 958 l 1
 109 973 l 2
 109 979 113 983 125 989 c 0
 234 1030 295 1090 295 1151 c 0
 295 1171 282 1194 264 1208 c 0
 256 1216 256 1217 201 1235 c 0
 146 1255 111 1296 111 1341 c 0
 111 1398 161 1442 229 1442 c 0
 329 1442 408 1348 408 1225 c 0
 408 1131 358 1046 272 987 c 0
 221 950 155 918 137 918 c 0
 131 918 125 922 123 930 c 2
469 930 m 2
 459 958 l 2
 457 962 457 967 457 973 c 0
 457 979 461 983 473 989 c 0
 584 1032 643 1090 643 1151 c 0
 643 1171 630 1194 612 1208 c 0
 604 1216 602 1217 549 1235 c 0
 494 1255 459 1296 459 1341 c 0
 459 1398 510 1442 578 1442 c 0
 678 1442 756 1348 756 1225 c 0
 756 1131 707 1044 621 987 c 0
 568 950 501 918 485 918 c 0
 477 918 473 922 469 930 c 2
EndSplineSet
EndChar

StartChar: quotedblleft
Encoding: 8220 8220 155
Width: 868
GlyphClass: 2
Flags: HMW
HStem: 918 205 1370 72
VStem: 109 113<1074 1238> 457 113<1073 1239>
LayerCount: 2
Fore
SplineSet
741 1427 m 2
 752 1401 l 2
 754 1395 756 1388 756 1386 c 0
 756 1378 751 1374 739 1370 c 0
 628 1325 569 1269 569 1208 c 0
 569 1188 582 1165 600 1151 c 0
 608 1143 609 1142 664 1122 c 0
 719 1102 754 1063 754 1020 c 0
 754 961 703 918 635 918 c 0
 535 918 457 1012 457 1135 c 0
 457 1229 506 1315 592 1372 c 0
 645 1409 709 1442 727 1442 c 0
 733 1442 737 1437 741 1427 c 2
395 1427 m 2
 406 1401 l 2
 408 1395 408 1390 408 1386 c 0
 408 1378 403 1374 391 1370 c 0
 276 1323 221 1269 221 1206 c 0
 221 1188 234 1165 252 1151 c 0
 260 1143 260 1142 317 1122 c 0
 372 1102 406 1065 406 1020 c 0
 406 961 355 918 287 918 c 0
 187 918 109 1012 109 1137 c 0
 109 1229 158 1315 244 1372 c 0
 299 1409 363 1442 379 1442 c 0
 387 1442 391 1437 395 1427 c 2
EndSplineSet
EndChar

StartChar: quotedblbase
Encoding: 8222 8222 156
Width: 868
GlyphClass: 2
Flags: HMW
HStem: -313 72 4 207
VStem: 305 113<-111 55> 653 113<-111 55>
LayerCount: 2
Fore
SplineSet
133 -301 m 2
 121 -272 l 1
 119 -258 l 2
 119 -252 123 -248 135 -242 c 0
 246 -199 305 -141 305 -80 c 0
 305 -60 292 -37 274 -23 c 0
 266 -17 266 -14 211 4 c 0
 156 24 121 66 121 111 c 0
 121 168 172 211 240 211 c 0
 340 211 418 117 418 -6 c 0
 418 -100 369 -187 283 -244 c 0
 230 -281 165 -313 147 -313 c 0
 141 -313 135 -309 133 -301 c 2
479 -301 m 2
 469 -272 l 2
 467 -268 467 -264 467 -258 c 0
 467 -252 471 -248 483 -242 c 0
 596 -199 653 -141 653 -80 c 0
 653 -60 641 -37 623 -23 c 0
 615 -17 614 -16 559 4 c 0
 504 24 469 66 469 109 c 0
 469 168 520 211 588 211 c 0
 688 211 766 117 766 -6 c 0
 766 -100 717 -187 631 -244 c 0
 576 -281 512 -313 496 -313 c 0
 488 -313 483 -309 479 -301 c 2
EndSplineSet
EndChar

StartChar: exclam
Encoding: 33 33 157
Width: 528
GlyphClass: 2
Flags: HMW
HStem: -20 248<233 304> 1368 41G<227 308>
VStem: 145 248<67 139>
LayerCount: 2
Fore
SplineSet
246 393 m 1
 147 1169 l 2
 139 1230 137 1246 137 1266 c 0
 137 1354 186 1409 268 1409 c 0
 348 1409 397 1356 397 1264 c 0
 397 1244 397 1243 387 1169 c 2
 289 393 l 1
 246 393 l 1
270 227 m 0
 344 227 393 180 393 106 c 0
 393 26 344 -20 264 -20 c 0
 190 -20 145 24 145 102 c 0
 145 176 196 227 270 227 c 0
EndSplineSet
EndChar

StartChar: exclamdown
Encoding: 161 161 158
Width: 528
GlyphClass: 2
Flags: HMW
HStem: 651 248<232 304 228 307>
VStem: 137 260<-426 -371>
LayerCount: 2
Fore
SplineSet
246 489 m 1
 289 489 l 1
 387 -285 l 2
 397 -359 397 -358 397 -381 c 0
 397 -471 348 -526 268 -526 c 0
 186 -526 137 -471 137 -381 c 0
 137 -361 139 -346 147 -285 c 2
 246 489 l 1
264 899 m 0
 344 899 393 852 393 772 c 0
 393 698 344 651 270 651 c 0
 194 651 145 702 145 780 c 0
 145 854 192 899 264 899 c 0
EndSplineSet
EndChar

StartChar: question
Encoding: 63 63 159
Width: 755
GlyphClass: 2
Flags: HW
HStem: -31 252<210 279 210 279> 549 168<190 305 190 283> 1251 213
VStem: 119 252<61 130> 201 70<373 387> 541 106<890 1001 758 1008>
LayerCount: 2
Fore
SplineSet
244 221 m 0xf4
 314 221 371 166 371 96 c 0
 371 24 314 -31 244 -31 c 0
 174 -31 119 26 119 96 c 0
 119 164 176 221 244 221 c 0xf4
201 385 m 2xec
 190 717 l 1
 407 723 541 818 541 963 c 0
 541 1053 490 1151 414 1206 c 0
 369 1237 340 1245 244 1251 c 0
 158 1257 117 1289 117 1352 c 0
 117 1415 170 1464 238 1464 c 0
 433 1464 647 1145 647 858 c 0
 647 657 530 551 305 549 c 2
 283 549 l 1
 270 387 l 2
 266 358 264 354 248 354 c 2
 221 354 l 2
 205 354 201 360 201 385 c 2xec
EndSplineSet
EndChar

StartChar: questiondown
Encoding: 191 191 160
Width: 755
GlyphClass: 2
Flags: HW
HStem: -522 213 186 168<436 551> 655 252<483 552>
VStem: 92 106<-14 10 -106 150> 391 252<746 816 746 817> 475 68<487 487>
LayerCount: 2
Fore
SplineSet
543 485 m 2xf4
 551 186 l 1
 332 178 199 84 199 -63 c 0
 199 -149 248 -231 328 -272 c 0
 365 -292 420 -305 494 -309 c 0
 572 -315 604 -346 604 -412 c 0
 604 -475 555 -522 487 -522 c 0
 397 -522 289 -447 207 -328 c 0
 135 -222 92 -80 92 51 c 0
 92 248 213 354 436 354 c 2
 461 354 l 1
 475 487 l 2
 479 512 486 522 500 522 c 2
 522 522 l 2
 538 522 543 516 543 485 c 2xf4
518 907 m 0
 588 907 643 852 643 780 c 0
 643 712 586 655 518 655 c 0
 448 655 391 710 391 782 c 0xf8
 391 852 446 907 518 907 c 0
EndSplineSet
EndChar

StartChar: guillemotright
Encoding: 187 187 161
Width: 868
GlyphClass: 2
Flags: HMW
HStem: 106 668<101 104 100 105 425 428 100 429>
LayerCount: 2
Fore
SplineSet
295 434 m 1
 76 719 l 2
 70 727 66 733 66 737 c 0
 66 739 70 748 76 754 c 2
 88 766 l 2
 94 770 98 774 102 774 c 0
 106 774 115 770 125 762 c 2
 426 498 l 2
 453 475 465 456 465 442 c 0
 465 424 451 404 412 371 c 2
 133 125 l 2
 121 113 108 106 102 106 c 0
 100 106 92 111 88 115 c 2
 74 127 l 2
 70 131 66 139 66 141 c 0
 66 145 70 154 76 162 c 2
 295 434 l 1
618 434 m 1
 397 719 l 2
 393 727 389 733 389 737 c 0
 389 739 393 748 399 754 c 2
 412 766 l 2
 418 770 422 774 426 774 c 0
 430 774 439 770 449 762 c 2
 750 498 l 2
 781 471 788 461 788 449 c 0
 788 424 776 406 735 371 c 2
 457 125 l 2
 445 113 432 106 426 106 c 0
 424 106 416 111 412 115 c 2
 397 127 l 2
 393 131 389 139 389 141 c 0
 389 145 393 154 399 162 c 2
 618 434 l 1
EndSplineSet
EndChar

StartChar: guillemotleft
Encoding: 171 171 162
Width: 868
GlyphClass: 2
Flags: HMW
HStem: 106 668<435 437 433 439 767 770 433 772>
LayerCount: 2
Fore
SplineSet
244 444 m 1
 465 160 l 2
 469 154 473 145 473 141 c 0
 473 139 469 131 463 127 c 2
 451 115 l 2
 447 111 440 106 438 106 c 0
 432 106 422 111 414 119 c 2
 113 381 l 2
 82 410 74 418 74 434 c 0
 74 454 88 475 127 508 c 2
 406 756 l 2
 420 766 430 774 436 774 c 0
 438 774 447 770 453 764 c 2
 465 752 l 2
 469 748 469 747 473 741 c 2
 473 737 l 2
 473 731 469 725 463 717 c 2
 244 444 l 1
575 444 m 1
 797 160 l 2
 803 152 807 145 807 141 c 0
 807 139 803 133 797 127 c 2
 784 115 l 2
 780 111 774 106 770 106 c 0
 764 106 756 111 748 119 c 2
 444 381 l 2
 411 410 406 418 406 434 c 0
 406 454 418 471 459 508 c 2
 739 756 l 2
 751 766 764 774 768 774 c 0
 772 774 778 770 784 764 c 2
 797 752 l 2
 801 748 803 747 805 741 c 0
 807 739 807 737 807 737 c 2
 807 733 803 727 795 717 c 2
 575 444 l 1
EndSplineSet
EndChar

StartChar: guilsinglright
Encoding: 8250 8250 163
Width: 565
GlyphClass: 2
Flags: HMW
HStem: 106 668<120 123 119 124>
VStem: 84 399<140 452 434 738>
LayerCount: 2
Fore
SplineSet
313 434 m 1
 94 719 l 2
 88 727 84 733 84 737 c 0
 84 739 88 748 94 754 c 2
 106 766 l 2
 112 770 117 774 121 774 c 0
 125 774 133 770 143 762 c 2
 444 498 l 2
 473 473 483 458 483 444 c 0
 483 424 469 406 430 371 c 2
 152 125 l 2
 140 113 127 106 121 106 c 0
 119 106 110 111 106 115 c 2
 92 127 l 2
 88 131 84 139 84 141 c 0
 84 145 88 154 94 162 c 2
 313 434 l 1
EndSplineSet
EndChar

StartChar: guilsinglleft
Encoding: 8249 8249 164
Width: 565
GlyphClass: 2
Flags: HMW
HStem: 106 668<439 441 437 443>
VStem: 78 399<140 446>
LayerCount: 2
Fore
SplineSet
248 444 m 1
 469 160 l 2
 473 154 477 145 477 141 c 0
 477 139 473 131 467 127 c 2
 455 115 l 2
 451 111 444 106 442 106 c 0
 436 106 426 111 418 119 c 2
 117 381 l 2
 84 410 78 418 78 436 c 0
 78 456 88 471 131 508 c 2
 410 756 l 2
 424 766 434 774 440 774 c 0
 442 774 451 770 457 764 c 2
 469 752 l 2
 473 748 473 747 477 741 c 2
 477 737 l 2
 477 731 473 725 467 717 c 2
 248 444 l 1
EndSplineSet
EndChar

StartChar: slash
Encoding: 47 47 165
Width: 980
GlyphClass: 2
Flags: HMW
HStem: -37 43G<53 72 53 135>
LayerCount: 2
Fore
SplineSet
135 -37 m 2
 72 -37 l 2
 47 -37 43 -35 43 -25 c 0
 43 -19 45 -12 53 6 c 2
 793 1544 l 2
 805 1573 807 1575 842 1575 c 2
 907 1575 l 2
 921 1575 926 1571 926 1563 c 0
 926 1555 921 1540 915 1528 c 2
 182 4 l 2
 164 -35 160 -37 135 -37 c 2
EndSplineSet
EndChar

StartChar: hyphen
Encoding: 45 45 166
Width: 528
GlyphClass: 2
Flags: HMW
HStem: 397 145<54 444 70 444>
VStem: 35 444<424 516 412 528>
LayerCount: 2
Fore
SplineSet
35 424 m 2
 35 516 l 2
 35 541 39 543 70 543 c 2
 444 543 l 2
 475 543 479 541 479 516 c 2
 479 424 l 2
 479 399 475 397 444 397 c 2
 70 397 l 2
 39 397 35 399 35 424 c 2
EndSplineSet
EndChar

StartChar: sfthyphen
Encoding: 173 173 167
Width: 528
GlyphClass: 2
Flags: HMW
HStem: 397 145<54 444 70 444>
VStem: 35 444<424 516 412 528>
LayerCount: 2
Fore
SplineSet
35 424 m 2
 35 516 l 2
 35 541 39 543 70 543 c 2
 444 543 l 2
 475 543 479 541 479 516 c 2
 479 424 l 2
 479 399 475 397 444 397 c 2
 70 397 l 2
 39 397 35 399 35 424 c 2
EndSplineSet
EndChar

StartChar: endash
Encoding: 8211 8211 168
Width: 980
GlyphClass: 2
Flags: HMW
HStem: 397 145<76 895 92 895>
LayerCount: 2
Fore
SplineSet
928 508 m 2
 928 432 l 2
 928 397 928 397 895 397 c 2
 92 397 l 2
 59 397 59 397 59 432 c 2
 59 508 l 2
 59 543 59 543 92 543 c 2
 895 543 l 1
 922 545 l 2
 926 545 928 535 928 508 c 2
EndSplineSet
EndChar

StartChar: emdash
Encoding: 8212 8212 169
Width: 1662
GlyphClass: 2
Flags: HMW
HStem: 397 145<58 1583 76 1583>
LayerCount: 2
Fore
SplineSet
37 430 m 2
 37 510 l 2
 37 539 41 543 76 543 c 2
 1583 543 l 2
 1616 543 1620 541 1620 510 c 2
 1620 430 l 2
 1620 399 1616 397 1583 397 c 2
 76 397 l 2
 41 397 37 401 37 430 c 2
EndSplineSet
EndChar

StartChar: parenleft
Encoding: 40 40 170
Width: 604
GlyphClass: 2
Flags: HMW
VStem: 156 139<432 597>
LayerCount: 2
Fore
SplineSet
631 -426 m 2
 612 -446 l 2
 606 -456 602 -461 598 -461 c 0
 573 -461 459 -342 391 -246 c 0
 244 -35 156 240 156 492 c 0
 156 703 225 955 334 1145 c 0
 387 1237 514 1391 580 1444 c 0
 588 1448 594 1454 600 1460 c 0
 610 1468 612 1470 614 1470 c 0
 616 1470 617 1470 629 1458 c 2
 647 1434 l 2
 661 1420 662 1417 662 1415 c 0
 662 1411 658 1405 633 1380 c 0
 424 1171 295 846 295 522 c 0
 295 342 335 131 401 -39 c 0
 452 -168 557 -336 616 -379 c 0
 639 -397 643 -400 643 -406 c 0
 643 -410 641 -412 631 -426 c 2
EndSplineSet
EndChar

StartChar: parenright
Encoding: 41 41 171
Width: 604
GlyphClass: 2
Flags: HMW
VStem: 379 139<413 579>
LayerCount: 2
Fore
SplineSet
43 1436 m 2
 61 1458 l 2
 65 1466 74 1470 76 1470 c 0
 101 1470 217 1349 283 1255 c 0
 430 1042 518 768 518 518 c 0
 518 307 449 55 340 -135 c 0
 287 -225 157 -383 94 -434 c 2
 74 -451 l 2
 66 -459 63 -461 59 -461 c 0
 57 -461 55 -459 53 -455 c 2
 45 -446 l 1
 27 -424 l 2
 13 -408 12 -407 12 -403 c 0
 12 -399 16 -394 41 -369 c 0
 252 -158 379 163 379 487 c 0
 379 669 338 881 272 1051 c 0
 221 1180 116 1346 57 1391 c 0
 34 1407 31 1411 31 1417 c 0
 31 1421 33 1424 43 1436 c 2
EndSplineSet
EndChar

